M48
; DRILL file {KiCad 9.0.6} date 2026-07-14T19:51:13-0700
; FORMAT={-:-/ absolute / metric / decimal}
; #@! TF.CreationDate,2026-07-14T19:51:13-07:00
; #@! TF.GenerationSoftware,Kicad,Pcbnew,9.0.6
; #@! TF.FileFunction,Plated,1,2,PTH
FMAT,2
METRIC
; #@! TA.AperFunction,Plated,PTH,ViaDrill
T1C0.635
; #@! TA.AperFunction,Plated,PTH,ComponentDrill
T2C0.813
; #@! TA.AperFunction,Plated,PTH,ComponentDrill
T3C1.016
; #@! TA.AperFunction,Plated,PTH,ComponentDrill
T4C1.200
; #@! TA.AperFunction,Plated,PTH,ComponentDrill
T5C1.800
; #@! TA.AperFunction,Plated,PTH,ComponentDrill
T6C3.048
%
G90
G05
T1
X137.795Y-124.46
X138.748Y-123.507
X139.7Y-81.915
X139.7Y-97.765
X140.017Y-107.315
X140.335Y-125.73
X143.51Y-97.79
X156.845Y-108.585
X158.75Y-120.015
T2
X106.68Y-113.03
X106.68Y-118.11
X111.76Y-113.03
X111.76Y-120.65
X114.3Y-113.03
X114.3Y-120.65
X116.84Y-113.03
X116.84Y-120.65
X119.38Y-113.03
X119.38Y-120.65
X121.92Y-113.03
X121.92Y-120.65
X124.46Y-113.03
X124.46Y-120.65
X127.0Y-113.03
X127.0Y-120.65
X132.08Y-113.03
X132.08Y-115.57
X132.08Y-118.11
X134.62Y-113.03
X134.62Y-118.11
X137.16Y-113.03
X137.16Y-118.11
X142.24Y-113.03
X142.24Y-120.65
X144.78Y-113.03
X144.78Y-120.65
X147.32Y-113.03
X147.32Y-120.65
X149.86Y-113.03
X149.86Y-120.65
X152.4Y-113.03
X152.4Y-120.65
X154.94Y-113.03
X154.94Y-120.65
X157.48Y-113.03
X157.48Y-120.65
X160.02Y-113.03
X160.02Y-120.65
X162.56Y-113.03
X162.56Y-120.65
X165.1Y-113.03
X165.1Y-120.65
X170.18Y-113.03
X170.18Y-118.11
X175.26Y-113.03
X175.26Y-120.65
X177.8Y-113.03
X177.8Y-120.65
X180.34Y-113.03
X180.34Y-120.65
X182.88Y-113.03
X182.88Y-120.65
X185.42Y-113.03
X185.42Y-120.65
X187.96Y-113.03
X187.96Y-120.65
X190.5Y-113.03
X190.5Y-120.65
X193.04Y-113.03
X193.04Y-120.65
X198.12Y-113.03
X198.12Y-115.57
X198.12Y-118.11
T3
X114.3Y-125.73
X114.3Y-128.27
X116.84Y-125.73
X116.84Y-128.27
X119.38Y-125.73
X119.38Y-128.27
X121.92Y-125.73
X121.92Y-128.27
X124.46Y-125.73
X124.46Y-128.27
X127.0Y-125.73
X127.0Y-128.27
X129.54Y-125.73
X129.54Y-128.27
X142.24Y-125.73
X142.24Y-128.27
X144.78Y-125.73
X144.78Y-128.27
X147.32Y-125.73
X147.32Y-128.27
X149.86Y-125.73
X149.86Y-128.27
X152.4Y-125.73
X152.4Y-128.27
X154.94Y-125.73
X154.94Y-128.27
X157.48Y-125.73
X157.48Y-128.27
X160.02Y-125.73
X160.02Y-128.27
X162.56Y-125.73
X162.56Y-128.27
X165.1Y-125.73
X165.1Y-128.27
X167.64Y-125.73
X167.64Y-128.27
X170.18Y-125.73
X170.18Y-128.27
X172.72Y-125.73
X172.72Y-128.27
X175.26Y-125.73
X175.26Y-128.27
X177.8Y-125.73
X177.8Y-128.27
X180.34Y-125.73
X180.34Y-128.27
X182.88Y-125.73
X182.88Y-128.27
X185.42Y-125.73
X185.42Y-128.27
X187.96Y-125.73
X187.96Y-128.27
X190.5Y-125.73
X190.5Y-128.27
T4
X114.15Y-54.3
X114.15Y-59.3
X114.15Y-70.3
X114.15Y-75.3
X114.15Y-86.3
X114.15Y-91.3
X114.15Y-102.3
X114.15Y-107.3
X126.65Y-54.3
X126.65Y-59.3
X126.65Y-70.3
X126.65Y-75.3
X126.65Y-86.3
X126.65Y-91.3
X126.65Y-102.3
X126.65Y-107.3
X130.15Y-54.3
X130.15Y-59.3
X130.15Y-70.3
X130.15Y-75.3
X130.15Y-86.3
X130.15Y-91.3
X130.15Y-102.3
X130.15Y-107.3
X142.65Y-54.3
X142.65Y-59.3
X142.65Y-70.3
X142.65Y-75.3
X142.65Y-86.3
X142.65Y-91.3
X142.65Y-102.3
X142.65Y-107.3
X146.15Y-54.3
X146.15Y-59.3
X146.15Y-70.3
X146.15Y-75.3
X146.15Y-86.3
X146.15Y-91.3
X146.15Y-102.3
X146.15Y-107.3
X158.65Y-54.3
X158.65Y-59.3
X158.65Y-70.3
X158.65Y-75.3
X158.65Y-86.3
X158.65Y-91.3
X158.65Y-102.3
X158.65Y-107.3
X162.15Y-54.3
X162.15Y-59.3
X162.15Y-70.3
X162.15Y-75.3
X162.15Y-86.3
X162.15Y-91.3
X162.15Y-102.3
X162.15Y-107.3
X174.65Y-54.3
X174.65Y-59.3
X174.65Y-70.3
X174.65Y-75.3
X174.65Y-86.3
X174.65Y-91.3
X174.65Y-102.3
X174.65Y-107.3
X178.15Y-54.3
X178.15Y-59.3
X178.15Y-70.3
X178.15Y-75.3
X178.15Y-86.3
X178.15Y-91.3
X178.15Y-102.3
X178.15Y-107.3
X190.65Y-54.3
X190.65Y-59.3
X190.65Y-70.3
X190.65Y-75.3
X190.65Y-86.3
X190.65Y-91.3
X190.65Y-102.3
X190.65Y-107.3
T5
X120.4Y-52.3
X120.4Y-61.3
X120.4Y-68.3
X120.4Y-77.3
X120.4Y-84.3
X120.4Y-93.3
X120.4Y-100.3
X120.4Y-109.3
X136.4Y-52.3
X136.4Y-61.3
X136.4Y-68.3
X136.4Y-77.3
X136.4Y-84.3
X136.4Y-93.3
X136.4Y-100.3
X136.4Y-109.3
X152.4Y-52.3
X152.4Y-61.3
X152.4Y-68.3
X152.4Y-77.3
X152.4Y-84.3
X152.4Y-93.3
X152.4Y-100.3
X152.4Y-109.3
X168.4Y-52.3
X168.4Y-61.3
X168.4Y-68.3
X168.4Y-77.3
X168.4Y-84.3
X168.4Y-93.3
X168.4Y-100.3
X168.4Y-109.3
X184.4Y-52.3
X184.4Y-61.3
X184.4Y-68.3
X184.4Y-77.3
X184.4Y-84.3
X184.4Y-93.3
X184.4Y-100.3
X184.4Y-109.3
T6
X107.4Y-55.8
X107.4Y-125.8
X197.4Y-55.8
X197.4Y-125.8
M30
