%TF.GenerationSoftware,KiCad,Pcbnew,9.0.6*%
%TF.CreationDate,2026-07-14T19:51:09-07:00*%
%TF.ProjectId,Minimax8085ScreenKeypad,4d696e69-6d61-4783-9830-383553637265,rev?*%
%TF.SameCoordinates,Original*%
%TF.FileFunction,Legend,Top*%
%TF.FilePolarity,Positive*%
%FSLAX46Y46*%
G04 Gerber Fmt 4.6, Leading zero omitted, Abs format (unit mm)*
G04 Created by KiCad (PCBNEW 9.0.6) date 2026-07-14 19:51:09*
%MOMM*%
%LPD*%
G01*
G04 APERTURE LIST*
%ADD10C,0.203200*%
%ADD11C,0.200000*%
%ADD12C,0.304800*%
%ADD13C,0.254000*%
%ADD14R,1.524000X1.524000*%
%ADD15C,1.524000*%
%ADD16C,4.064000*%
%ADD17C,1.397000*%
%ADD18C,1.600000*%
%ADD19R,1.397000X1.397000*%
G04 APERTURE END LIST*
D10*
X132203976Y-128729453D02*
X131623404Y-128729453D01*
X131913690Y-128729453D02*
X131913690Y-127713453D01*
X131913690Y-127713453D02*
X131816928Y-127858596D01*
X131816928Y-127858596D02*
X131720166Y-127955358D01*
X131720166Y-127955358D02*
X131623404Y-128003739D01*
X133074833Y-128052120D02*
X133074833Y-128729453D01*
X132832928Y-127665073D02*
X132591023Y-128390787D01*
X132591023Y-128390787D02*
X133219976Y-128390787D01*
X132203976Y-126189453D02*
X131623404Y-126189453D01*
X131913690Y-126189453D02*
X131913690Y-125173453D01*
X131913690Y-125173453D02*
X131816928Y-125318596D01*
X131816928Y-125318596D02*
X131720166Y-125415358D01*
X131720166Y-125415358D02*
X131623404Y-125463739D01*
X132542642Y-125173453D02*
X133171595Y-125173453D01*
X133171595Y-125173453D02*
X132832928Y-125560501D01*
X132832928Y-125560501D02*
X132978071Y-125560501D01*
X132978071Y-125560501D02*
X133074833Y-125608882D01*
X133074833Y-125608882D02*
X133123214Y-125657263D01*
X133123214Y-125657263D02*
X133171595Y-125754025D01*
X133171595Y-125754025D02*
X133171595Y-125995930D01*
X133171595Y-125995930D02*
X133123214Y-126092692D01*
X133123214Y-126092692D02*
X133074833Y-126141073D01*
X133074833Y-126141073D02*
X132978071Y-126189453D01*
X132978071Y-126189453D02*
X132687785Y-126189453D01*
X132687785Y-126189453D02*
X132591023Y-126141073D01*
X132591023Y-126141073D02*
X132542642Y-126092692D01*
X111787214Y-127810215D02*
X111835595Y-127761834D01*
X111835595Y-127761834D02*
X111932357Y-127713453D01*
X111932357Y-127713453D02*
X112174262Y-127713453D01*
X112174262Y-127713453D02*
X112271024Y-127761834D01*
X112271024Y-127761834D02*
X112319405Y-127810215D01*
X112319405Y-127810215D02*
X112367786Y-127906977D01*
X112367786Y-127906977D02*
X112367786Y-128003739D01*
X112367786Y-128003739D02*
X112319405Y-128148882D01*
X112319405Y-128148882D02*
X111738833Y-128729453D01*
X111738833Y-128729453D02*
X112367786Y-128729453D01*
X112367786Y-126189453D02*
X111787214Y-126189453D01*
X112077500Y-126189453D02*
X112077500Y-125173453D01*
X112077500Y-125173453D02*
X111980738Y-125318596D01*
X111980738Y-125318596D02*
X111883976Y-125415358D01*
X111883976Y-125415358D02*
X111787214Y-125463739D01*
D11*
X116205000Y-124460000D02*
X115570000Y-125095000D01*
X117475000Y-124460000D02*
X116205000Y-124460000D01*
X118110000Y-125095000D02*
X117475000Y-124460000D01*
X118745000Y-124460000D02*
X118110000Y-125095000D01*
X120015000Y-124460000D02*
X118745000Y-124460000D01*
X120650000Y-125095000D02*
X120015000Y-124460000D01*
X121285000Y-124460000D02*
X120650000Y-125095000D01*
X122555000Y-124460000D02*
X121285000Y-124460000D01*
X123190000Y-125095000D02*
X122555000Y-124460000D01*
X123825000Y-124460000D02*
X123190000Y-125095000D01*
X125095000Y-124460000D02*
X123825000Y-124460000D01*
X125730000Y-125095000D02*
X125095000Y-124460000D01*
X126365000Y-124460000D02*
X125730000Y-125095000D01*
X127635000Y-124460000D02*
X126365000Y-124460000D01*
X128270000Y-125095000D02*
X127635000Y-124460000D01*
X128905000Y-124460000D02*
X128270000Y-125095000D01*
X130175000Y-124460000D02*
X128905000Y-124460000D01*
X130810000Y-125095000D02*
X130175000Y-124460000D01*
X130810000Y-126365000D02*
X130810000Y-125095000D01*
X130175000Y-127000000D02*
X130810000Y-126365000D01*
X130810000Y-127635000D02*
X130175000Y-127000000D01*
X130810000Y-128905000D02*
X130810000Y-127635000D01*
X130175000Y-129540000D02*
X130810000Y-128905000D01*
X128905000Y-129540000D02*
X130175000Y-129540000D01*
X128270000Y-128905000D02*
X128905000Y-129540000D01*
X127635000Y-129540000D02*
X128270000Y-128905000D01*
X126365000Y-129540000D02*
X127635000Y-129540000D01*
X125730000Y-128905000D02*
X126365000Y-129540000D01*
X125095000Y-129540000D02*
X125730000Y-128905000D01*
X123825000Y-129540000D02*
X125095000Y-129540000D01*
X123190000Y-128905000D02*
X123825000Y-129540000D01*
X122555000Y-129540000D02*
X123190000Y-128905000D01*
X121285000Y-129540000D02*
X122555000Y-129540000D01*
X120650000Y-128905000D02*
X121285000Y-129540000D01*
X120015000Y-129540000D02*
X120650000Y-128905000D01*
X118745000Y-129540000D02*
X120015000Y-129540000D01*
X118110000Y-128905000D02*
X118745000Y-129540000D01*
X117475000Y-129540000D02*
X118110000Y-128905000D01*
X116205000Y-129540000D02*
X117475000Y-129540000D01*
X115570000Y-128905000D02*
X116205000Y-129540000D01*
X114935000Y-129540000D02*
X115570000Y-128905000D01*
X113665000Y-129540000D02*
X114935000Y-129540000D01*
X113030000Y-128905000D02*
X113665000Y-129540000D01*
X113030000Y-127635000D02*
X113030000Y-128905000D01*
X113665000Y-127000000D02*
X113030000Y-127635000D01*
X115570000Y-127000000D02*
X113030000Y-127000000D01*
X115570000Y-124460000D02*
X115570000Y-127000000D01*
X113030000Y-124460000D02*
X115570000Y-124460000D01*
X113030000Y-127000000D02*
X113030000Y-124460000D01*
X107315000Y-89852500D02*
X107632500Y-89535000D01*
X107632500Y-89852500D02*
X107315000Y-89852500D01*
X107315000Y-90170000D02*
X107632500Y-89852500D01*
X107632500Y-90170000D02*
X107315000Y-90170000D01*
X107315000Y-90487500D02*
X107632500Y-90170000D01*
X107632500Y-90487500D02*
X107315000Y-90487500D01*
X107315000Y-90805000D02*
X107632500Y-90487500D01*
X107632500Y-90805000D02*
X107315000Y-90805000D01*
X107315000Y-91122500D02*
X107632500Y-90805000D01*
X107632500Y-91122500D02*
X107315000Y-91122500D01*
X107315000Y-91440000D02*
X107632500Y-91122500D01*
X107632500Y-91440000D02*
X107315000Y-91440000D01*
X107315000Y-91757500D02*
X107632500Y-91440000D01*
X107632500Y-91757500D02*
X107315000Y-91757500D01*
X107315000Y-92075000D02*
X107632500Y-91757500D01*
X107632500Y-92075000D02*
X107315000Y-92075000D01*
X107315000Y-92392500D02*
X107632500Y-92075000D01*
X107632500Y-92392500D02*
X107315000Y-92392500D01*
X107315000Y-92710000D02*
X107632500Y-92392500D01*
X107632500Y-92710000D02*
X107315000Y-92710000D01*
X107315000Y-93027500D02*
X107632500Y-92710000D01*
X107632500Y-93027500D02*
X107315000Y-93027500D01*
X107315000Y-93345000D02*
X107632500Y-93027500D01*
X107632500Y-93345000D02*
X107315000Y-93345000D01*
X107315000Y-93662500D02*
X107632500Y-93345000D01*
X107632500Y-93662500D02*
X107315000Y-93662500D01*
X107315000Y-93980000D02*
X107632500Y-93662500D01*
X107632500Y-93980000D02*
X107315000Y-93980000D01*
X107315000Y-94297500D02*
X107632500Y-93980000D01*
X107632500Y-94297500D02*
X107315000Y-94297500D01*
X107315000Y-94615000D02*
X107632500Y-94297500D01*
X107632500Y-94615000D02*
X107315000Y-94615000D01*
X107315000Y-94932500D02*
X107632500Y-94615000D01*
X107632500Y-94932500D02*
X107315000Y-94932500D01*
X107315000Y-95250000D02*
X107632500Y-94932500D01*
X107632500Y-95250000D02*
X107315000Y-95250000D01*
X107315000Y-95567500D02*
X107632500Y-95250000D01*
X107632500Y-95567500D02*
X107315000Y-95567500D01*
X107315000Y-95885000D02*
X107632500Y-95567500D01*
X107632500Y-95885000D02*
X107315000Y-95885000D01*
X107315000Y-96202500D02*
X107632500Y-95885000D01*
X107632500Y-96202500D02*
X107315000Y-96202500D01*
X107315000Y-96520000D02*
X107632500Y-96202500D01*
X107632500Y-96520000D02*
X107315000Y-96520000D01*
X107315000Y-96837500D02*
X107632500Y-96520000D01*
X107632500Y-96837500D02*
X107315000Y-96837500D01*
X107315000Y-97155000D02*
X107632500Y-96837500D01*
X111125000Y-89852500D02*
X110807500Y-89535000D01*
X110807500Y-89852500D02*
X111125000Y-89852500D01*
X111125000Y-90170000D02*
X110807500Y-89852500D01*
X110807500Y-90170000D02*
X111125000Y-90170000D01*
X111125000Y-90487500D02*
X110807500Y-90170000D01*
X110807500Y-90487500D02*
X111125000Y-90487500D01*
X111125000Y-90805000D02*
X110807500Y-90487500D01*
X110807500Y-90805000D02*
X111125000Y-90805000D01*
X111125000Y-91122500D02*
X110807500Y-90805000D01*
X110807500Y-91122500D02*
X111125000Y-91122500D01*
X111125000Y-91440000D02*
X110807500Y-91122500D01*
X110807500Y-91440000D02*
X111125000Y-91440000D01*
X111125000Y-91757500D02*
X110807500Y-91440000D01*
X110807500Y-91757500D02*
X111125000Y-91757500D01*
X111125000Y-92075000D02*
X110807500Y-91757500D01*
X110807500Y-92075000D02*
X111125000Y-92075000D01*
X111125000Y-92392500D02*
X110807500Y-92075000D01*
X110807500Y-92392500D02*
X111125000Y-92392500D01*
X110807500Y-92710000D02*
X110807500Y-92392500D01*
X111125000Y-92392500D02*
X110807500Y-92710000D01*
X110807500Y-92710000D02*
X111125000Y-92392500D01*
X111125000Y-92710000D02*
X110807500Y-92710000D01*
X110807500Y-93027500D02*
X111125000Y-92710000D01*
X111125000Y-93027500D02*
X110807500Y-93027500D01*
X110807500Y-93345000D02*
X111125000Y-93027500D01*
X111125000Y-93345000D02*
X110807500Y-93345000D01*
X110807500Y-93662500D02*
X111125000Y-93345000D01*
X111125000Y-93662500D02*
X110807500Y-93662500D01*
X110807500Y-93980000D02*
X111125000Y-93662500D01*
X111125000Y-93980000D02*
X110807500Y-93980000D01*
X110807500Y-94297500D02*
X111125000Y-93980000D01*
X111125000Y-94297500D02*
X110807500Y-94297500D01*
X110807500Y-94615000D02*
X111125000Y-94297500D01*
X111125000Y-94615000D02*
X110807500Y-94615000D01*
X110807500Y-94932500D02*
X111125000Y-94615000D01*
X111125000Y-94932500D02*
X110807500Y-94932500D01*
X110807500Y-95250000D02*
X111125000Y-94932500D01*
X111125000Y-95250000D02*
X110807500Y-95250000D01*
X110807500Y-95567500D02*
X111125000Y-95250000D01*
X111125000Y-95567500D02*
X110807500Y-95567500D01*
X110807500Y-95885000D02*
X111125000Y-95567500D01*
X111125000Y-95885000D02*
X110807500Y-95885000D01*
X110807500Y-96202500D02*
X111125000Y-95885000D01*
X111125000Y-96202500D02*
X110807500Y-96202500D01*
X110807500Y-96520000D02*
X111125000Y-96202500D01*
X111125000Y-96520000D02*
X110807500Y-96520000D01*
X110807500Y-96837500D02*
X111125000Y-96520000D01*
X111125000Y-96837500D02*
X110807500Y-96837500D01*
X110807500Y-97155000D02*
X111125000Y-96837500D01*
X107315000Y-97155000D02*
X107632500Y-97155000D01*
X107315000Y-89535000D02*
X107315000Y-97155000D01*
X110807500Y-89535000D02*
X107315000Y-89535000D01*
X111125000Y-89535000D02*
X110807500Y-89535000D01*
X111125000Y-97155000D02*
X111125000Y-89535000D01*
X110807500Y-97155000D02*
X111125000Y-97155000D01*
X109855000Y-94932500D02*
X109220000Y-94932500D01*
X110172500Y-95250000D02*
X109855000Y-94932500D01*
X109855000Y-95250000D02*
X110172500Y-95250000D01*
X109537500Y-95250000D02*
X109855000Y-95250000D01*
X109537500Y-94932500D02*
X109537500Y-95250000D01*
X109537500Y-94615000D02*
X109537500Y-94932500D01*
X108902500Y-94615000D02*
X109537500Y-94615000D01*
X108902500Y-94297500D02*
X108902500Y-94615000D01*
X109220000Y-94297500D02*
X108902500Y-94297500D01*
X109220000Y-94615000D02*
X109220000Y-94297500D01*
X109220000Y-94932500D02*
X109220000Y-94615000D01*
X109537500Y-95250000D02*
X109220000Y-94932500D01*
X109537500Y-94932500D02*
X109537500Y-95250000D01*
X109855000Y-94932500D02*
X109537500Y-94932500D01*
X109855000Y-95567500D02*
X109855000Y-94932500D01*
X110172500Y-95567500D02*
X109855000Y-95567500D01*
X108902500Y-94297500D02*
X110172500Y-95567500D01*
X108902500Y-94615000D02*
X108902500Y-94297500D01*
X109855000Y-91757500D02*
X110172500Y-91440000D01*
X109220000Y-91757500D02*
X110172500Y-90805000D01*
X109220000Y-92392500D02*
X109855000Y-92392500D01*
X108585000Y-93662500D02*
X109220000Y-93027500D01*
X109220000Y-93662500D02*
X109855000Y-93027500D01*
X108585000Y-94297500D02*
X110172500Y-95885000D01*
X109220000Y-94297500D02*
X108585000Y-94297500D01*
X110172500Y-95250000D02*
X109220000Y-94297500D01*
X110172500Y-95885000D02*
X110172500Y-95250000D01*
X110490000Y-92392500D02*
X110807500Y-92392500D01*
X110490000Y-91757500D02*
X110490000Y-92392500D01*
X110490000Y-92075000D02*
X110490000Y-91757500D01*
X110807500Y-92075000D02*
X110490000Y-92075000D01*
X110807500Y-91757500D02*
X110807500Y-92075000D01*
X110490000Y-91757500D02*
X110807500Y-91757500D01*
X110172500Y-92075000D02*
X110490000Y-91757500D01*
X110807500Y-92075000D02*
X110172500Y-92075000D01*
X110807500Y-91757500D02*
X110807500Y-92075000D01*
X110490000Y-92075000D02*
X110807500Y-91757500D01*
X110807500Y-92392500D02*
X110490000Y-92075000D01*
X110490000Y-89535000D02*
X110490000Y-89852500D01*
X110172500Y-89535000D02*
X110490000Y-89535000D01*
X110172500Y-90170000D02*
X110172500Y-89535000D01*
X110172500Y-89852500D02*
X110172500Y-90170000D01*
X109855000Y-89535000D02*
X110172500Y-89852500D01*
X109855000Y-90487500D02*
X109855000Y-89535000D01*
X109537500Y-90805000D02*
X109855000Y-90487500D01*
X109537500Y-89535000D02*
X109537500Y-90805000D01*
X109220000Y-89535000D02*
X109537500Y-89535000D01*
X109220000Y-91122500D02*
X109220000Y-89535000D01*
X108902500Y-91440000D02*
X109220000Y-91122500D01*
X108902500Y-89535000D02*
X108902500Y-91440000D01*
X108585000Y-89535000D02*
X108902500Y-89535000D01*
X108585000Y-91757500D02*
X108585000Y-89535000D01*
X108267500Y-91757500D02*
X108585000Y-91757500D01*
X108267500Y-92392500D02*
X108267500Y-91757500D01*
X108585000Y-92392500D02*
X108267500Y-92392500D01*
X108585000Y-93027500D02*
X108585000Y-92392500D01*
X108267500Y-93345000D02*
X108585000Y-93027500D01*
X108267500Y-89535000D02*
X108267500Y-93345000D01*
X108267500Y-89852500D02*
X108267500Y-89535000D01*
X107950000Y-89535000D02*
X108267500Y-89852500D01*
X107950000Y-93662500D02*
X107950000Y-89535000D01*
X107632500Y-93662500D02*
X107950000Y-93662500D01*
X107950000Y-93662500D02*
X107632500Y-93662500D01*
X108267500Y-93345000D02*
X107950000Y-93662500D01*
X107632500Y-93345000D02*
X108267500Y-93345000D01*
X107632500Y-93027500D02*
X107632500Y-93345000D01*
X108585000Y-93027500D02*
X107632500Y-93027500D01*
X108902500Y-92710000D02*
X108585000Y-93027500D01*
X107632500Y-92710000D02*
X108902500Y-92710000D01*
X107632500Y-92392500D02*
X107632500Y-92710000D01*
X108585000Y-92392500D02*
X107632500Y-92392500D01*
X108267500Y-92075000D02*
X108585000Y-92392500D01*
X107632500Y-92075000D02*
X108267500Y-92075000D01*
X107632500Y-91757500D02*
X107632500Y-92075000D01*
X108585000Y-91757500D02*
X107632500Y-91757500D01*
X108902500Y-91440000D02*
X108585000Y-91757500D01*
X107632500Y-91440000D02*
X108902500Y-91440000D01*
X107632500Y-91122500D02*
X107632500Y-91440000D01*
X109220000Y-91122500D02*
X107632500Y-91122500D01*
X109537500Y-90805000D02*
X109220000Y-91122500D01*
X107632500Y-90805000D02*
X109537500Y-90805000D01*
X107632500Y-90487500D02*
X107632500Y-90805000D01*
X109855000Y-90487500D02*
X107632500Y-90487500D01*
X110172500Y-90170000D02*
X109855000Y-90487500D01*
X107632500Y-90170000D02*
X110172500Y-90170000D01*
X107632500Y-89852500D02*
X107632500Y-90170000D01*
X110807500Y-89852500D02*
X107632500Y-89852500D01*
X107632500Y-89852500D02*
X107950000Y-89535000D01*
X107632500Y-90170000D02*
X107632500Y-89852500D01*
X108267500Y-89535000D02*
X107632500Y-90170000D01*
X108585000Y-89535000D02*
X108267500Y-89535000D01*
X107632500Y-90487500D02*
X108585000Y-89535000D01*
X107632500Y-90805000D02*
X107632500Y-90487500D01*
X108902500Y-89535000D02*
X107632500Y-90805000D01*
X109220000Y-89535000D02*
X108902500Y-89535000D01*
X107632500Y-91122500D02*
X109220000Y-89535000D01*
X107632500Y-91440000D02*
X107632500Y-91122500D01*
X109537500Y-89535000D02*
X107632500Y-91440000D01*
X109855000Y-89535000D02*
X109537500Y-89535000D01*
X107632500Y-91757500D02*
X109855000Y-89535000D01*
X107632500Y-92075000D02*
X107632500Y-91757500D01*
X110172500Y-89535000D02*
X107632500Y-92075000D01*
X110490000Y-89535000D02*
X110172500Y-89535000D01*
X107632500Y-92392500D02*
X110490000Y-89535000D01*
X107632500Y-92710000D02*
X107632500Y-92392500D01*
X108267500Y-92075000D02*
X107632500Y-92710000D01*
X108267500Y-92392500D02*
X108267500Y-92075000D01*
X107632500Y-93027500D02*
X108267500Y-92392500D01*
X107632500Y-93345000D02*
X107632500Y-93027500D01*
X108585000Y-92392500D02*
X107632500Y-93345000D01*
X108585000Y-92710000D02*
X108585000Y-92392500D01*
X107632500Y-93662500D02*
X108585000Y-92710000D01*
X109855000Y-93980000D02*
X109537500Y-93980000D01*
X109855000Y-94297500D02*
X109855000Y-93980000D01*
X110172500Y-94297500D02*
X109855000Y-94297500D01*
X110172500Y-94615000D02*
X110172500Y-94297500D01*
X110490000Y-94615000D02*
X110172500Y-94615000D01*
X110490000Y-94297500D02*
X110490000Y-94615000D01*
X110172500Y-94297500D02*
X110490000Y-94297500D01*
X110172500Y-93980000D02*
X110172500Y-94297500D01*
X109855000Y-93980000D02*
X110172500Y-93980000D01*
X109855000Y-93662500D02*
X109855000Y-93980000D01*
X110172500Y-93662500D02*
X109855000Y-93662500D01*
X110172500Y-93980000D02*
X110172500Y-93662500D01*
X110490000Y-93980000D02*
X110172500Y-93980000D01*
X110490000Y-93662500D02*
X110490000Y-93980000D01*
X110172500Y-93662500D02*
X110490000Y-93662500D01*
X110172500Y-93345000D02*
X110172500Y-93662500D01*
X110490000Y-93345000D02*
X110172500Y-93345000D01*
X110807500Y-93345000D02*
X110490000Y-93345000D01*
X110807500Y-93662500D02*
X110807500Y-93345000D01*
X110490000Y-93662500D02*
X110807500Y-93662500D01*
X110490000Y-93980000D02*
X110490000Y-93662500D01*
X110807500Y-93980000D02*
X110490000Y-93980000D01*
X110807500Y-94297500D02*
X110807500Y-93980000D01*
X110490000Y-94297500D02*
X110807500Y-94297500D01*
X110490000Y-94615000D02*
X110490000Y-94297500D01*
X110807500Y-94615000D02*
X110490000Y-94615000D01*
X110807500Y-94932500D02*
X110807500Y-94615000D01*
X110490000Y-94932500D02*
X110807500Y-94932500D01*
X110490000Y-93027500D02*
X110490000Y-94932500D01*
X110807500Y-93027500D02*
X110490000Y-93027500D01*
X110807500Y-93345000D02*
X110807500Y-93027500D01*
X110490000Y-93027500D02*
X110807500Y-93345000D01*
X110490000Y-93345000D02*
X110490000Y-93027500D01*
X110807500Y-93662500D02*
X110490000Y-93345000D01*
X110807500Y-93980000D02*
X110807500Y-93662500D01*
X110172500Y-93345000D02*
X110807500Y-93980000D01*
X110172500Y-93662500D02*
X110172500Y-93345000D01*
X110807500Y-94297500D02*
X110172500Y-93662500D01*
X110807500Y-94615000D02*
X110807500Y-94297500D01*
X109855000Y-93662500D02*
X110807500Y-94615000D01*
X109855000Y-93980000D02*
X109855000Y-93662500D01*
X110807500Y-94932500D02*
X109855000Y-93980000D01*
X109855000Y-96520000D02*
X108585000Y-96520000D01*
X109855000Y-96202500D02*
X109855000Y-96520000D01*
X109537500Y-96202500D02*
X109855000Y-96202500D01*
X108585000Y-96202500D02*
X109537500Y-96202500D01*
X108585000Y-95885000D02*
X108585000Y-96202500D01*
X108902500Y-95885000D02*
X108585000Y-95885000D01*
X109220000Y-95885000D02*
X108902500Y-95885000D01*
X109220000Y-95567500D02*
X109220000Y-95885000D01*
X108902500Y-95567500D02*
X109220000Y-95567500D01*
X108267500Y-94932500D02*
X108902500Y-95567500D01*
X108585000Y-94932500D02*
X108267500Y-94932500D01*
X108585000Y-95250000D02*
X108585000Y-94932500D01*
X108902500Y-95250000D02*
X108585000Y-95250000D01*
X108902500Y-95567500D02*
X108902500Y-95250000D01*
X108585000Y-95567500D02*
X108902500Y-95567500D01*
X108585000Y-95250000D02*
X108585000Y-95567500D01*
X108267500Y-95250000D02*
X108585000Y-95250000D01*
X108267500Y-95567500D02*
X108267500Y-95250000D01*
X108585000Y-95567500D02*
X108267500Y-95567500D01*
X108585000Y-95885000D02*
X108585000Y-95567500D01*
X108267500Y-95885000D02*
X108585000Y-95885000D01*
X108267500Y-96202500D02*
X108267500Y-95885000D01*
X108585000Y-96202500D02*
X108267500Y-96202500D01*
X108585000Y-96520000D02*
X108585000Y-96202500D01*
X108267500Y-96520000D02*
X108585000Y-96520000D01*
X107950000Y-96520000D02*
X108267500Y-96520000D01*
X107950000Y-96202500D02*
X107950000Y-96520000D01*
X108267500Y-96202500D02*
X107950000Y-96202500D01*
X108267500Y-95885000D02*
X108267500Y-96202500D01*
X107950000Y-95885000D02*
X108267500Y-95885000D01*
X107950000Y-95567500D02*
X107950000Y-95885000D01*
X108267500Y-95567500D02*
X107950000Y-95567500D01*
X108267500Y-95250000D02*
X108267500Y-95567500D01*
X107950000Y-95250000D02*
X108267500Y-95250000D01*
X107950000Y-94932500D02*
X107950000Y-95250000D01*
X108267500Y-94932500D02*
X107950000Y-94932500D01*
X107950000Y-94615000D02*
X108267500Y-94932500D01*
X107632500Y-94297500D02*
X107950000Y-94615000D01*
X107950000Y-94297500D02*
X107632500Y-94297500D01*
X107950000Y-94615000D02*
X107950000Y-94297500D01*
X107632500Y-94615000D02*
X107950000Y-94615000D01*
X107632500Y-94932500D02*
X107632500Y-94615000D01*
X107950000Y-94932500D02*
X107632500Y-94932500D01*
X107950000Y-95250000D02*
X107950000Y-94932500D01*
X107632500Y-95250000D02*
X107950000Y-95250000D01*
X107632500Y-95567500D02*
X107632500Y-95250000D01*
X107950000Y-95567500D02*
X107632500Y-95567500D01*
X107950000Y-95885000D02*
X107950000Y-95567500D01*
X107632500Y-95885000D02*
X107950000Y-95885000D01*
X107632500Y-96202500D02*
X107632500Y-95885000D01*
X107950000Y-96202500D02*
X107632500Y-96202500D01*
X107950000Y-96520000D02*
X107950000Y-96202500D01*
X107632500Y-96520000D02*
X107950000Y-96520000D01*
X107632500Y-97155000D02*
X107632500Y-96520000D01*
X107950000Y-97155000D02*
X107632500Y-97155000D01*
X107950000Y-94615000D02*
X107950000Y-97155000D01*
X108267500Y-94615000D02*
X107950000Y-94615000D01*
X108267500Y-97155000D02*
X108267500Y-94615000D01*
X108585000Y-97155000D02*
X108267500Y-97155000D01*
X108585000Y-95567500D02*
X108585000Y-97155000D01*
X108902500Y-95567500D02*
X108585000Y-95567500D01*
X108902500Y-97155000D02*
X108902500Y-95567500D01*
X109220000Y-97155000D02*
X108902500Y-97155000D01*
X109220000Y-95885000D02*
X109220000Y-97155000D01*
X109537500Y-95885000D02*
X109220000Y-95885000D01*
X109537500Y-97155000D02*
X109537500Y-95885000D01*
X109855000Y-97155000D02*
X109537500Y-97155000D01*
X109855000Y-96520000D02*
X109855000Y-97155000D01*
X110172500Y-96520000D02*
X109855000Y-96520000D01*
X110172500Y-97155000D02*
X110172500Y-96520000D01*
X110490000Y-97155000D02*
X110172500Y-97155000D01*
X110490000Y-96837500D02*
X110490000Y-97155000D01*
X107950000Y-96837500D02*
X110490000Y-96837500D01*
X107632500Y-96837500D02*
X107950000Y-96837500D01*
X110490000Y-97155000D02*
X107632500Y-94297500D01*
X110172500Y-97155000D02*
X110490000Y-97155000D01*
X107632500Y-94615000D02*
X110172500Y-97155000D01*
X107632500Y-94932500D02*
X107632500Y-94615000D01*
X109855000Y-97155000D02*
X107632500Y-94932500D01*
X109537500Y-97155000D02*
X109855000Y-97155000D01*
X107632500Y-95250000D02*
X109537500Y-97155000D01*
X107632500Y-95567500D02*
X107632500Y-95250000D01*
X109220000Y-97155000D02*
X107632500Y-95567500D01*
X108902500Y-97155000D02*
X109220000Y-97155000D01*
X107632500Y-95885000D02*
X108902500Y-97155000D01*
X107632500Y-96202500D02*
X107632500Y-95885000D01*
X108585000Y-97155000D02*
X107632500Y-96202500D01*
X108267500Y-97155000D02*
X108585000Y-97155000D01*
X107632500Y-96520000D02*
X108267500Y-97155000D01*
X107632500Y-96837500D02*
X107632500Y-96520000D01*
X107950000Y-97155000D02*
X107632500Y-96837500D01*
X107632500Y-97155000D02*
X107950000Y-97155000D01*
X110807500Y-96837500D02*
X110490000Y-96837500D01*
X110490000Y-97155000D02*
X110807500Y-96837500D01*
X110490000Y-96837500D02*
X110807500Y-96520000D01*
X110807500Y-90170000D02*
X110490000Y-89852500D01*
X110172500Y-92075000D02*
X110807500Y-91440000D01*
X110807500Y-92710000D02*
X110172500Y-92075000D01*
X109537500Y-93980000D02*
X110807500Y-92710000D01*
X110807500Y-95250000D02*
X109537500Y-93980000D01*
X110807500Y-94932500D02*
X110807500Y-95250000D01*
X107632500Y-89535000D02*
X110807500Y-89535000D01*
X107632500Y-97155000D02*
X107632500Y-89535000D01*
X110807500Y-97155000D02*
X107632500Y-97155000D01*
X110807500Y-97155000D02*
X110807500Y-96837500D01*
X107632500Y-93980000D02*
X110807500Y-97155000D01*
X108902500Y-92710000D02*
X107632500Y-93980000D01*
X108267500Y-92075000D02*
X108902500Y-92710000D01*
X110807500Y-89535000D02*
X108267500Y-92075000D01*
X110807500Y-96837500D02*
X110807500Y-89535000D01*
D10*
X108764841Y-84757379D02*
X108813222Y-84805760D01*
X108813222Y-84805760D02*
X108861602Y-84950903D01*
X108861602Y-84950903D02*
X108861602Y-85047665D01*
X108861602Y-85047665D02*
X108813222Y-85192808D01*
X108813222Y-85192808D02*
X108716460Y-85289570D01*
X108716460Y-85289570D02*
X108619698Y-85337951D01*
X108619698Y-85337951D02*
X108426174Y-85386332D01*
X108426174Y-85386332D02*
X108281031Y-85386332D01*
X108281031Y-85386332D02*
X108087507Y-85337951D01*
X108087507Y-85337951D02*
X107990745Y-85289570D01*
X107990745Y-85289570D02*
X107893983Y-85192808D01*
X107893983Y-85192808D02*
X107845602Y-85047665D01*
X107845602Y-85047665D02*
X107845602Y-84950903D01*
X107845602Y-84950903D02*
X107893983Y-84805760D01*
X107893983Y-84805760D02*
X107942364Y-84757379D01*
X108861602Y-84176808D02*
X108813222Y-84273570D01*
X108813222Y-84273570D02*
X108764841Y-84321951D01*
X108764841Y-84321951D02*
X108668079Y-84370332D01*
X108668079Y-84370332D02*
X108377793Y-84370332D01*
X108377793Y-84370332D02*
X108281031Y-84321951D01*
X108281031Y-84321951D02*
X108232650Y-84273570D01*
X108232650Y-84273570D02*
X108184269Y-84176808D01*
X108184269Y-84176808D02*
X108184269Y-84031665D01*
X108184269Y-84031665D02*
X108232650Y-83934903D01*
X108232650Y-83934903D02*
X108281031Y-83886522D01*
X108281031Y-83886522D02*
X108377793Y-83838141D01*
X108377793Y-83838141D02*
X108668079Y-83838141D01*
X108668079Y-83838141D02*
X108764841Y-83886522D01*
X108764841Y-83886522D02*
X108813222Y-83934903D01*
X108813222Y-83934903D02*
X108861602Y-84031665D01*
X108861602Y-84031665D02*
X108861602Y-84176808D01*
X108184269Y-83402713D02*
X109200269Y-83402713D01*
X108232650Y-83402713D02*
X108184269Y-83305951D01*
X108184269Y-83305951D02*
X108184269Y-83112427D01*
X108184269Y-83112427D02*
X108232650Y-83015665D01*
X108232650Y-83015665D02*
X108281031Y-82967284D01*
X108281031Y-82967284D02*
X108377793Y-82918903D01*
X108377793Y-82918903D02*
X108668079Y-82918903D01*
X108668079Y-82918903D02*
X108764841Y-82967284D01*
X108764841Y-82967284D02*
X108813222Y-83015665D01*
X108813222Y-83015665D02*
X108861602Y-83112427D01*
X108861602Y-83112427D02*
X108861602Y-83305951D01*
X108861602Y-83305951D02*
X108813222Y-83402713D01*
X108184269Y-82580237D02*
X108861602Y-82338332D01*
X108184269Y-82096427D02*
X108861602Y-82338332D01*
X108861602Y-82338332D02*
X109103507Y-82435094D01*
X109103507Y-82435094D02*
X109151888Y-82483475D01*
X109151888Y-82483475D02*
X109200269Y-82580237D01*
X108861602Y-81709380D02*
X108184269Y-81709380D01*
X108377793Y-81709380D02*
X108281031Y-81660999D01*
X108281031Y-81660999D02*
X108232650Y-81612618D01*
X108232650Y-81612618D02*
X108184269Y-81515856D01*
X108184269Y-81515856D02*
X108184269Y-81419094D01*
X108861602Y-81080428D02*
X108184269Y-81080428D01*
X107845602Y-81080428D02*
X107893983Y-81128809D01*
X107893983Y-81128809D02*
X107942364Y-81080428D01*
X107942364Y-81080428D02*
X107893983Y-81032047D01*
X107893983Y-81032047D02*
X107845602Y-81080428D01*
X107845602Y-81080428D02*
X107942364Y-81080428D01*
X108184269Y-80161189D02*
X109006745Y-80161189D01*
X109006745Y-80161189D02*
X109103507Y-80209570D01*
X109103507Y-80209570D02*
X109151888Y-80257951D01*
X109151888Y-80257951D02*
X109200269Y-80354713D01*
X109200269Y-80354713D02*
X109200269Y-80499856D01*
X109200269Y-80499856D02*
X109151888Y-80596618D01*
X108813222Y-80161189D02*
X108861602Y-80257951D01*
X108861602Y-80257951D02*
X108861602Y-80451475D01*
X108861602Y-80451475D02*
X108813222Y-80548237D01*
X108813222Y-80548237D02*
X108764841Y-80596618D01*
X108764841Y-80596618D02*
X108668079Y-80644999D01*
X108668079Y-80644999D02*
X108377793Y-80644999D01*
X108377793Y-80644999D02*
X108281031Y-80596618D01*
X108281031Y-80596618D02*
X108232650Y-80548237D01*
X108232650Y-80548237D02*
X108184269Y-80451475D01*
X108184269Y-80451475D02*
X108184269Y-80257951D01*
X108184269Y-80257951D02*
X108232650Y-80161189D01*
X108861602Y-79677380D02*
X107845602Y-79677380D01*
X108861602Y-79241951D02*
X108329412Y-79241951D01*
X108329412Y-79241951D02*
X108232650Y-79290332D01*
X108232650Y-79290332D02*
X108184269Y-79387094D01*
X108184269Y-79387094D02*
X108184269Y-79532237D01*
X108184269Y-79532237D02*
X108232650Y-79628999D01*
X108232650Y-79628999D02*
X108281031Y-79677380D01*
X108184269Y-78903285D02*
X108184269Y-78516237D01*
X107845602Y-78758142D02*
X108716460Y-78758142D01*
X108716460Y-78758142D02*
X108813222Y-78709761D01*
X108813222Y-78709761D02*
X108861602Y-78612999D01*
X108861602Y-78612999D02*
X108861602Y-78516237D01*
X109248650Y-77113190D02*
X109200269Y-77161571D01*
X109200269Y-77161571D02*
X109055126Y-77258333D01*
X109055126Y-77258333D02*
X108958364Y-77306714D01*
X108958364Y-77306714D02*
X108813222Y-77355095D01*
X108813222Y-77355095D02*
X108571317Y-77403476D01*
X108571317Y-77403476D02*
X108377793Y-77403476D01*
X108377793Y-77403476D02*
X108135888Y-77355095D01*
X108135888Y-77355095D02*
X107990745Y-77306714D01*
X107990745Y-77306714D02*
X107893983Y-77258333D01*
X107893983Y-77258333D02*
X107748841Y-77161571D01*
X107748841Y-77161571D02*
X107700460Y-77113190D01*
X108764841Y-76145571D02*
X108813222Y-76193952D01*
X108813222Y-76193952D02*
X108861602Y-76339095D01*
X108861602Y-76339095D02*
X108861602Y-76435857D01*
X108861602Y-76435857D02*
X108813222Y-76581000D01*
X108813222Y-76581000D02*
X108716460Y-76677762D01*
X108716460Y-76677762D02*
X108619698Y-76726143D01*
X108619698Y-76726143D02*
X108426174Y-76774524D01*
X108426174Y-76774524D02*
X108281031Y-76774524D01*
X108281031Y-76774524D02*
X108087507Y-76726143D01*
X108087507Y-76726143D02*
X107990745Y-76677762D01*
X107990745Y-76677762D02*
X107893983Y-76581000D01*
X107893983Y-76581000D02*
X107845602Y-76435857D01*
X107845602Y-76435857D02*
X107845602Y-76339095D01*
X107845602Y-76339095D02*
X107893983Y-76193952D01*
X107893983Y-76193952D02*
X107942364Y-76145571D01*
X109248650Y-75806905D02*
X109200269Y-75758524D01*
X109200269Y-75758524D02*
X109055126Y-75661762D01*
X109055126Y-75661762D02*
X108958364Y-75613381D01*
X108958364Y-75613381D02*
X108813222Y-75565000D01*
X108813222Y-75565000D02*
X108571317Y-75516619D01*
X108571317Y-75516619D02*
X108377793Y-75516619D01*
X108377793Y-75516619D02*
X108135888Y-75565000D01*
X108135888Y-75565000D02*
X107990745Y-75613381D01*
X107990745Y-75613381D02*
X107893983Y-75661762D01*
X107893983Y-75661762D02*
X107748841Y-75758524D01*
X107748841Y-75758524D02*
X107700460Y-75806905D01*
X107942364Y-74307096D02*
X107893983Y-74258715D01*
X107893983Y-74258715D02*
X107845602Y-74161953D01*
X107845602Y-74161953D02*
X107845602Y-73920048D01*
X107845602Y-73920048D02*
X107893983Y-73823286D01*
X107893983Y-73823286D02*
X107942364Y-73774905D01*
X107942364Y-73774905D02*
X108039126Y-73726524D01*
X108039126Y-73726524D02*
X108135888Y-73726524D01*
X108135888Y-73726524D02*
X108281031Y-73774905D01*
X108281031Y-73774905D02*
X108861602Y-74355477D01*
X108861602Y-74355477D02*
X108861602Y-73726524D01*
X107845602Y-73097572D02*
X107845602Y-73000810D01*
X107845602Y-73000810D02*
X107893983Y-72904048D01*
X107893983Y-72904048D02*
X107942364Y-72855667D01*
X107942364Y-72855667D02*
X108039126Y-72807286D01*
X108039126Y-72807286D02*
X108232650Y-72758905D01*
X108232650Y-72758905D02*
X108474555Y-72758905D01*
X108474555Y-72758905D02*
X108668079Y-72807286D01*
X108668079Y-72807286D02*
X108764841Y-72855667D01*
X108764841Y-72855667D02*
X108813222Y-72904048D01*
X108813222Y-72904048D02*
X108861602Y-73000810D01*
X108861602Y-73000810D02*
X108861602Y-73097572D01*
X108861602Y-73097572D02*
X108813222Y-73194334D01*
X108813222Y-73194334D02*
X108764841Y-73242715D01*
X108764841Y-73242715D02*
X108668079Y-73291096D01*
X108668079Y-73291096D02*
X108474555Y-73339477D01*
X108474555Y-73339477D02*
X108232650Y-73339477D01*
X108232650Y-73339477D02*
X108039126Y-73291096D01*
X108039126Y-73291096D02*
X107942364Y-73242715D01*
X107942364Y-73242715D02*
X107893983Y-73194334D01*
X107893983Y-73194334D02*
X107845602Y-73097572D01*
X108861602Y-71791286D02*
X108861602Y-72371858D01*
X108861602Y-72081572D02*
X107845602Y-72081572D01*
X107845602Y-72081572D02*
X107990745Y-72178334D01*
X107990745Y-72178334D02*
X108087507Y-72275096D01*
X108087507Y-72275096D02*
X108135888Y-72371858D01*
X108281031Y-71210715D02*
X108232650Y-71307477D01*
X108232650Y-71307477D02*
X108184269Y-71355858D01*
X108184269Y-71355858D02*
X108087507Y-71404239D01*
X108087507Y-71404239D02*
X108039126Y-71404239D01*
X108039126Y-71404239D02*
X107942364Y-71355858D01*
X107942364Y-71355858D02*
X107893983Y-71307477D01*
X107893983Y-71307477D02*
X107845602Y-71210715D01*
X107845602Y-71210715D02*
X107845602Y-71017191D01*
X107845602Y-71017191D02*
X107893983Y-70920429D01*
X107893983Y-70920429D02*
X107942364Y-70872048D01*
X107942364Y-70872048D02*
X108039126Y-70823667D01*
X108039126Y-70823667D02*
X108087507Y-70823667D01*
X108087507Y-70823667D02*
X108184269Y-70872048D01*
X108184269Y-70872048D02*
X108232650Y-70920429D01*
X108232650Y-70920429D02*
X108281031Y-71017191D01*
X108281031Y-71017191D02*
X108281031Y-71210715D01*
X108281031Y-71210715D02*
X108329412Y-71307477D01*
X108329412Y-71307477D02*
X108377793Y-71355858D01*
X108377793Y-71355858D02*
X108474555Y-71404239D01*
X108474555Y-71404239D02*
X108668079Y-71404239D01*
X108668079Y-71404239D02*
X108764841Y-71355858D01*
X108764841Y-71355858D02*
X108813222Y-71307477D01*
X108813222Y-71307477D02*
X108861602Y-71210715D01*
X108861602Y-71210715D02*
X108861602Y-71017191D01*
X108861602Y-71017191D02*
X108813222Y-70920429D01*
X108813222Y-70920429D02*
X108764841Y-70872048D01*
X108764841Y-70872048D02*
X108668079Y-70823667D01*
X108668079Y-70823667D02*
X108474555Y-70823667D01*
X108474555Y-70823667D02*
X108377793Y-70872048D01*
X108377793Y-70872048D02*
X108329412Y-70920429D01*
X108329412Y-70920429D02*
X108281031Y-71017191D01*
X110497305Y-83813951D02*
X109481305Y-83813951D01*
X109481305Y-83813951D02*
X110207020Y-83475284D01*
X110207020Y-83475284D02*
X109481305Y-83136617D01*
X109481305Y-83136617D02*
X110497305Y-83136617D01*
X110497305Y-82652808D02*
X109819972Y-82652808D01*
X109481305Y-82652808D02*
X109529686Y-82701189D01*
X109529686Y-82701189D02*
X109578067Y-82652808D01*
X109578067Y-82652808D02*
X109529686Y-82604427D01*
X109529686Y-82604427D02*
X109481305Y-82652808D01*
X109481305Y-82652808D02*
X109578067Y-82652808D01*
X110448925Y-81733569D02*
X110497305Y-81830331D01*
X110497305Y-81830331D02*
X110497305Y-82023855D01*
X110497305Y-82023855D02*
X110448925Y-82120617D01*
X110448925Y-82120617D02*
X110400544Y-82168998D01*
X110400544Y-82168998D02*
X110303782Y-82217379D01*
X110303782Y-82217379D02*
X110013496Y-82217379D01*
X110013496Y-82217379D02*
X109916734Y-82168998D01*
X109916734Y-82168998D02*
X109868353Y-82120617D01*
X109868353Y-82120617D02*
X109819972Y-82023855D01*
X109819972Y-82023855D02*
X109819972Y-81830331D01*
X109819972Y-81830331D02*
X109868353Y-81733569D01*
X110497305Y-81298141D02*
X109481305Y-81298141D01*
X110497305Y-80862712D02*
X109965115Y-80862712D01*
X109965115Y-80862712D02*
X109868353Y-80911093D01*
X109868353Y-80911093D02*
X109819972Y-81007855D01*
X109819972Y-81007855D02*
X109819972Y-81152998D01*
X109819972Y-81152998D02*
X109868353Y-81249760D01*
X109868353Y-81249760D02*
X109916734Y-81298141D01*
X110497305Y-79943474D02*
X109965115Y-79943474D01*
X109965115Y-79943474D02*
X109868353Y-79991855D01*
X109868353Y-79991855D02*
X109819972Y-80088617D01*
X109819972Y-80088617D02*
X109819972Y-80282141D01*
X109819972Y-80282141D02*
X109868353Y-80378903D01*
X110448925Y-79943474D02*
X110497305Y-80040236D01*
X110497305Y-80040236D02*
X110497305Y-80282141D01*
X110497305Y-80282141D02*
X110448925Y-80378903D01*
X110448925Y-80378903D02*
X110352163Y-80427284D01*
X110352163Y-80427284D02*
X110255401Y-80427284D01*
X110255401Y-80427284D02*
X110158639Y-80378903D01*
X110158639Y-80378903D02*
X110110258Y-80282141D01*
X110110258Y-80282141D02*
X110110258Y-80040236D01*
X110110258Y-80040236D02*
X110061877Y-79943474D01*
X110448925Y-79072617D02*
X110497305Y-79169379D01*
X110497305Y-79169379D02*
X110497305Y-79362903D01*
X110497305Y-79362903D02*
X110448925Y-79459665D01*
X110448925Y-79459665D02*
X110352163Y-79508046D01*
X110352163Y-79508046D02*
X109965115Y-79508046D01*
X109965115Y-79508046D02*
X109868353Y-79459665D01*
X109868353Y-79459665D02*
X109819972Y-79362903D01*
X109819972Y-79362903D02*
X109819972Y-79169379D01*
X109819972Y-79169379D02*
X109868353Y-79072617D01*
X109868353Y-79072617D02*
X109965115Y-79024236D01*
X109965115Y-79024236D02*
X110061877Y-79024236D01*
X110061877Y-79024236D02*
X110158639Y-79508046D01*
X110497305Y-78443665D02*
X110448925Y-78540427D01*
X110448925Y-78540427D02*
X110352163Y-78588808D01*
X110352163Y-78588808D02*
X109481305Y-78588808D01*
X110497305Y-77282523D02*
X109481305Y-77282523D01*
X110497305Y-76701951D02*
X109916734Y-77137380D01*
X109481305Y-76701951D02*
X110061877Y-77282523D01*
X110497305Y-76266523D02*
X109819972Y-76266523D01*
X109481305Y-76266523D02*
X109529686Y-76314904D01*
X109529686Y-76314904D02*
X109578067Y-76266523D01*
X109578067Y-76266523D02*
X109529686Y-76218142D01*
X109529686Y-76218142D02*
X109481305Y-76266523D01*
X109481305Y-76266523D02*
X109578067Y-76266523D01*
X110448925Y-75831094D02*
X110497305Y-75734332D01*
X110497305Y-75734332D02*
X110497305Y-75540808D01*
X110497305Y-75540808D02*
X110448925Y-75444046D01*
X110448925Y-75444046D02*
X110352163Y-75395665D01*
X110352163Y-75395665D02*
X110303782Y-75395665D01*
X110303782Y-75395665D02*
X110207020Y-75444046D01*
X110207020Y-75444046D02*
X110158639Y-75540808D01*
X110158639Y-75540808D02*
X110158639Y-75685951D01*
X110158639Y-75685951D02*
X110110258Y-75782713D01*
X110110258Y-75782713D02*
X110013496Y-75831094D01*
X110013496Y-75831094D02*
X109965115Y-75831094D01*
X109965115Y-75831094D02*
X109868353Y-75782713D01*
X109868353Y-75782713D02*
X109819972Y-75685951D01*
X109819972Y-75685951D02*
X109819972Y-75540808D01*
X109819972Y-75540808D02*
X109868353Y-75444046D01*
X110448925Y-74573189D02*
X110497305Y-74669951D01*
X110497305Y-74669951D02*
X110497305Y-74863475D01*
X110497305Y-74863475D02*
X110448925Y-74960237D01*
X110448925Y-74960237D02*
X110352163Y-75008618D01*
X110352163Y-75008618D02*
X109965115Y-75008618D01*
X109965115Y-75008618D02*
X109868353Y-74960237D01*
X109868353Y-74960237D02*
X109819972Y-74863475D01*
X109819972Y-74863475D02*
X109819972Y-74669951D01*
X109819972Y-74669951D02*
X109868353Y-74573189D01*
X109868353Y-74573189D02*
X109965115Y-74524808D01*
X109965115Y-74524808D02*
X110061877Y-74524808D01*
X110061877Y-74524808D02*
X110158639Y-75008618D01*
X110497305Y-73944237D02*
X110448925Y-74040999D01*
X110448925Y-74040999D02*
X110352163Y-74089380D01*
X110352163Y-74089380D02*
X109481305Y-74089380D01*
X110448925Y-73170142D02*
X110497305Y-73266904D01*
X110497305Y-73266904D02*
X110497305Y-73460428D01*
X110497305Y-73460428D02*
X110448925Y-73557190D01*
X110448925Y-73557190D02*
X110352163Y-73605571D01*
X110352163Y-73605571D02*
X109965115Y-73605571D01*
X109965115Y-73605571D02*
X109868353Y-73557190D01*
X109868353Y-73557190D02*
X109819972Y-73460428D01*
X109819972Y-73460428D02*
X109819972Y-73266904D01*
X109819972Y-73266904D02*
X109868353Y-73170142D01*
X109868353Y-73170142D02*
X109965115Y-73121761D01*
X109965115Y-73121761D02*
X110061877Y-73121761D01*
X110061877Y-73121761D02*
X110158639Y-73605571D01*
X109819972Y-72783095D02*
X110497305Y-72541190D01*
X110497305Y-72541190D02*
X109819972Y-72299285D01*
D12*
X106099181Y-99731285D02*
X104575181Y-99731285D01*
X104575181Y-99731285D02*
X105663752Y-99223285D01*
X105663752Y-99223285D02*
X104575181Y-98715285D01*
X104575181Y-98715285D02*
X106099181Y-98715285D01*
X106099181Y-97989571D02*
X105083181Y-97989571D01*
X104575181Y-97989571D02*
X104647752Y-98062143D01*
X104647752Y-98062143D02*
X104720324Y-97989571D01*
X104720324Y-97989571D02*
X104647752Y-97917000D01*
X104647752Y-97917000D02*
X104575181Y-97989571D01*
X104575181Y-97989571D02*
X104720324Y-97989571D01*
X105083181Y-97263857D02*
X106099181Y-97263857D01*
X105228324Y-97263857D02*
X105155752Y-97191286D01*
X105155752Y-97191286D02*
X105083181Y-97046143D01*
X105083181Y-97046143D02*
X105083181Y-96828429D01*
X105083181Y-96828429D02*
X105155752Y-96683286D01*
X105155752Y-96683286D02*
X105300895Y-96610715D01*
X105300895Y-96610715D02*
X106099181Y-96610715D01*
X106099181Y-95885000D02*
X105083181Y-95885000D01*
X104575181Y-95885000D02*
X104647752Y-95957572D01*
X104647752Y-95957572D02*
X104720324Y-95885000D01*
X104720324Y-95885000D02*
X104647752Y-95812429D01*
X104647752Y-95812429D02*
X104575181Y-95885000D01*
X104575181Y-95885000D02*
X104720324Y-95885000D01*
X106099181Y-95159286D02*
X104575181Y-95159286D01*
X104575181Y-95159286D02*
X105663752Y-94651286D01*
X105663752Y-94651286D02*
X104575181Y-94143286D01*
X104575181Y-94143286D02*
X106099181Y-94143286D01*
X106099181Y-92764430D02*
X105300895Y-92764430D01*
X105300895Y-92764430D02*
X105155752Y-92837001D01*
X105155752Y-92837001D02*
X105083181Y-92982144D01*
X105083181Y-92982144D02*
X105083181Y-93272430D01*
X105083181Y-93272430D02*
X105155752Y-93417572D01*
X106026610Y-92764430D02*
X106099181Y-92909572D01*
X106099181Y-92909572D02*
X106099181Y-93272430D01*
X106099181Y-93272430D02*
X106026610Y-93417572D01*
X106026610Y-93417572D02*
X105881467Y-93490144D01*
X105881467Y-93490144D02*
X105736324Y-93490144D01*
X105736324Y-93490144D02*
X105591181Y-93417572D01*
X105591181Y-93417572D02*
X105518610Y-93272430D01*
X105518610Y-93272430D02*
X105518610Y-92909572D01*
X105518610Y-92909572D02*
X105446038Y-92764430D01*
X106099181Y-92183858D02*
X105083181Y-91385573D01*
X105083181Y-92183858D02*
X106099181Y-91385573D01*
X105228324Y-89426144D02*
X105155752Y-89571287D01*
X105155752Y-89571287D02*
X105083181Y-89643858D01*
X105083181Y-89643858D02*
X104938038Y-89716430D01*
X104938038Y-89716430D02*
X104865467Y-89716430D01*
X104865467Y-89716430D02*
X104720324Y-89643858D01*
X104720324Y-89643858D02*
X104647752Y-89571287D01*
X104647752Y-89571287D02*
X104575181Y-89426144D01*
X104575181Y-89426144D02*
X104575181Y-89135858D01*
X104575181Y-89135858D02*
X104647752Y-88990716D01*
X104647752Y-88990716D02*
X104720324Y-88918144D01*
X104720324Y-88918144D02*
X104865467Y-88845573D01*
X104865467Y-88845573D02*
X104938038Y-88845573D01*
X104938038Y-88845573D02*
X105083181Y-88918144D01*
X105083181Y-88918144D02*
X105155752Y-88990716D01*
X105155752Y-88990716D02*
X105228324Y-89135858D01*
X105228324Y-89135858D02*
X105228324Y-89426144D01*
X105228324Y-89426144D02*
X105300895Y-89571287D01*
X105300895Y-89571287D02*
X105373467Y-89643858D01*
X105373467Y-89643858D02*
X105518610Y-89716430D01*
X105518610Y-89716430D02*
X105808895Y-89716430D01*
X105808895Y-89716430D02*
X105954038Y-89643858D01*
X105954038Y-89643858D02*
X106026610Y-89571287D01*
X106026610Y-89571287D02*
X106099181Y-89426144D01*
X106099181Y-89426144D02*
X106099181Y-89135858D01*
X106099181Y-89135858D02*
X106026610Y-88990716D01*
X106026610Y-88990716D02*
X105954038Y-88918144D01*
X105954038Y-88918144D02*
X105808895Y-88845573D01*
X105808895Y-88845573D02*
X105518610Y-88845573D01*
X105518610Y-88845573D02*
X105373467Y-88918144D01*
X105373467Y-88918144D02*
X105300895Y-88990716D01*
X105300895Y-88990716D02*
X105228324Y-89135858D01*
X104575181Y-87902144D02*
X104575181Y-87757001D01*
X104575181Y-87757001D02*
X104647752Y-87611858D01*
X104647752Y-87611858D02*
X104720324Y-87539287D01*
X104720324Y-87539287D02*
X104865467Y-87466715D01*
X104865467Y-87466715D02*
X105155752Y-87394144D01*
X105155752Y-87394144D02*
X105518610Y-87394144D01*
X105518610Y-87394144D02*
X105808895Y-87466715D01*
X105808895Y-87466715D02*
X105954038Y-87539287D01*
X105954038Y-87539287D02*
X106026610Y-87611858D01*
X106026610Y-87611858D02*
X106099181Y-87757001D01*
X106099181Y-87757001D02*
X106099181Y-87902144D01*
X106099181Y-87902144D02*
X106026610Y-88047287D01*
X106026610Y-88047287D02*
X105954038Y-88119858D01*
X105954038Y-88119858D02*
X105808895Y-88192429D01*
X105808895Y-88192429D02*
X105518610Y-88265001D01*
X105518610Y-88265001D02*
X105155752Y-88265001D01*
X105155752Y-88265001D02*
X104865467Y-88192429D01*
X104865467Y-88192429D02*
X104720324Y-88119858D01*
X104720324Y-88119858D02*
X104647752Y-88047287D01*
X104647752Y-88047287D02*
X104575181Y-87902144D01*
X105228324Y-86523286D02*
X105155752Y-86668429D01*
X105155752Y-86668429D02*
X105083181Y-86741000D01*
X105083181Y-86741000D02*
X104938038Y-86813572D01*
X104938038Y-86813572D02*
X104865467Y-86813572D01*
X104865467Y-86813572D02*
X104720324Y-86741000D01*
X104720324Y-86741000D02*
X104647752Y-86668429D01*
X104647752Y-86668429D02*
X104575181Y-86523286D01*
X104575181Y-86523286D02*
X104575181Y-86233000D01*
X104575181Y-86233000D02*
X104647752Y-86087858D01*
X104647752Y-86087858D02*
X104720324Y-86015286D01*
X104720324Y-86015286D02*
X104865467Y-85942715D01*
X104865467Y-85942715D02*
X104938038Y-85942715D01*
X104938038Y-85942715D02*
X105083181Y-86015286D01*
X105083181Y-86015286D02*
X105155752Y-86087858D01*
X105155752Y-86087858D02*
X105228324Y-86233000D01*
X105228324Y-86233000D02*
X105228324Y-86523286D01*
X105228324Y-86523286D02*
X105300895Y-86668429D01*
X105300895Y-86668429D02*
X105373467Y-86741000D01*
X105373467Y-86741000D02*
X105518610Y-86813572D01*
X105518610Y-86813572D02*
X105808895Y-86813572D01*
X105808895Y-86813572D02*
X105954038Y-86741000D01*
X105954038Y-86741000D02*
X106026610Y-86668429D01*
X106026610Y-86668429D02*
X106099181Y-86523286D01*
X106099181Y-86523286D02*
X106099181Y-86233000D01*
X106099181Y-86233000D02*
X106026610Y-86087858D01*
X106026610Y-86087858D02*
X105954038Y-86015286D01*
X105954038Y-86015286D02*
X105808895Y-85942715D01*
X105808895Y-85942715D02*
X105518610Y-85942715D01*
X105518610Y-85942715D02*
X105373467Y-86015286D01*
X105373467Y-86015286D02*
X105300895Y-86087858D01*
X105300895Y-86087858D02*
X105228324Y-86233000D01*
X104575181Y-84563857D02*
X104575181Y-85289571D01*
X104575181Y-85289571D02*
X105300895Y-85362143D01*
X105300895Y-85362143D02*
X105228324Y-85289571D01*
X105228324Y-85289571D02*
X105155752Y-85144429D01*
X105155752Y-85144429D02*
X105155752Y-84781571D01*
X105155752Y-84781571D02*
X105228324Y-84636429D01*
X105228324Y-84636429D02*
X105300895Y-84563857D01*
X105300895Y-84563857D02*
X105446038Y-84491286D01*
X105446038Y-84491286D02*
X105808895Y-84491286D01*
X105808895Y-84491286D02*
X105954038Y-84563857D01*
X105954038Y-84563857D02*
X106026610Y-84636429D01*
X106026610Y-84636429D02*
X106099181Y-84781571D01*
X106099181Y-84781571D02*
X106099181Y-85144429D01*
X106099181Y-85144429D02*
X106026610Y-85289571D01*
X106026610Y-85289571D02*
X105954038Y-85362143D01*
X106099181Y-82676999D02*
X104575181Y-82676999D01*
X106099181Y-81806142D02*
X105228324Y-82459285D01*
X104575181Y-81806142D02*
X105446038Y-82676999D01*
X106026610Y-80572428D02*
X106099181Y-80717571D01*
X106099181Y-80717571D02*
X106099181Y-81007857D01*
X106099181Y-81007857D02*
X106026610Y-81152999D01*
X106026610Y-81152999D02*
X105881467Y-81225571D01*
X105881467Y-81225571D02*
X105300895Y-81225571D01*
X105300895Y-81225571D02*
X105155752Y-81152999D01*
X105155752Y-81152999D02*
X105083181Y-81007857D01*
X105083181Y-81007857D02*
X105083181Y-80717571D01*
X105083181Y-80717571D02*
X105155752Y-80572428D01*
X105155752Y-80572428D02*
X105300895Y-80499857D01*
X105300895Y-80499857D02*
X105446038Y-80499857D01*
X105446038Y-80499857D02*
X105591181Y-81225571D01*
X105083181Y-79991856D02*
X106099181Y-79628999D01*
X105083181Y-79266142D02*
X106099181Y-79628999D01*
X106099181Y-79628999D02*
X106462038Y-79774142D01*
X106462038Y-79774142D02*
X106534610Y-79846713D01*
X106534610Y-79846713D02*
X106607181Y-79991856D01*
X105083181Y-78685570D02*
X106607181Y-78685570D01*
X105155752Y-78685570D02*
X105083181Y-78540428D01*
X105083181Y-78540428D02*
X105083181Y-78250142D01*
X105083181Y-78250142D02*
X105155752Y-78104999D01*
X105155752Y-78104999D02*
X105228324Y-78032428D01*
X105228324Y-78032428D02*
X105373467Y-77959856D01*
X105373467Y-77959856D02*
X105808895Y-77959856D01*
X105808895Y-77959856D02*
X105954038Y-78032428D01*
X105954038Y-78032428D02*
X106026610Y-78104999D01*
X106026610Y-78104999D02*
X106099181Y-78250142D01*
X106099181Y-78250142D02*
X106099181Y-78540428D01*
X106099181Y-78540428D02*
X106026610Y-78685570D01*
X106099181Y-76653571D02*
X105300895Y-76653571D01*
X105300895Y-76653571D02*
X105155752Y-76726142D01*
X105155752Y-76726142D02*
X105083181Y-76871285D01*
X105083181Y-76871285D02*
X105083181Y-77161571D01*
X105083181Y-77161571D02*
X105155752Y-77306713D01*
X106026610Y-76653571D02*
X106099181Y-76798713D01*
X106099181Y-76798713D02*
X106099181Y-77161571D01*
X106099181Y-77161571D02*
X106026610Y-77306713D01*
X106026610Y-77306713D02*
X105881467Y-77379285D01*
X105881467Y-77379285D02*
X105736324Y-77379285D01*
X105736324Y-77379285D02*
X105591181Y-77306713D01*
X105591181Y-77306713D02*
X105518610Y-77161571D01*
X105518610Y-77161571D02*
X105518610Y-76798713D01*
X105518610Y-76798713D02*
X105446038Y-76653571D01*
X106099181Y-75274714D02*
X104575181Y-75274714D01*
X106026610Y-75274714D02*
X106099181Y-75419856D01*
X106099181Y-75419856D02*
X106099181Y-75710142D01*
X106099181Y-75710142D02*
X106026610Y-75855285D01*
X106026610Y-75855285D02*
X105954038Y-75927856D01*
X105954038Y-75927856D02*
X105808895Y-76000428D01*
X105808895Y-76000428D02*
X105373467Y-76000428D01*
X105373467Y-76000428D02*
X105228324Y-75927856D01*
X105228324Y-75927856D02*
X105155752Y-75855285D01*
X105155752Y-75855285D02*
X105083181Y-75710142D01*
X105083181Y-75710142D02*
X105083181Y-75419856D01*
X105083181Y-75419856D02*
X105155752Y-75274714D01*
X104575181Y-73605571D02*
X106099181Y-73097571D01*
X106099181Y-73097571D02*
X104575181Y-72589571D01*
X106099181Y-71283285D02*
X106099181Y-72154142D01*
X106099181Y-71718713D02*
X104575181Y-71718713D01*
X104575181Y-71718713D02*
X104792895Y-71863856D01*
X104792895Y-71863856D02*
X104938038Y-72008999D01*
X104938038Y-72008999D02*
X105010610Y-72154142D01*
X105954038Y-70630141D02*
X106026610Y-70557570D01*
X106026610Y-70557570D02*
X106099181Y-70630141D01*
X106099181Y-70630141D02*
X106026610Y-70702713D01*
X106026610Y-70702713D02*
X105954038Y-70630141D01*
X105954038Y-70630141D02*
X106099181Y-70630141D01*
X104575181Y-69614142D02*
X104575181Y-69468999D01*
X104575181Y-69468999D02*
X104647752Y-69323856D01*
X104647752Y-69323856D02*
X104720324Y-69251285D01*
X104720324Y-69251285D02*
X104865467Y-69178713D01*
X104865467Y-69178713D02*
X105155752Y-69106142D01*
X105155752Y-69106142D02*
X105518610Y-69106142D01*
X105518610Y-69106142D02*
X105808895Y-69178713D01*
X105808895Y-69178713D02*
X105954038Y-69251285D01*
X105954038Y-69251285D02*
X106026610Y-69323856D01*
X106026610Y-69323856D02*
X106099181Y-69468999D01*
X106099181Y-69468999D02*
X106099181Y-69614142D01*
X106099181Y-69614142D02*
X106026610Y-69759285D01*
X106026610Y-69759285D02*
X105954038Y-69831856D01*
X105954038Y-69831856D02*
X105808895Y-69904427D01*
X105808895Y-69904427D02*
X105518610Y-69976999D01*
X105518610Y-69976999D02*
X105155752Y-69976999D01*
X105155752Y-69976999D02*
X104865467Y-69904427D01*
X104865467Y-69904427D02*
X104720324Y-69831856D01*
X104720324Y-69831856D02*
X104647752Y-69759285D01*
X104647752Y-69759285D02*
X104575181Y-69614142D01*
D10*
X149110095Y-123966953D02*
X149110095Y-122950953D01*
X149110095Y-122950953D02*
X149497143Y-122950953D01*
X149497143Y-122950953D02*
X149593905Y-122999334D01*
X149593905Y-122999334D02*
X149642286Y-123047715D01*
X149642286Y-123047715D02*
X149690667Y-123144477D01*
X149690667Y-123144477D02*
X149690667Y-123289620D01*
X149690667Y-123289620D02*
X149642286Y-123386382D01*
X149642286Y-123386382D02*
X149593905Y-123434763D01*
X149593905Y-123434763D02*
X149497143Y-123483144D01*
X149497143Y-123483144D02*
X149110095Y-123483144D01*
X150658286Y-123966953D02*
X150077714Y-123966953D01*
X150368000Y-123966953D02*
X150368000Y-122950953D01*
X150368000Y-122950953D02*
X150271238Y-123096096D01*
X150271238Y-123096096D02*
X150174476Y-123192858D01*
X150174476Y-123192858D02*
X150077714Y-123241239D01*
X179139547Y-123434763D02*
X179444347Y-123434763D01*
X179508452Y-123966953D02*
X179073023Y-123966953D01*
X179073023Y-123966953D02*
X179200023Y-122950953D01*
X179200023Y-122950953D02*
X179635452Y-122950953D01*
X179940251Y-122950953D02*
X180422851Y-123966953D01*
X180549851Y-122950953D02*
X179813251Y-123966953D01*
X180767566Y-122950953D02*
X181290080Y-122950953D01*
X180901823Y-123966953D02*
X181028823Y-122950953D01*
X181534404Y-123434763D02*
X181839204Y-123434763D01*
X181903309Y-123966953D02*
X181467880Y-123966953D01*
X181467880Y-123966953D02*
X181594880Y-122950953D01*
X181594880Y-122950953D02*
X182030309Y-122950953D01*
X182295194Y-123966953D02*
X182422194Y-122950953D01*
X182422194Y-122950953D02*
X182817708Y-123966953D01*
X182817708Y-123966953D02*
X182944708Y-122950953D01*
X183215642Y-123918573D02*
X183340223Y-123966953D01*
X183340223Y-123966953D02*
X183557937Y-123966953D01*
X183557937Y-123966953D02*
X183651071Y-123918573D01*
X183651071Y-123918573D02*
X183700661Y-123870192D01*
X183700661Y-123870192D02*
X183756299Y-123773430D01*
X183756299Y-123773430D02*
X183768394Y-123676668D01*
X183768394Y-123676668D02*
X183736947Y-123579906D01*
X183736947Y-123579906D02*
X183699451Y-123531525D01*
X183699451Y-123531525D02*
X183618413Y-123483144D01*
X183618413Y-123483144D02*
X183450290Y-123434763D01*
X183450290Y-123434763D02*
X183369251Y-123386382D01*
X183369251Y-123386382D02*
X183331756Y-123338001D01*
X183331756Y-123338001D02*
X183300309Y-123241239D01*
X183300309Y-123241239D02*
X183312404Y-123144477D01*
X183312404Y-123144477D02*
X183368042Y-123047715D01*
X183368042Y-123047715D02*
X183417632Y-122999334D01*
X183417632Y-122999334D02*
X183510766Y-122950953D01*
X183510766Y-122950953D02*
X183728480Y-122950953D01*
X183728480Y-122950953D02*
X183853061Y-122999334D01*
X184123994Y-123966953D02*
X184250994Y-122950953D01*
X184860595Y-122950953D02*
X185034766Y-122950953D01*
X185034766Y-122950953D02*
X185115804Y-122999334D01*
X185115804Y-122999334D02*
X185190795Y-123096096D01*
X185190795Y-123096096D02*
X185210147Y-123289620D01*
X185210147Y-123289620D02*
X185167814Y-123628287D01*
X185167814Y-123628287D02*
X185100080Y-123821811D01*
X185100080Y-123821811D02*
X185000899Y-123918573D01*
X185000899Y-123918573D02*
X184907766Y-123966953D01*
X184907766Y-123966953D02*
X184733595Y-123966953D01*
X184733595Y-123966953D02*
X184652557Y-123918573D01*
X184652557Y-123918573D02*
X184577566Y-123821811D01*
X184577566Y-123821811D02*
X184558214Y-123628287D01*
X184558214Y-123628287D02*
X184600547Y-123289620D01*
X184600547Y-123289620D02*
X184668280Y-123096096D01*
X184668280Y-123096096D02*
X184767461Y-122999334D01*
X184767461Y-122999334D02*
X184860595Y-122950953D01*
X185517366Y-123966953D02*
X185644366Y-122950953D01*
X185644366Y-122950953D02*
X186039880Y-123966953D01*
X186039880Y-123966953D02*
X186166880Y-122950953D01*
X137205192Y-121454332D02*
X137253573Y-121502713D01*
X137253573Y-121502713D02*
X137301953Y-121647856D01*
X137301953Y-121647856D02*
X137301953Y-121744618D01*
X137301953Y-121744618D02*
X137253573Y-121889761D01*
X137253573Y-121889761D02*
X137156811Y-121986523D01*
X137156811Y-121986523D02*
X137060049Y-122034904D01*
X137060049Y-122034904D02*
X136866525Y-122083285D01*
X136866525Y-122083285D02*
X136721382Y-122083285D01*
X136721382Y-122083285D02*
X136527858Y-122034904D01*
X136527858Y-122034904D02*
X136431096Y-121986523D01*
X136431096Y-121986523D02*
X136334334Y-121889761D01*
X136334334Y-121889761D02*
X136285953Y-121744618D01*
X136285953Y-121744618D02*
X136285953Y-121647856D01*
X136285953Y-121647856D02*
X136334334Y-121502713D01*
X136334334Y-121502713D02*
X136382715Y-121454332D01*
X137301953Y-120486713D02*
X137301953Y-121067285D01*
X137301953Y-120776999D02*
X136285953Y-120776999D01*
X136285953Y-120776999D02*
X136431096Y-120873761D01*
X136431096Y-120873761D02*
X136527858Y-120970523D01*
X136527858Y-120970523D02*
X136576239Y-121067285D01*
X137555953Y-122666275D02*
X137555953Y-122579190D01*
X137555953Y-122579190D02*
X137604334Y-122498152D01*
X137604334Y-122498152D02*
X137652715Y-122460656D01*
X137652715Y-122460656D02*
X137749477Y-122429209D01*
X137749477Y-122429209D02*
X137943001Y-122409856D01*
X137943001Y-122409856D02*
X138184906Y-122440094D01*
X138184906Y-122440094D02*
X138378430Y-122507828D01*
X138378430Y-122507828D02*
X138475192Y-122563466D01*
X138475192Y-122563466D02*
X138523573Y-122613056D01*
X138523573Y-122613056D02*
X138571953Y-122706190D01*
X138571953Y-122706190D02*
X138571953Y-122793275D01*
X138571953Y-122793275D02*
X138523573Y-122874314D01*
X138523573Y-122874314D02*
X138475192Y-122911809D01*
X138475192Y-122911809D02*
X138378430Y-122943256D01*
X138378430Y-122943256D02*
X138184906Y-122962609D01*
X138184906Y-122962609D02*
X137943001Y-122932371D01*
X137943001Y-122932371D02*
X137749477Y-122864637D01*
X137749477Y-122864637D02*
X137652715Y-122808999D01*
X137652715Y-122808999D02*
X137604334Y-122759409D01*
X137604334Y-122759409D02*
X137555953Y-122666275D01*
X138475192Y-122084495D02*
X138523573Y-122046999D01*
X138523573Y-122046999D02*
X138571953Y-122096590D01*
X138571953Y-122096590D02*
X138523573Y-122134085D01*
X138523573Y-122134085D02*
X138475192Y-122084495D01*
X138475192Y-122084495D02*
X138571953Y-122096590D01*
X138571953Y-121182189D02*
X138571953Y-121704704D01*
X138571953Y-121443447D02*
X137555953Y-121316447D01*
X137555953Y-121316447D02*
X137701096Y-121421675D01*
X137701096Y-121421675D02*
X137797858Y-121520856D01*
X137797858Y-121520856D02*
X137846239Y-121613989D01*
X137894620Y-120313751D02*
X138571953Y-120398418D01*
X137894620Y-120705637D02*
X138426811Y-120772161D01*
X138426811Y-120772161D02*
X138523573Y-120740713D01*
X138523573Y-120740713D02*
X138571953Y-120659675D01*
X138571953Y-120659675D02*
X138571953Y-120529047D01*
X138571953Y-120529047D02*
X138523573Y-120435913D01*
X138523573Y-120435913D02*
X138475192Y-120386323D01*
X138039763Y-119591666D02*
X138039763Y-119896466D01*
X138571953Y-119962990D02*
X137555953Y-119835990D01*
X137555953Y-119835990D02*
X137555953Y-119400561D01*
X168637692Y-118279332D02*
X168686073Y-118327713D01*
X168686073Y-118327713D02*
X168734453Y-118472856D01*
X168734453Y-118472856D02*
X168734453Y-118569618D01*
X168734453Y-118569618D02*
X168686073Y-118714761D01*
X168686073Y-118714761D02*
X168589311Y-118811523D01*
X168589311Y-118811523D02*
X168492549Y-118859904D01*
X168492549Y-118859904D02*
X168299025Y-118908285D01*
X168299025Y-118908285D02*
X168153882Y-118908285D01*
X168153882Y-118908285D02*
X167960358Y-118859904D01*
X167960358Y-118859904D02*
X167863596Y-118811523D01*
X167863596Y-118811523D02*
X167766834Y-118714761D01*
X167766834Y-118714761D02*
X167718453Y-118569618D01*
X167718453Y-118569618D02*
X167718453Y-118472856D01*
X167718453Y-118472856D02*
X167766834Y-118327713D01*
X167766834Y-118327713D02*
X167815215Y-118279332D01*
X167815215Y-117892285D02*
X167766834Y-117843904D01*
X167766834Y-117843904D02*
X167718453Y-117747142D01*
X167718453Y-117747142D02*
X167718453Y-117505237D01*
X167718453Y-117505237D02*
X167766834Y-117408475D01*
X167766834Y-117408475D02*
X167815215Y-117360094D01*
X167815215Y-117360094D02*
X167911977Y-117311713D01*
X167911977Y-117311713D02*
X168008739Y-117311713D01*
X168008739Y-117311713D02*
X168153882Y-117360094D01*
X168153882Y-117360094D02*
X168734453Y-117940666D01*
X168734453Y-117940666D02*
X168734453Y-117311713D01*
X167718453Y-115363775D02*
X167718453Y-115276690D01*
X167718453Y-115276690D02*
X167766834Y-115195652D01*
X167766834Y-115195652D02*
X167815215Y-115158156D01*
X167815215Y-115158156D02*
X167911977Y-115126709D01*
X167911977Y-115126709D02*
X168105501Y-115107356D01*
X168105501Y-115107356D02*
X168347406Y-115137594D01*
X168347406Y-115137594D02*
X168540930Y-115205328D01*
X168540930Y-115205328D02*
X168637692Y-115260966D01*
X168637692Y-115260966D02*
X168686073Y-115310556D01*
X168686073Y-115310556D02*
X168734453Y-115403690D01*
X168734453Y-115403690D02*
X168734453Y-115490775D01*
X168734453Y-115490775D02*
X168686073Y-115571814D01*
X168686073Y-115571814D02*
X168637692Y-115609309D01*
X168637692Y-115609309D02*
X168540930Y-115640756D01*
X168540930Y-115640756D02*
X168347406Y-115660109D01*
X168347406Y-115660109D02*
X168105501Y-115629871D01*
X168105501Y-115629871D02*
X167911977Y-115562137D01*
X167911977Y-115562137D02*
X167815215Y-115506499D01*
X167815215Y-115506499D02*
X167766834Y-115456909D01*
X167766834Y-115456909D02*
X167718453Y-115363775D01*
X168637692Y-114781995D02*
X168686073Y-114744499D01*
X168686073Y-114744499D02*
X168734453Y-114794090D01*
X168734453Y-114794090D02*
X168686073Y-114831585D01*
X168686073Y-114831585D02*
X168637692Y-114781995D01*
X168637692Y-114781995D02*
X168734453Y-114794090D01*
X168734453Y-113879689D02*
X168734453Y-114402204D01*
X168734453Y-114140947D02*
X167718453Y-114013947D01*
X167718453Y-114013947D02*
X167863596Y-114119175D01*
X167863596Y-114119175D02*
X167960358Y-114218356D01*
X167960358Y-114218356D02*
X168008739Y-114311489D01*
X168057120Y-113011251D02*
X168734453Y-113095918D01*
X168057120Y-113403137D02*
X168589311Y-113469661D01*
X168589311Y-113469661D02*
X168686073Y-113438213D01*
X168686073Y-113438213D02*
X168734453Y-113357175D01*
X168734453Y-113357175D02*
X168734453Y-113226547D01*
X168734453Y-113226547D02*
X168686073Y-113133413D01*
X168686073Y-113133413D02*
X168637692Y-113083823D01*
X168202263Y-112289166D02*
X168202263Y-112593966D01*
X168734453Y-112660490D02*
X167718453Y-112533490D01*
X167718453Y-112533490D02*
X167718453Y-112098061D01*
X105137692Y-118279332D02*
X105186073Y-118327713D01*
X105186073Y-118327713D02*
X105234453Y-118472856D01*
X105234453Y-118472856D02*
X105234453Y-118569618D01*
X105234453Y-118569618D02*
X105186073Y-118714761D01*
X105186073Y-118714761D02*
X105089311Y-118811523D01*
X105089311Y-118811523D02*
X104992549Y-118859904D01*
X104992549Y-118859904D02*
X104799025Y-118908285D01*
X104799025Y-118908285D02*
X104653882Y-118908285D01*
X104653882Y-118908285D02*
X104460358Y-118859904D01*
X104460358Y-118859904D02*
X104363596Y-118811523D01*
X104363596Y-118811523D02*
X104266834Y-118714761D01*
X104266834Y-118714761D02*
X104218453Y-118569618D01*
X104218453Y-118569618D02*
X104218453Y-118472856D01*
X104218453Y-118472856D02*
X104266834Y-118327713D01*
X104266834Y-118327713D02*
X104315215Y-118279332D01*
X104218453Y-117940666D02*
X104218453Y-117311713D01*
X104218453Y-117311713D02*
X104605501Y-117650380D01*
X104605501Y-117650380D02*
X104605501Y-117505237D01*
X104605501Y-117505237D02*
X104653882Y-117408475D01*
X104653882Y-117408475D02*
X104702263Y-117360094D01*
X104702263Y-117360094D02*
X104799025Y-117311713D01*
X104799025Y-117311713D02*
X105040930Y-117311713D01*
X105040930Y-117311713D02*
X105137692Y-117360094D01*
X105137692Y-117360094D02*
X105186073Y-117408475D01*
X105186073Y-117408475D02*
X105234453Y-117505237D01*
X105234453Y-117505237D02*
X105234453Y-117795523D01*
X105234453Y-117795523D02*
X105186073Y-117892285D01*
X105186073Y-117892285D02*
X105137692Y-117940666D01*
X104218453Y-115363775D02*
X104218453Y-115276690D01*
X104218453Y-115276690D02*
X104266834Y-115195652D01*
X104266834Y-115195652D02*
X104315215Y-115158156D01*
X104315215Y-115158156D02*
X104411977Y-115126709D01*
X104411977Y-115126709D02*
X104605501Y-115107356D01*
X104605501Y-115107356D02*
X104847406Y-115137594D01*
X104847406Y-115137594D02*
X105040930Y-115205328D01*
X105040930Y-115205328D02*
X105137692Y-115260966D01*
X105137692Y-115260966D02*
X105186073Y-115310556D01*
X105186073Y-115310556D02*
X105234453Y-115403690D01*
X105234453Y-115403690D02*
X105234453Y-115490775D01*
X105234453Y-115490775D02*
X105186073Y-115571814D01*
X105186073Y-115571814D02*
X105137692Y-115609309D01*
X105137692Y-115609309D02*
X105040930Y-115640756D01*
X105040930Y-115640756D02*
X104847406Y-115660109D01*
X104847406Y-115660109D02*
X104605501Y-115629871D01*
X104605501Y-115629871D02*
X104411977Y-115562137D01*
X104411977Y-115562137D02*
X104315215Y-115506499D01*
X104315215Y-115506499D02*
X104266834Y-115456909D01*
X104266834Y-115456909D02*
X104218453Y-115363775D01*
X105137692Y-114781995D02*
X105186073Y-114744499D01*
X105186073Y-114744499D02*
X105234453Y-114794090D01*
X105234453Y-114794090D02*
X105186073Y-114831585D01*
X105186073Y-114831585D02*
X105137692Y-114781995D01*
X105137692Y-114781995D02*
X105234453Y-114794090D01*
X105234453Y-113879689D02*
X105234453Y-114402204D01*
X105234453Y-114140947D02*
X104218453Y-114013947D01*
X104218453Y-114013947D02*
X104363596Y-114119175D01*
X104363596Y-114119175D02*
X104460358Y-114218356D01*
X104460358Y-114218356D02*
X104508739Y-114311489D01*
X104557120Y-113011251D02*
X105234453Y-113095918D01*
X104557120Y-113403137D02*
X105089311Y-113469661D01*
X105089311Y-113469661D02*
X105186073Y-113438213D01*
X105186073Y-113438213D02*
X105234453Y-113357175D01*
X105234453Y-113357175D02*
X105234453Y-113226547D01*
X105234453Y-113226547D02*
X105186073Y-113133413D01*
X105186073Y-113133413D02*
X105137692Y-113083823D01*
X104702263Y-112289166D02*
X104702263Y-112593966D01*
X105234453Y-112660490D02*
X104218453Y-112533490D01*
X104218453Y-112533490D02*
X104218453Y-112098061D01*
X134347692Y-121454332D02*
X134396073Y-121502713D01*
X134396073Y-121502713D02*
X134444453Y-121647856D01*
X134444453Y-121647856D02*
X134444453Y-121744618D01*
X134444453Y-121744618D02*
X134396073Y-121889761D01*
X134396073Y-121889761D02*
X134299311Y-121986523D01*
X134299311Y-121986523D02*
X134202549Y-122034904D01*
X134202549Y-122034904D02*
X134009025Y-122083285D01*
X134009025Y-122083285D02*
X133863882Y-122083285D01*
X133863882Y-122083285D02*
X133670358Y-122034904D01*
X133670358Y-122034904D02*
X133573596Y-121986523D01*
X133573596Y-121986523D02*
X133476834Y-121889761D01*
X133476834Y-121889761D02*
X133428453Y-121744618D01*
X133428453Y-121744618D02*
X133428453Y-121647856D01*
X133428453Y-121647856D02*
X133476834Y-121502713D01*
X133476834Y-121502713D02*
X133525215Y-121454332D01*
X133767120Y-120583475D02*
X134444453Y-120583475D01*
X133380073Y-120825380D02*
X134105787Y-121067285D01*
X134105787Y-121067285D02*
X134105787Y-120438332D01*
X134698453Y-122666275D02*
X134698453Y-122579190D01*
X134698453Y-122579190D02*
X134746834Y-122498152D01*
X134746834Y-122498152D02*
X134795215Y-122460656D01*
X134795215Y-122460656D02*
X134891977Y-122429209D01*
X134891977Y-122429209D02*
X135085501Y-122409856D01*
X135085501Y-122409856D02*
X135327406Y-122440094D01*
X135327406Y-122440094D02*
X135520930Y-122507828D01*
X135520930Y-122507828D02*
X135617692Y-122563466D01*
X135617692Y-122563466D02*
X135666073Y-122613056D01*
X135666073Y-122613056D02*
X135714453Y-122706190D01*
X135714453Y-122706190D02*
X135714453Y-122793275D01*
X135714453Y-122793275D02*
X135666073Y-122874314D01*
X135666073Y-122874314D02*
X135617692Y-122911809D01*
X135617692Y-122911809D02*
X135520930Y-122943256D01*
X135520930Y-122943256D02*
X135327406Y-122962609D01*
X135327406Y-122962609D02*
X135085501Y-122932371D01*
X135085501Y-122932371D02*
X134891977Y-122864637D01*
X134891977Y-122864637D02*
X134795215Y-122808999D01*
X134795215Y-122808999D02*
X134746834Y-122759409D01*
X134746834Y-122759409D02*
X134698453Y-122666275D01*
X135617692Y-122084495D02*
X135666073Y-122046999D01*
X135666073Y-122046999D02*
X135714453Y-122096590D01*
X135714453Y-122096590D02*
X135666073Y-122134085D01*
X135666073Y-122134085D02*
X135617692Y-122084495D01*
X135617692Y-122084495D02*
X135714453Y-122096590D01*
X135714453Y-121182189D02*
X135714453Y-121704704D01*
X135714453Y-121443447D02*
X134698453Y-121316447D01*
X134698453Y-121316447D02*
X134843596Y-121421675D01*
X134843596Y-121421675D02*
X134940358Y-121520856D01*
X134940358Y-121520856D02*
X134988739Y-121613989D01*
X135037120Y-120313751D02*
X135714453Y-120398418D01*
X135037120Y-120705637D02*
X135569311Y-120772161D01*
X135569311Y-120772161D02*
X135666073Y-120740713D01*
X135666073Y-120740713D02*
X135714453Y-120659675D01*
X135714453Y-120659675D02*
X135714453Y-120529047D01*
X135714453Y-120529047D02*
X135666073Y-120435913D01*
X135666073Y-120435913D02*
X135617692Y-120386323D01*
X135182263Y-119591666D02*
X135182263Y-119896466D01*
X135714453Y-119962990D02*
X134698453Y-119835990D01*
X134698453Y-119835990D02*
X134698453Y-119400561D01*
X131490192Y-121454332D02*
X131538573Y-121502713D01*
X131538573Y-121502713D02*
X131586953Y-121647856D01*
X131586953Y-121647856D02*
X131586953Y-121744618D01*
X131586953Y-121744618D02*
X131538573Y-121889761D01*
X131538573Y-121889761D02*
X131441811Y-121986523D01*
X131441811Y-121986523D02*
X131345049Y-122034904D01*
X131345049Y-122034904D02*
X131151525Y-122083285D01*
X131151525Y-122083285D02*
X131006382Y-122083285D01*
X131006382Y-122083285D02*
X130812858Y-122034904D01*
X130812858Y-122034904D02*
X130716096Y-121986523D01*
X130716096Y-121986523D02*
X130619334Y-121889761D01*
X130619334Y-121889761D02*
X130570953Y-121744618D01*
X130570953Y-121744618D02*
X130570953Y-121647856D01*
X130570953Y-121647856D02*
X130619334Y-121502713D01*
X130619334Y-121502713D02*
X130667715Y-121454332D01*
X130570953Y-120535094D02*
X130570953Y-121018904D01*
X130570953Y-121018904D02*
X131054763Y-121067285D01*
X131054763Y-121067285D02*
X131006382Y-121018904D01*
X131006382Y-121018904D02*
X130958001Y-120922142D01*
X130958001Y-120922142D02*
X130958001Y-120680237D01*
X130958001Y-120680237D02*
X131006382Y-120583475D01*
X131006382Y-120583475D02*
X131054763Y-120535094D01*
X131054763Y-120535094D02*
X131151525Y-120486713D01*
X131151525Y-120486713D02*
X131393430Y-120486713D01*
X131393430Y-120486713D02*
X131490192Y-120535094D01*
X131490192Y-120535094D02*
X131538573Y-120583475D01*
X131538573Y-120583475D02*
X131586953Y-120680237D01*
X131586953Y-120680237D02*
X131586953Y-120922142D01*
X131586953Y-120922142D02*
X131538573Y-121018904D01*
X131538573Y-121018904D02*
X131490192Y-121067285D01*
X132856953Y-121835332D02*
X132856953Y-122357847D01*
X132856953Y-122096590D02*
X131840953Y-121969590D01*
X131840953Y-121969590D02*
X131986096Y-122074818D01*
X131986096Y-122074818D02*
X132082858Y-122173999D01*
X132082858Y-122173999D02*
X132131239Y-122267132D01*
X132179620Y-120966894D02*
X132856953Y-121051561D01*
X132179620Y-121358780D02*
X132711811Y-121425304D01*
X132711811Y-121425304D02*
X132808573Y-121393856D01*
X132808573Y-121393856D02*
X132856953Y-121312818D01*
X132856953Y-121312818D02*
X132856953Y-121182190D01*
X132856953Y-121182190D02*
X132808573Y-121089056D01*
X132808573Y-121089056D02*
X132760192Y-121039466D01*
X132324763Y-120244809D02*
X132324763Y-120549609D01*
X132856953Y-120616133D02*
X131840953Y-120489133D01*
X131840953Y-120489133D02*
X131840953Y-120053704D01*
X130247406Y-118497047D02*
X130247406Y-117722952D01*
X130634453Y-118109999D02*
X129860358Y-118109999D01*
X196577692Y-118279332D02*
X196626073Y-118327713D01*
X196626073Y-118327713D02*
X196674453Y-118472856D01*
X196674453Y-118472856D02*
X196674453Y-118569618D01*
X196674453Y-118569618D02*
X196626073Y-118714761D01*
X196626073Y-118714761D02*
X196529311Y-118811523D01*
X196529311Y-118811523D02*
X196432549Y-118859904D01*
X196432549Y-118859904D02*
X196239025Y-118908285D01*
X196239025Y-118908285D02*
X196093882Y-118908285D01*
X196093882Y-118908285D02*
X195900358Y-118859904D01*
X195900358Y-118859904D02*
X195803596Y-118811523D01*
X195803596Y-118811523D02*
X195706834Y-118714761D01*
X195706834Y-118714761D02*
X195658453Y-118569618D01*
X195658453Y-118569618D02*
X195658453Y-118472856D01*
X195658453Y-118472856D02*
X195706834Y-118327713D01*
X195706834Y-118327713D02*
X195755215Y-118279332D01*
X195658453Y-117408475D02*
X195658453Y-117601999D01*
X195658453Y-117601999D02*
X195706834Y-117698761D01*
X195706834Y-117698761D02*
X195755215Y-117747142D01*
X195755215Y-117747142D02*
X195900358Y-117843904D01*
X195900358Y-117843904D02*
X196093882Y-117892285D01*
X196093882Y-117892285D02*
X196480930Y-117892285D01*
X196480930Y-117892285D02*
X196577692Y-117843904D01*
X196577692Y-117843904D02*
X196626073Y-117795523D01*
X196626073Y-117795523D02*
X196674453Y-117698761D01*
X196674453Y-117698761D02*
X196674453Y-117505237D01*
X196674453Y-117505237D02*
X196626073Y-117408475D01*
X196626073Y-117408475D02*
X196577692Y-117360094D01*
X196577692Y-117360094D02*
X196480930Y-117311713D01*
X196480930Y-117311713D02*
X196239025Y-117311713D01*
X196239025Y-117311713D02*
X196142263Y-117360094D01*
X196142263Y-117360094D02*
X196093882Y-117408475D01*
X196093882Y-117408475D02*
X196045501Y-117505237D01*
X196045501Y-117505237D02*
X196045501Y-117698761D01*
X196045501Y-117698761D02*
X196093882Y-117795523D01*
X196093882Y-117795523D02*
X196142263Y-117843904D01*
X196142263Y-117843904D02*
X196239025Y-117892285D01*
X196674453Y-114968260D02*
X196674453Y-115490775D01*
X196674453Y-115229518D02*
X195658453Y-115102518D01*
X195658453Y-115102518D02*
X195803596Y-115207746D01*
X195803596Y-115207746D02*
X195900358Y-115306927D01*
X195900358Y-115306927D02*
X195948739Y-115400060D01*
X195658453Y-114275203D02*
X195658453Y-114188118D01*
X195658453Y-114188118D02*
X195706834Y-114107080D01*
X195706834Y-114107080D02*
X195755215Y-114069584D01*
X195755215Y-114069584D02*
X195851977Y-114038137D01*
X195851977Y-114038137D02*
X196045501Y-114018784D01*
X196045501Y-114018784D02*
X196287406Y-114049022D01*
X196287406Y-114049022D02*
X196480930Y-114116756D01*
X196480930Y-114116756D02*
X196577692Y-114172394D01*
X196577692Y-114172394D02*
X196626073Y-114221984D01*
X196626073Y-114221984D02*
X196674453Y-114315118D01*
X196674453Y-114315118D02*
X196674453Y-114402203D01*
X196674453Y-114402203D02*
X196626073Y-114483242D01*
X196626073Y-114483242D02*
X196577692Y-114520737D01*
X196577692Y-114520737D02*
X196480930Y-114552184D01*
X196480930Y-114552184D02*
X196287406Y-114571537D01*
X196287406Y-114571537D02*
X196045501Y-114541299D01*
X196045501Y-114541299D02*
X195851977Y-114473565D01*
X195851977Y-114473565D02*
X195755215Y-114417927D01*
X195755215Y-114417927D02*
X195706834Y-114368337D01*
X195706834Y-114368337D02*
X195658453Y-114275203D01*
X195997120Y-113228965D02*
X196674453Y-113313632D01*
X195997120Y-113620851D02*
X196529311Y-113687375D01*
X196529311Y-113687375D02*
X196626073Y-113655927D01*
X196626073Y-113655927D02*
X196674453Y-113574889D01*
X196674453Y-113574889D02*
X196674453Y-113444261D01*
X196674453Y-113444261D02*
X196626073Y-113351127D01*
X196626073Y-113351127D02*
X196577692Y-113301537D01*
X196142263Y-112506880D02*
X196142263Y-112811680D01*
X196674453Y-112878204D02*
X195658453Y-112751204D01*
X195658453Y-112751204D02*
X195658453Y-112315775D01*
X200097406Y-118497047D02*
X200097406Y-117722952D01*
X200484453Y-118109999D02*
X199710358Y-118109999D01*
X115772595Y-123966953D02*
X115772595Y-122950953D01*
X115772595Y-122950953D02*
X116159643Y-122950953D01*
X116159643Y-122950953D02*
X116256405Y-122999334D01*
X116256405Y-122999334D02*
X116304786Y-123047715D01*
X116304786Y-123047715D02*
X116353167Y-123144477D01*
X116353167Y-123144477D02*
X116353167Y-123289620D01*
X116353167Y-123289620D02*
X116304786Y-123386382D01*
X116304786Y-123386382D02*
X116256405Y-123434763D01*
X116256405Y-123434763D02*
X116159643Y-123483144D01*
X116159643Y-123483144D02*
X115772595Y-123483144D01*
X116740214Y-123047715D02*
X116788595Y-122999334D01*
X116788595Y-122999334D02*
X116885357Y-122950953D01*
X116885357Y-122950953D02*
X117127262Y-122950953D01*
X117127262Y-122950953D02*
X117224024Y-122999334D01*
X117224024Y-122999334D02*
X117272405Y-123047715D01*
X117272405Y-123047715D02*
X117320786Y-123144477D01*
X117320786Y-123144477D02*
X117320786Y-123241239D01*
X117320786Y-123241239D02*
X117272405Y-123386382D01*
X117272405Y-123386382D02*
X116691833Y-123966953D01*
X116691833Y-123966953D02*
X117320786Y-123966953D01*
X127554567Y-122950953D02*
X127732367Y-123966953D01*
X127732367Y-123966953D02*
X128164167Y-122950953D01*
X128713290Y-123434763D02*
X128408490Y-123434763D01*
X128341966Y-123966953D02*
X128468966Y-122950953D01*
X128468966Y-122950953D02*
X128904395Y-122950953D01*
X129125737Y-123966953D02*
X129252737Y-122950953D01*
X129252737Y-122950953D02*
X129470451Y-122950953D01*
X129470451Y-122950953D02*
X129595032Y-122999334D01*
X129595032Y-122999334D02*
X129670023Y-123096096D01*
X129670023Y-123096096D02*
X129701471Y-123192858D01*
X129701471Y-123192858D02*
X129720823Y-123386382D01*
X129720823Y-123386382D02*
X129702680Y-123531525D01*
X129702680Y-123531525D02*
X129634947Y-123725049D01*
X129634947Y-123725049D02*
X129579309Y-123821811D01*
X129579309Y-123821811D02*
X129480128Y-123918573D01*
X129480128Y-123918573D02*
X129343451Y-123966953D01*
X129343451Y-123966953D02*
X129125737Y-123966953D01*
X177411073Y-63354666D02*
X177459453Y-63209523D01*
X177459453Y-63209523D02*
X177459453Y-62967618D01*
X177459453Y-62967618D02*
X177411073Y-62870856D01*
X177411073Y-62870856D02*
X177362692Y-62822475D01*
X177362692Y-62822475D02*
X177265930Y-62774094D01*
X177265930Y-62774094D02*
X177169168Y-62774094D01*
X177169168Y-62774094D02*
X177072406Y-62822475D01*
X177072406Y-62822475D02*
X177024025Y-62870856D01*
X177024025Y-62870856D02*
X176975644Y-62967618D01*
X176975644Y-62967618D02*
X176927263Y-63161142D01*
X176927263Y-63161142D02*
X176878882Y-63257904D01*
X176878882Y-63257904D02*
X176830501Y-63306285D01*
X176830501Y-63306285D02*
X176733739Y-63354666D01*
X176733739Y-63354666D02*
X176636977Y-63354666D01*
X176636977Y-63354666D02*
X176540215Y-63306285D01*
X176540215Y-63306285D02*
X176491834Y-63257904D01*
X176491834Y-63257904D02*
X176443453Y-63161142D01*
X176443453Y-63161142D02*
X176443453Y-62919237D01*
X176443453Y-62919237D02*
X176491834Y-62774094D01*
X176443453Y-62435428D02*
X177459453Y-62193523D01*
X177459453Y-62193523D02*
X176733739Y-61999999D01*
X176733739Y-61999999D02*
X177459453Y-61806475D01*
X177459453Y-61806475D02*
X176443453Y-61564571D01*
X177459453Y-60645332D02*
X177459453Y-61225904D01*
X177459453Y-60935618D02*
X176443453Y-60935618D01*
X176443453Y-60935618D02*
X176588596Y-61032380D01*
X176588596Y-61032380D02*
X176685358Y-61129142D01*
X176685358Y-61129142D02*
X176733739Y-61225904D01*
X191443453Y-51922589D02*
X191443453Y-51835504D01*
X191443453Y-51835504D02*
X191491834Y-51754466D01*
X191491834Y-51754466D02*
X191540215Y-51716970D01*
X191540215Y-51716970D02*
X191636977Y-51685523D01*
X191636977Y-51685523D02*
X191830501Y-51666170D01*
X191830501Y-51666170D02*
X192072406Y-51696408D01*
X192072406Y-51696408D02*
X192265930Y-51764142D01*
X192265930Y-51764142D02*
X192362692Y-51819780D01*
X192362692Y-51819780D02*
X192411073Y-51869370D01*
X192411073Y-51869370D02*
X192459453Y-51962504D01*
X192459453Y-51962504D02*
X192459453Y-52049589D01*
X192459453Y-52049589D02*
X192411073Y-52130628D01*
X192411073Y-52130628D02*
X192362692Y-52168123D01*
X192362692Y-52168123D02*
X192265930Y-52199570D01*
X192265930Y-52199570D02*
X192072406Y-52218923D01*
X192072406Y-52218923D02*
X191830501Y-52188685D01*
X191830501Y-52188685D02*
X191636977Y-52120951D01*
X191636977Y-52120951D02*
X191540215Y-52065313D01*
X191540215Y-52065313D02*
X191491834Y-52015723D01*
X191491834Y-52015723D02*
X191443453Y-51922589D01*
X177411073Y-79354666D02*
X177459453Y-79209523D01*
X177459453Y-79209523D02*
X177459453Y-78967618D01*
X177459453Y-78967618D02*
X177411073Y-78870856D01*
X177411073Y-78870856D02*
X177362692Y-78822475D01*
X177362692Y-78822475D02*
X177265930Y-78774094D01*
X177265930Y-78774094D02*
X177169168Y-78774094D01*
X177169168Y-78774094D02*
X177072406Y-78822475D01*
X177072406Y-78822475D02*
X177024025Y-78870856D01*
X177024025Y-78870856D02*
X176975644Y-78967618D01*
X176975644Y-78967618D02*
X176927263Y-79161142D01*
X176927263Y-79161142D02*
X176878882Y-79257904D01*
X176878882Y-79257904D02*
X176830501Y-79306285D01*
X176830501Y-79306285D02*
X176733739Y-79354666D01*
X176733739Y-79354666D02*
X176636977Y-79354666D01*
X176636977Y-79354666D02*
X176540215Y-79306285D01*
X176540215Y-79306285D02*
X176491834Y-79257904D01*
X176491834Y-79257904D02*
X176443453Y-79161142D01*
X176443453Y-79161142D02*
X176443453Y-78919237D01*
X176443453Y-78919237D02*
X176491834Y-78774094D01*
X176443453Y-78435428D02*
X177459453Y-78193523D01*
X177459453Y-78193523D02*
X176733739Y-77999999D01*
X176733739Y-77999999D02*
X177459453Y-77806475D01*
X177459453Y-77806475D02*
X176443453Y-77564571D01*
X176540215Y-77225904D02*
X176491834Y-77177523D01*
X176491834Y-77177523D02*
X176443453Y-77080761D01*
X176443453Y-77080761D02*
X176443453Y-76838856D01*
X176443453Y-76838856D02*
X176491834Y-76742094D01*
X176491834Y-76742094D02*
X176540215Y-76693713D01*
X176540215Y-76693713D02*
X176636977Y-76645332D01*
X176636977Y-76645332D02*
X176733739Y-76645332D01*
X176733739Y-76645332D02*
X176878882Y-76693713D01*
X176878882Y-76693713D02*
X177459453Y-77274285D01*
X177459453Y-77274285D02*
X177459453Y-76645332D01*
X192459453Y-67744789D02*
X192459453Y-68267304D01*
X192459453Y-68006047D02*
X191443453Y-67879047D01*
X191443453Y-67879047D02*
X191588596Y-67984275D01*
X191588596Y-67984275D02*
X191685358Y-68083456D01*
X191685358Y-68083456D02*
X191733739Y-68176589D01*
X161411073Y-79354666D02*
X161459453Y-79209523D01*
X161459453Y-79209523D02*
X161459453Y-78967618D01*
X161459453Y-78967618D02*
X161411073Y-78870856D01*
X161411073Y-78870856D02*
X161362692Y-78822475D01*
X161362692Y-78822475D02*
X161265930Y-78774094D01*
X161265930Y-78774094D02*
X161169168Y-78774094D01*
X161169168Y-78774094D02*
X161072406Y-78822475D01*
X161072406Y-78822475D02*
X161024025Y-78870856D01*
X161024025Y-78870856D02*
X160975644Y-78967618D01*
X160975644Y-78967618D02*
X160927263Y-79161142D01*
X160927263Y-79161142D02*
X160878882Y-79257904D01*
X160878882Y-79257904D02*
X160830501Y-79306285D01*
X160830501Y-79306285D02*
X160733739Y-79354666D01*
X160733739Y-79354666D02*
X160636977Y-79354666D01*
X160636977Y-79354666D02*
X160540215Y-79306285D01*
X160540215Y-79306285D02*
X160491834Y-79257904D01*
X160491834Y-79257904D02*
X160443453Y-79161142D01*
X160443453Y-79161142D02*
X160443453Y-78919237D01*
X160443453Y-78919237D02*
X160491834Y-78774094D01*
X160443453Y-78435428D02*
X161459453Y-78193523D01*
X161459453Y-78193523D02*
X160733739Y-77999999D01*
X160733739Y-77999999D02*
X161459453Y-77806475D01*
X161459453Y-77806475D02*
X160443453Y-77564571D01*
X160443453Y-77274285D02*
X160443453Y-76645332D01*
X160443453Y-76645332D02*
X160830501Y-76983999D01*
X160830501Y-76983999D02*
X160830501Y-76838856D01*
X160830501Y-76838856D02*
X160878882Y-76742094D01*
X160878882Y-76742094D02*
X160927263Y-76693713D01*
X160927263Y-76693713D02*
X161024025Y-76645332D01*
X161024025Y-76645332D02*
X161265930Y-76645332D01*
X161265930Y-76645332D02*
X161362692Y-76693713D01*
X161362692Y-76693713D02*
X161411073Y-76742094D01*
X161411073Y-76742094D02*
X161459453Y-76838856D01*
X161459453Y-76838856D02*
X161459453Y-77129142D01*
X161459453Y-77129142D02*
X161411073Y-77225904D01*
X161411073Y-77225904D02*
X161362692Y-77274285D01*
X175540215Y-68152399D02*
X175491834Y-68102808D01*
X175491834Y-68102808D02*
X175443453Y-68009675D01*
X175443453Y-68009675D02*
X175443453Y-67791961D01*
X175443453Y-67791961D02*
X175491834Y-67710923D01*
X175491834Y-67710923D02*
X175540215Y-67673428D01*
X175540215Y-67673428D02*
X175636977Y-67641980D01*
X175636977Y-67641980D02*
X175733739Y-67654075D01*
X175733739Y-67654075D02*
X175878882Y-67715761D01*
X175878882Y-67715761D02*
X176459453Y-68310847D01*
X176459453Y-68310847D02*
X176459453Y-67744789D01*
X145411073Y-79354666D02*
X145459453Y-79209523D01*
X145459453Y-79209523D02*
X145459453Y-78967618D01*
X145459453Y-78967618D02*
X145411073Y-78870856D01*
X145411073Y-78870856D02*
X145362692Y-78822475D01*
X145362692Y-78822475D02*
X145265930Y-78774094D01*
X145265930Y-78774094D02*
X145169168Y-78774094D01*
X145169168Y-78774094D02*
X145072406Y-78822475D01*
X145072406Y-78822475D02*
X145024025Y-78870856D01*
X145024025Y-78870856D02*
X144975644Y-78967618D01*
X144975644Y-78967618D02*
X144927263Y-79161142D01*
X144927263Y-79161142D02*
X144878882Y-79257904D01*
X144878882Y-79257904D02*
X144830501Y-79306285D01*
X144830501Y-79306285D02*
X144733739Y-79354666D01*
X144733739Y-79354666D02*
X144636977Y-79354666D01*
X144636977Y-79354666D02*
X144540215Y-79306285D01*
X144540215Y-79306285D02*
X144491834Y-79257904D01*
X144491834Y-79257904D02*
X144443453Y-79161142D01*
X144443453Y-79161142D02*
X144443453Y-78919237D01*
X144443453Y-78919237D02*
X144491834Y-78774094D01*
X144443453Y-78435428D02*
X145459453Y-78193523D01*
X145459453Y-78193523D02*
X144733739Y-77999999D01*
X144733739Y-77999999D02*
X145459453Y-77806475D01*
X145459453Y-77806475D02*
X144443453Y-77564571D01*
X144782120Y-76742094D02*
X145459453Y-76742094D01*
X144395073Y-76983999D02*
X145120787Y-77225904D01*
X145120787Y-77225904D02*
X145120787Y-76596951D01*
X159443453Y-68183847D02*
X159443453Y-67617789D01*
X159443453Y-67617789D02*
X159830501Y-67970970D01*
X159830501Y-67970970D02*
X159830501Y-67840342D01*
X159830501Y-67840342D02*
X159878882Y-67759304D01*
X159878882Y-67759304D02*
X159927263Y-67721808D01*
X159927263Y-67721808D02*
X160024025Y-67690361D01*
X160024025Y-67690361D02*
X160265930Y-67720599D01*
X160265930Y-67720599D02*
X160362692Y-67776237D01*
X160362692Y-67776237D02*
X160411073Y-67825828D01*
X160411073Y-67825828D02*
X160459453Y-67918961D01*
X160459453Y-67918961D02*
X160459453Y-68180218D01*
X160459453Y-68180218D02*
X160411073Y-68261256D01*
X160411073Y-68261256D02*
X160362692Y-68298751D01*
X177411073Y-95354666D02*
X177459453Y-95209523D01*
X177459453Y-95209523D02*
X177459453Y-94967618D01*
X177459453Y-94967618D02*
X177411073Y-94870856D01*
X177411073Y-94870856D02*
X177362692Y-94822475D01*
X177362692Y-94822475D02*
X177265930Y-94774094D01*
X177265930Y-94774094D02*
X177169168Y-94774094D01*
X177169168Y-94774094D02*
X177072406Y-94822475D01*
X177072406Y-94822475D02*
X177024025Y-94870856D01*
X177024025Y-94870856D02*
X176975644Y-94967618D01*
X176975644Y-94967618D02*
X176927263Y-95161142D01*
X176927263Y-95161142D02*
X176878882Y-95257904D01*
X176878882Y-95257904D02*
X176830501Y-95306285D01*
X176830501Y-95306285D02*
X176733739Y-95354666D01*
X176733739Y-95354666D02*
X176636977Y-95354666D01*
X176636977Y-95354666D02*
X176540215Y-95306285D01*
X176540215Y-95306285D02*
X176491834Y-95257904D01*
X176491834Y-95257904D02*
X176443453Y-95161142D01*
X176443453Y-95161142D02*
X176443453Y-94919237D01*
X176443453Y-94919237D02*
X176491834Y-94774094D01*
X176443453Y-94435428D02*
X177459453Y-94193523D01*
X177459453Y-94193523D02*
X176733739Y-93999999D01*
X176733739Y-93999999D02*
X177459453Y-93806475D01*
X177459453Y-93806475D02*
X176443453Y-93564571D01*
X176443453Y-92693713D02*
X176443453Y-93177523D01*
X176443453Y-93177523D02*
X176927263Y-93225904D01*
X176927263Y-93225904D02*
X176878882Y-93177523D01*
X176878882Y-93177523D02*
X176830501Y-93080761D01*
X176830501Y-93080761D02*
X176830501Y-92838856D01*
X176830501Y-92838856D02*
X176878882Y-92742094D01*
X176878882Y-92742094D02*
X176927263Y-92693713D01*
X176927263Y-92693713D02*
X177024025Y-92645332D01*
X177024025Y-92645332D02*
X177265930Y-92645332D01*
X177265930Y-92645332D02*
X177362692Y-92693713D01*
X177362692Y-92693713D02*
X177411073Y-92742094D01*
X177411073Y-92742094D02*
X177459453Y-92838856D01*
X177459453Y-92838856D02*
X177459453Y-93080761D01*
X177459453Y-93080761D02*
X177411073Y-93177523D01*
X177411073Y-93177523D02*
X177362692Y-93225904D01*
X191782120Y-83747208D02*
X192459453Y-83831875D01*
X191395073Y-83916542D02*
X192120787Y-84224970D01*
X192120787Y-84224970D02*
X192120787Y-83658913D01*
X161411073Y-95354666D02*
X161459453Y-95209523D01*
X161459453Y-95209523D02*
X161459453Y-94967618D01*
X161459453Y-94967618D02*
X161411073Y-94870856D01*
X161411073Y-94870856D02*
X161362692Y-94822475D01*
X161362692Y-94822475D02*
X161265930Y-94774094D01*
X161265930Y-94774094D02*
X161169168Y-94774094D01*
X161169168Y-94774094D02*
X161072406Y-94822475D01*
X161072406Y-94822475D02*
X161024025Y-94870856D01*
X161024025Y-94870856D02*
X160975644Y-94967618D01*
X160975644Y-94967618D02*
X160927263Y-95161142D01*
X160927263Y-95161142D02*
X160878882Y-95257904D01*
X160878882Y-95257904D02*
X160830501Y-95306285D01*
X160830501Y-95306285D02*
X160733739Y-95354666D01*
X160733739Y-95354666D02*
X160636977Y-95354666D01*
X160636977Y-95354666D02*
X160540215Y-95306285D01*
X160540215Y-95306285D02*
X160491834Y-95257904D01*
X160491834Y-95257904D02*
X160443453Y-95161142D01*
X160443453Y-95161142D02*
X160443453Y-94919237D01*
X160443453Y-94919237D02*
X160491834Y-94774094D01*
X160443453Y-94435428D02*
X161459453Y-94193523D01*
X161459453Y-94193523D02*
X160733739Y-93999999D01*
X160733739Y-93999999D02*
X161459453Y-93806475D01*
X161459453Y-93806475D02*
X160443453Y-93564571D01*
X160443453Y-92742094D02*
X160443453Y-92935618D01*
X160443453Y-92935618D02*
X160491834Y-93032380D01*
X160491834Y-93032380D02*
X160540215Y-93080761D01*
X160540215Y-93080761D02*
X160685358Y-93177523D01*
X160685358Y-93177523D02*
X160878882Y-93225904D01*
X160878882Y-93225904D02*
X161265930Y-93225904D01*
X161265930Y-93225904D02*
X161362692Y-93177523D01*
X161362692Y-93177523D02*
X161411073Y-93129142D01*
X161411073Y-93129142D02*
X161459453Y-93032380D01*
X161459453Y-93032380D02*
X161459453Y-92838856D01*
X161459453Y-92838856D02*
X161411073Y-92742094D01*
X161411073Y-92742094D02*
X161362692Y-92693713D01*
X161362692Y-92693713D02*
X161265930Y-92645332D01*
X161265930Y-92645332D02*
X161024025Y-92645332D01*
X161024025Y-92645332D02*
X160927263Y-92693713D01*
X160927263Y-92693713D02*
X160878882Y-92742094D01*
X160878882Y-92742094D02*
X160830501Y-92838856D01*
X160830501Y-92838856D02*
X160830501Y-93032380D01*
X160830501Y-93032380D02*
X160878882Y-93129142D01*
X160878882Y-93129142D02*
X160927263Y-93177523D01*
X160927263Y-93177523D02*
X161024025Y-93225904D01*
X175443453Y-83661332D02*
X175443453Y-84096761D01*
X175443453Y-84096761D02*
X175927263Y-84200780D01*
X175927263Y-84200780D02*
X175878882Y-84151189D01*
X175878882Y-84151189D02*
X175830501Y-84058056D01*
X175830501Y-84058056D02*
X175830501Y-83840342D01*
X175830501Y-83840342D02*
X175878882Y-83759304D01*
X175878882Y-83759304D02*
X175927263Y-83721808D01*
X175927263Y-83721808D02*
X176024025Y-83690361D01*
X176024025Y-83690361D02*
X176265930Y-83720599D01*
X176265930Y-83720599D02*
X176362692Y-83776237D01*
X176362692Y-83776237D02*
X176411073Y-83825828D01*
X176411073Y-83825828D02*
X176459453Y-83918961D01*
X176459453Y-83918961D02*
X176459453Y-84136675D01*
X176459453Y-84136675D02*
X176411073Y-84217713D01*
X176411073Y-84217713D02*
X176362692Y-84255208D01*
X145411073Y-95354666D02*
X145459453Y-95209523D01*
X145459453Y-95209523D02*
X145459453Y-94967618D01*
X145459453Y-94967618D02*
X145411073Y-94870856D01*
X145411073Y-94870856D02*
X145362692Y-94822475D01*
X145362692Y-94822475D02*
X145265930Y-94774094D01*
X145265930Y-94774094D02*
X145169168Y-94774094D01*
X145169168Y-94774094D02*
X145072406Y-94822475D01*
X145072406Y-94822475D02*
X145024025Y-94870856D01*
X145024025Y-94870856D02*
X144975644Y-94967618D01*
X144975644Y-94967618D02*
X144927263Y-95161142D01*
X144927263Y-95161142D02*
X144878882Y-95257904D01*
X144878882Y-95257904D02*
X144830501Y-95306285D01*
X144830501Y-95306285D02*
X144733739Y-95354666D01*
X144733739Y-95354666D02*
X144636977Y-95354666D01*
X144636977Y-95354666D02*
X144540215Y-95306285D01*
X144540215Y-95306285D02*
X144491834Y-95257904D01*
X144491834Y-95257904D02*
X144443453Y-95161142D01*
X144443453Y-95161142D02*
X144443453Y-94919237D01*
X144443453Y-94919237D02*
X144491834Y-94774094D01*
X144443453Y-94435428D02*
X145459453Y-94193523D01*
X145459453Y-94193523D02*
X144733739Y-93999999D01*
X144733739Y-93999999D02*
X145459453Y-93806475D01*
X145459453Y-93806475D02*
X144443453Y-93564571D01*
X144443453Y-93274285D02*
X144443453Y-92596951D01*
X144443453Y-92596951D02*
X145459453Y-93032380D01*
X159443453Y-83704875D02*
X159443453Y-83879047D01*
X159443453Y-83879047D02*
X159491834Y-83972180D01*
X159491834Y-83972180D02*
X159540215Y-84021770D01*
X159540215Y-84021770D02*
X159685358Y-84126999D01*
X159685358Y-84126999D02*
X159878882Y-84194732D01*
X159878882Y-84194732D02*
X160265930Y-84243113D01*
X160265930Y-84243113D02*
X160362692Y-84211666D01*
X160362692Y-84211666D02*
X160411073Y-84174170D01*
X160411073Y-84174170D02*
X160459453Y-84093132D01*
X160459453Y-84093132D02*
X160459453Y-83918961D01*
X160459453Y-83918961D02*
X160411073Y-83825828D01*
X160411073Y-83825828D02*
X160362692Y-83776237D01*
X160362692Y-83776237D02*
X160265930Y-83720599D01*
X160265930Y-83720599D02*
X160024025Y-83690361D01*
X160024025Y-83690361D02*
X159927263Y-83721808D01*
X159927263Y-83721808D02*
X159878882Y-83759304D01*
X159878882Y-83759304D02*
X159830501Y-83840342D01*
X159830501Y-83840342D02*
X159830501Y-84014513D01*
X159830501Y-84014513D02*
X159878882Y-84107647D01*
X159878882Y-84107647D02*
X159927263Y-84157237D01*
X159927263Y-84157237D02*
X160024025Y-84212875D01*
X177411073Y-111354666D02*
X177459453Y-111209523D01*
X177459453Y-111209523D02*
X177459453Y-110967618D01*
X177459453Y-110967618D02*
X177411073Y-110870856D01*
X177411073Y-110870856D02*
X177362692Y-110822475D01*
X177362692Y-110822475D02*
X177265930Y-110774094D01*
X177265930Y-110774094D02*
X177169168Y-110774094D01*
X177169168Y-110774094D02*
X177072406Y-110822475D01*
X177072406Y-110822475D02*
X177024025Y-110870856D01*
X177024025Y-110870856D02*
X176975644Y-110967618D01*
X176975644Y-110967618D02*
X176927263Y-111161142D01*
X176927263Y-111161142D02*
X176878882Y-111257904D01*
X176878882Y-111257904D02*
X176830501Y-111306285D01*
X176830501Y-111306285D02*
X176733739Y-111354666D01*
X176733739Y-111354666D02*
X176636977Y-111354666D01*
X176636977Y-111354666D02*
X176540215Y-111306285D01*
X176540215Y-111306285D02*
X176491834Y-111257904D01*
X176491834Y-111257904D02*
X176443453Y-111161142D01*
X176443453Y-111161142D02*
X176443453Y-110919237D01*
X176443453Y-110919237D02*
X176491834Y-110774094D01*
X176443453Y-110435428D02*
X177459453Y-110193523D01*
X177459453Y-110193523D02*
X176733739Y-109999999D01*
X176733739Y-109999999D02*
X177459453Y-109806475D01*
X177459453Y-109806475D02*
X176443453Y-109564571D01*
X176878882Y-109032380D02*
X176830501Y-109129142D01*
X176830501Y-109129142D02*
X176782120Y-109177523D01*
X176782120Y-109177523D02*
X176685358Y-109225904D01*
X176685358Y-109225904D02*
X176636977Y-109225904D01*
X176636977Y-109225904D02*
X176540215Y-109177523D01*
X176540215Y-109177523D02*
X176491834Y-109129142D01*
X176491834Y-109129142D02*
X176443453Y-109032380D01*
X176443453Y-109032380D02*
X176443453Y-108838856D01*
X176443453Y-108838856D02*
X176491834Y-108742094D01*
X176491834Y-108742094D02*
X176540215Y-108693713D01*
X176540215Y-108693713D02*
X176636977Y-108645332D01*
X176636977Y-108645332D02*
X176685358Y-108645332D01*
X176685358Y-108645332D02*
X176782120Y-108693713D01*
X176782120Y-108693713D02*
X176830501Y-108742094D01*
X176830501Y-108742094D02*
X176878882Y-108838856D01*
X176878882Y-108838856D02*
X176878882Y-109032380D01*
X176878882Y-109032380D02*
X176927263Y-109129142D01*
X176927263Y-109129142D02*
X176975644Y-109177523D01*
X176975644Y-109177523D02*
X177072406Y-109225904D01*
X177072406Y-109225904D02*
X177265930Y-109225904D01*
X177265930Y-109225904D02*
X177362692Y-109177523D01*
X177362692Y-109177523D02*
X177411073Y-109129142D01*
X177411073Y-109129142D02*
X177459453Y-109032380D01*
X177459453Y-109032380D02*
X177459453Y-108838856D01*
X177459453Y-108838856D02*
X177411073Y-108742094D01*
X177411073Y-108742094D02*
X177362692Y-108693713D01*
X177362692Y-108693713D02*
X177265930Y-108645332D01*
X177265930Y-108645332D02*
X177072406Y-108645332D01*
X177072406Y-108645332D02*
X176975644Y-108693713D01*
X176975644Y-108693713D02*
X176927263Y-108742094D01*
X176927263Y-108742094D02*
X176878882Y-108838856D01*
X191443453Y-100183847D02*
X191443453Y-99574247D01*
X191443453Y-99574247D02*
X192459453Y-100093132D01*
X161411073Y-111354666D02*
X161459453Y-111209523D01*
X161459453Y-111209523D02*
X161459453Y-110967618D01*
X161459453Y-110967618D02*
X161411073Y-110870856D01*
X161411073Y-110870856D02*
X161362692Y-110822475D01*
X161362692Y-110822475D02*
X161265930Y-110774094D01*
X161265930Y-110774094D02*
X161169168Y-110774094D01*
X161169168Y-110774094D02*
X161072406Y-110822475D01*
X161072406Y-110822475D02*
X161024025Y-110870856D01*
X161024025Y-110870856D02*
X160975644Y-110967618D01*
X160975644Y-110967618D02*
X160927263Y-111161142D01*
X160927263Y-111161142D02*
X160878882Y-111257904D01*
X160878882Y-111257904D02*
X160830501Y-111306285D01*
X160830501Y-111306285D02*
X160733739Y-111354666D01*
X160733739Y-111354666D02*
X160636977Y-111354666D01*
X160636977Y-111354666D02*
X160540215Y-111306285D01*
X160540215Y-111306285D02*
X160491834Y-111257904D01*
X160491834Y-111257904D02*
X160443453Y-111161142D01*
X160443453Y-111161142D02*
X160443453Y-110919237D01*
X160443453Y-110919237D02*
X160491834Y-110774094D01*
X160443453Y-110435428D02*
X161459453Y-110193523D01*
X161459453Y-110193523D02*
X160733739Y-109999999D01*
X160733739Y-109999999D02*
X161459453Y-109806475D01*
X161459453Y-109806475D02*
X160443453Y-109564571D01*
X161459453Y-109129142D02*
X161459453Y-108935618D01*
X161459453Y-108935618D02*
X161411073Y-108838856D01*
X161411073Y-108838856D02*
X161362692Y-108790475D01*
X161362692Y-108790475D02*
X161217549Y-108693713D01*
X161217549Y-108693713D02*
X161024025Y-108645332D01*
X161024025Y-108645332D02*
X160636977Y-108645332D01*
X160636977Y-108645332D02*
X160540215Y-108693713D01*
X160540215Y-108693713D02*
X160491834Y-108742094D01*
X160491834Y-108742094D02*
X160443453Y-108838856D01*
X160443453Y-108838856D02*
X160443453Y-109032380D01*
X160443453Y-109032380D02*
X160491834Y-109129142D01*
X160491834Y-109129142D02*
X160540215Y-109177523D01*
X160540215Y-109177523D02*
X160636977Y-109225904D01*
X160636977Y-109225904D02*
X160878882Y-109225904D01*
X160878882Y-109225904D02*
X160975644Y-109177523D01*
X160975644Y-109177523D02*
X161024025Y-109129142D01*
X161024025Y-109129142D02*
X161072406Y-109032380D01*
X161072406Y-109032380D02*
X161072406Y-108838856D01*
X161072406Y-108838856D02*
X161024025Y-108742094D01*
X161024025Y-108742094D02*
X160975644Y-108693713D01*
X160975644Y-108693713D02*
X160878882Y-108645332D01*
X175878882Y-100020561D02*
X175830501Y-100101599D01*
X175830501Y-100101599D02*
X175782120Y-100139094D01*
X175782120Y-100139094D02*
X175685358Y-100170542D01*
X175685358Y-100170542D02*
X175636977Y-100164494D01*
X175636977Y-100164494D02*
X175540215Y-100108856D01*
X175540215Y-100108856D02*
X175491834Y-100059266D01*
X175491834Y-100059266D02*
X175443453Y-99966132D01*
X175443453Y-99966132D02*
X175443453Y-99791961D01*
X175443453Y-99791961D02*
X175491834Y-99710923D01*
X175491834Y-99710923D02*
X175540215Y-99673428D01*
X175540215Y-99673428D02*
X175636977Y-99641980D01*
X175636977Y-99641980D02*
X175685358Y-99648028D01*
X175685358Y-99648028D02*
X175782120Y-99703666D01*
X175782120Y-99703666D02*
X175830501Y-99753256D01*
X175830501Y-99753256D02*
X175878882Y-99846389D01*
X175878882Y-99846389D02*
X175878882Y-100020561D01*
X175878882Y-100020561D02*
X175927263Y-100113694D01*
X175927263Y-100113694D02*
X175975644Y-100163285D01*
X175975644Y-100163285D02*
X176072406Y-100218923D01*
X176072406Y-100218923D02*
X176265930Y-100243113D01*
X176265930Y-100243113D02*
X176362692Y-100211666D01*
X176362692Y-100211666D02*
X176411073Y-100174170D01*
X176411073Y-100174170D02*
X176459453Y-100093132D01*
X176459453Y-100093132D02*
X176459453Y-99918961D01*
X176459453Y-99918961D02*
X176411073Y-99825828D01*
X176411073Y-99825828D02*
X176362692Y-99776237D01*
X176362692Y-99776237D02*
X176265930Y-99720599D01*
X176265930Y-99720599D02*
X176072406Y-99696408D01*
X176072406Y-99696408D02*
X175975644Y-99727856D01*
X175975644Y-99727856D02*
X175927263Y-99765351D01*
X175927263Y-99765351D02*
X175878882Y-99846389D01*
X145411073Y-111838476D02*
X145459453Y-111693333D01*
X145459453Y-111693333D02*
X145459453Y-111451428D01*
X145459453Y-111451428D02*
X145411073Y-111354666D01*
X145411073Y-111354666D02*
X145362692Y-111306285D01*
X145362692Y-111306285D02*
X145265930Y-111257904D01*
X145265930Y-111257904D02*
X145169168Y-111257904D01*
X145169168Y-111257904D02*
X145072406Y-111306285D01*
X145072406Y-111306285D02*
X145024025Y-111354666D01*
X145024025Y-111354666D02*
X144975644Y-111451428D01*
X144975644Y-111451428D02*
X144927263Y-111644952D01*
X144927263Y-111644952D02*
X144878882Y-111741714D01*
X144878882Y-111741714D02*
X144830501Y-111790095D01*
X144830501Y-111790095D02*
X144733739Y-111838476D01*
X144733739Y-111838476D02*
X144636977Y-111838476D01*
X144636977Y-111838476D02*
X144540215Y-111790095D01*
X144540215Y-111790095D02*
X144491834Y-111741714D01*
X144491834Y-111741714D02*
X144443453Y-111644952D01*
X144443453Y-111644952D02*
X144443453Y-111403047D01*
X144443453Y-111403047D02*
X144491834Y-111257904D01*
X144443453Y-110919238D02*
X145459453Y-110677333D01*
X145459453Y-110677333D02*
X144733739Y-110483809D01*
X144733739Y-110483809D02*
X145459453Y-110290285D01*
X145459453Y-110290285D02*
X144443453Y-110048381D01*
X145459453Y-109129142D02*
X145459453Y-109709714D01*
X145459453Y-109419428D02*
X144443453Y-109419428D01*
X144443453Y-109419428D02*
X144588596Y-109516190D01*
X144588596Y-109516190D02*
X144685358Y-109612952D01*
X144685358Y-109612952D02*
X144733739Y-109709714D01*
X144443453Y-108500190D02*
X144443453Y-108403428D01*
X144443453Y-108403428D02*
X144491834Y-108306666D01*
X144491834Y-108306666D02*
X144540215Y-108258285D01*
X144540215Y-108258285D02*
X144636977Y-108209904D01*
X144636977Y-108209904D02*
X144830501Y-108161523D01*
X144830501Y-108161523D02*
X145072406Y-108161523D01*
X145072406Y-108161523D02*
X145265930Y-108209904D01*
X145265930Y-108209904D02*
X145362692Y-108258285D01*
X145362692Y-108258285D02*
X145411073Y-108306666D01*
X145411073Y-108306666D02*
X145459453Y-108403428D01*
X145459453Y-108403428D02*
X145459453Y-108500190D01*
X145459453Y-108500190D02*
X145411073Y-108596952D01*
X145411073Y-108596952D02*
X145362692Y-108645333D01*
X145362692Y-108645333D02*
X145265930Y-108693714D01*
X145265930Y-108693714D02*
X145072406Y-108742095D01*
X145072406Y-108742095D02*
X144830501Y-108742095D01*
X144830501Y-108742095D02*
X144636977Y-108693714D01*
X144636977Y-108693714D02*
X144540215Y-108645333D01*
X144540215Y-108645333D02*
X144491834Y-108596952D01*
X144491834Y-108596952D02*
X144443453Y-108500190D01*
X160459453Y-100180218D02*
X160459453Y-100006047D01*
X160459453Y-100006047D02*
X160411073Y-99912913D01*
X160411073Y-99912913D02*
X160362692Y-99863323D01*
X160362692Y-99863323D02*
X160217549Y-99758094D01*
X160217549Y-99758094D02*
X160024025Y-99690361D01*
X160024025Y-99690361D02*
X159636977Y-99641980D01*
X159636977Y-99641980D02*
X159540215Y-99673428D01*
X159540215Y-99673428D02*
X159491834Y-99710923D01*
X159491834Y-99710923D02*
X159443453Y-99791961D01*
X159443453Y-99791961D02*
X159443453Y-99966132D01*
X159443453Y-99966132D02*
X159491834Y-100059266D01*
X159491834Y-100059266D02*
X159540215Y-100108856D01*
X159540215Y-100108856D02*
X159636977Y-100164494D01*
X159636977Y-100164494D02*
X159878882Y-100194732D01*
X159878882Y-100194732D02*
X159975644Y-100163285D01*
X159975644Y-100163285D02*
X160024025Y-100125789D01*
X160024025Y-100125789D02*
X160072406Y-100044751D01*
X160072406Y-100044751D02*
X160072406Y-99870580D01*
X160072406Y-99870580D02*
X160024025Y-99777447D01*
X160024025Y-99777447D02*
X159975644Y-99727856D01*
X159975644Y-99727856D02*
X159878882Y-99672218D01*
X129411073Y-111838476D02*
X129459453Y-111693333D01*
X129459453Y-111693333D02*
X129459453Y-111451428D01*
X129459453Y-111451428D02*
X129411073Y-111354666D01*
X129411073Y-111354666D02*
X129362692Y-111306285D01*
X129362692Y-111306285D02*
X129265930Y-111257904D01*
X129265930Y-111257904D02*
X129169168Y-111257904D01*
X129169168Y-111257904D02*
X129072406Y-111306285D01*
X129072406Y-111306285D02*
X129024025Y-111354666D01*
X129024025Y-111354666D02*
X128975644Y-111451428D01*
X128975644Y-111451428D02*
X128927263Y-111644952D01*
X128927263Y-111644952D02*
X128878882Y-111741714D01*
X128878882Y-111741714D02*
X128830501Y-111790095D01*
X128830501Y-111790095D02*
X128733739Y-111838476D01*
X128733739Y-111838476D02*
X128636977Y-111838476D01*
X128636977Y-111838476D02*
X128540215Y-111790095D01*
X128540215Y-111790095D02*
X128491834Y-111741714D01*
X128491834Y-111741714D02*
X128443453Y-111644952D01*
X128443453Y-111644952D02*
X128443453Y-111403047D01*
X128443453Y-111403047D02*
X128491834Y-111257904D01*
X128443453Y-110919238D02*
X129459453Y-110677333D01*
X129459453Y-110677333D02*
X128733739Y-110483809D01*
X128733739Y-110483809D02*
X129459453Y-110290285D01*
X129459453Y-110290285D02*
X128443453Y-110048381D01*
X129459453Y-109129142D02*
X129459453Y-109709714D01*
X129459453Y-109419428D02*
X128443453Y-109419428D01*
X128443453Y-109419428D02*
X128588596Y-109516190D01*
X128588596Y-109516190D02*
X128685358Y-109612952D01*
X128685358Y-109612952D02*
X128733739Y-109709714D01*
X129459453Y-108161523D02*
X129459453Y-108742095D01*
X129459453Y-108451809D02*
X128443453Y-108451809D01*
X128443453Y-108451809D02*
X128588596Y-108548571D01*
X128588596Y-108548571D02*
X128685358Y-108645333D01*
X128685358Y-108645333D02*
X128733739Y-108742095D01*
X144169168Y-100187475D02*
X144169168Y-99752046D01*
X144459453Y-100310846D02*
X143443453Y-99879046D01*
X143443453Y-99879046D02*
X144459453Y-99701246D01*
X129411073Y-96838476D02*
X129459453Y-96693333D01*
X129459453Y-96693333D02*
X129459453Y-96451428D01*
X129459453Y-96451428D02*
X129411073Y-96354666D01*
X129411073Y-96354666D02*
X129362692Y-96306285D01*
X129362692Y-96306285D02*
X129265930Y-96257904D01*
X129265930Y-96257904D02*
X129169168Y-96257904D01*
X129169168Y-96257904D02*
X129072406Y-96306285D01*
X129072406Y-96306285D02*
X129024025Y-96354666D01*
X129024025Y-96354666D02*
X128975644Y-96451428D01*
X128975644Y-96451428D02*
X128927263Y-96644952D01*
X128927263Y-96644952D02*
X128878882Y-96741714D01*
X128878882Y-96741714D02*
X128830501Y-96790095D01*
X128830501Y-96790095D02*
X128733739Y-96838476D01*
X128733739Y-96838476D02*
X128636977Y-96838476D01*
X128636977Y-96838476D02*
X128540215Y-96790095D01*
X128540215Y-96790095D02*
X128491834Y-96741714D01*
X128491834Y-96741714D02*
X128443453Y-96644952D01*
X128443453Y-96644952D02*
X128443453Y-96403047D01*
X128443453Y-96403047D02*
X128491834Y-96257904D01*
X128443453Y-95919238D02*
X129459453Y-95677333D01*
X129459453Y-95677333D02*
X128733739Y-95483809D01*
X128733739Y-95483809D02*
X129459453Y-95290285D01*
X129459453Y-95290285D02*
X128443453Y-95048381D01*
X129459453Y-94129142D02*
X129459453Y-94709714D01*
X129459453Y-94419428D02*
X128443453Y-94419428D01*
X128443453Y-94419428D02*
X128588596Y-94516190D01*
X128588596Y-94516190D02*
X128685358Y-94612952D01*
X128685358Y-94612952D02*
X128733739Y-94709714D01*
X128540215Y-93742095D02*
X128491834Y-93693714D01*
X128491834Y-93693714D02*
X128443453Y-93596952D01*
X128443453Y-93596952D02*
X128443453Y-93355047D01*
X128443453Y-93355047D02*
X128491834Y-93258285D01*
X128491834Y-93258285D02*
X128540215Y-93209904D01*
X128540215Y-93209904D02*
X128636977Y-93161523D01*
X128636977Y-93161523D02*
X128733739Y-93161523D01*
X128733739Y-93161523D02*
X128878882Y-93209904D01*
X128878882Y-93209904D02*
X129459453Y-93790476D01*
X129459453Y-93790476D02*
X129459453Y-93161523D01*
X143927263Y-83874209D02*
X143975644Y-83749628D01*
X143975644Y-83749628D02*
X144024025Y-83712133D01*
X144024025Y-83712133D02*
X144120787Y-83680685D01*
X144120787Y-83680685D02*
X144265930Y-83698828D01*
X144265930Y-83698828D02*
X144362692Y-83754466D01*
X144362692Y-83754466D02*
X144411073Y-83804057D01*
X144411073Y-83804057D02*
X144459453Y-83897190D01*
X144459453Y-83897190D02*
X144459453Y-84245533D01*
X144459453Y-84245533D02*
X143443453Y-84118533D01*
X143443453Y-84118533D02*
X143443453Y-83813733D01*
X143443453Y-83813733D02*
X143491834Y-83732695D01*
X143491834Y-83732695D02*
X143540215Y-83695200D01*
X143540215Y-83695200D02*
X143636977Y-83663752D01*
X143636977Y-83663752D02*
X143733739Y-83675847D01*
X143733739Y-83675847D02*
X143830501Y-83731485D01*
X143830501Y-83731485D02*
X143878882Y-83781076D01*
X143878882Y-83781076D02*
X143927263Y-83874209D01*
X143927263Y-83874209D02*
X143927263Y-84179009D01*
X129411073Y-79838476D02*
X129459453Y-79693333D01*
X129459453Y-79693333D02*
X129459453Y-79451428D01*
X129459453Y-79451428D02*
X129411073Y-79354666D01*
X129411073Y-79354666D02*
X129362692Y-79306285D01*
X129362692Y-79306285D02*
X129265930Y-79257904D01*
X129265930Y-79257904D02*
X129169168Y-79257904D01*
X129169168Y-79257904D02*
X129072406Y-79306285D01*
X129072406Y-79306285D02*
X129024025Y-79354666D01*
X129024025Y-79354666D02*
X128975644Y-79451428D01*
X128975644Y-79451428D02*
X128927263Y-79644952D01*
X128927263Y-79644952D02*
X128878882Y-79741714D01*
X128878882Y-79741714D02*
X128830501Y-79790095D01*
X128830501Y-79790095D02*
X128733739Y-79838476D01*
X128733739Y-79838476D02*
X128636977Y-79838476D01*
X128636977Y-79838476D02*
X128540215Y-79790095D01*
X128540215Y-79790095D02*
X128491834Y-79741714D01*
X128491834Y-79741714D02*
X128443453Y-79644952D01*
X128443453Y-79644952D02*
X128443453Y-79403047D01*
X128443453Y-79403047D02*
X128491834Y-79257904D01*
X128443453Y-78919238D02*
X129459453Y-78677333D01*
X129459453Y-78677333D02*
X128733739Y-78483809D01*
X128733739Y-78483809D02*
X129459453Y-78290285D01*
X129459453Y-78290285D02*
X128443453Y-78048381D01*
X129459453Y-77129142D02*
X129459453Y-77709714D01*
X129459453Y-77419428D02*
X128443453Y-77419428D01*
X128443453Y-77419428D02*
X128588596Y-77516190D01*
X128588596Y-77516190D02*
X128685358Y-77612952D01*
X128685358Y-77612952D02*
X128733739Y-77709714D01*
X128443453Y-76790476D02*
X128443453Y-76161523D01*
X128443453Y-76161523D02*
X128830501Y-76500190D01*
X128830501Y-76500190D02*
X128830501Y-76355047D01*
X128830501Y-76355047D02*
X128878882Y-76258285D01*
X128878882Y-76258285D02*
X128927263Y-76209904D01*
X128927263Y-76209904D02*
X129024025Y-76161523D01*
X129024025Y-76161523D02*
X129265930Y-76161523D01*
X129265930Y-76161523D02*
X129362692Y-76209904D01*
X129362692Y-76209904D02*
X129411073Y-76258285D01*
X129411073Y-76258285D02*
X129459453Y-76355047D01*
X129459453Y-76355047D02*
X129459453Y-76645333D01*
X129459453Y-76645333D02*
X129411073Y-76742095D01*
X129411073Y-76742095D02*
X129362692Y-76790476D01*
X144362692Y-67710923D02*
X144411073Y-67760514D01*
X144411073Y-67760514D02*
X144459453Y-67897190D01*
X144459453Y-67897190D02*
X144459453Y-67984276D01*
X144459453Y-67984276D02*
X144411073Y-68108857D01*
X144411073Y-68108857D02*
X144314311Y-68183847D01*
X144314311Y-68183847D02*
X144217549Y-68215295D01*
X144217549Y-68215295D02*
X144024025Y-68234647D01*
X144024025Y-68234647D02*
X143878882Y-68216504D01*
X143878882Y-68216504D02*
X143685358Y-68148771D01*
X143685358Y-68148771D02*
X143588596Y-68093133D01*
X143588596Y-68093133D02*
X143491834Y-67993952D01*
X143491834Y-67993952D02*
X143443453Y-67857276D01*
X143443453Y-67857276D02*
X143443453Y-67770190D01*
X143443453Y-67770190D02*
X143491834Y-67645609D01*
X143491834Y-67645609D02*
X143540215Y-67608114D01*
X129411073Y-63838476D02*
X129459453Y-63693333D01*
X129459453Y-63693333D02*
X129459453Y-63451428D01*
X129459453Y-63451428D02*
X129411073Y-63354666D01*
X129411073Y-63354666D02*
X129362692Y-63306285D01*
X129362692Y-63306285D02*
X129265930Y-63257904D01*
X129265930Y-63257904D02*
X129169168Y-63257904D01*
X129169168Y-63257904D02*
X129072406Y-63306285D01*
X129072406Y-63306285D02*
X129024025Y-63354666D01*
X129024025Y-63354666D02*
X128975644Y-63451428D01*
X128975644Y-63451428D02*
X128927263Y-63644952D01*
X128927263Y-63644952D02*
X128878882Y-63741714D01*
X128878882Y-63741714D02*
X128830501Y-63790095D01*
X128830501Y-63790095D02*
X128733739Y-63838476D01*
X128733739Y-63838476D02*
X128636977Y-63838476D01*
X128636977Y-63838476D02*
X128540215Y-63790095D01*
X128540215Y-63790095D02*
X128491834Y-63741714D01*
X128491834Y-63741714D02*
X128443453Y-63644952D01*
X128443453Y-63644952D02*
X128443453Y-63403047D01*
X128443453Y-63403047D02*
X128491834Y-63257904D01*
X128443453Y-62919238D02*
X129459453Y-62677333D01*
X129459453Y-62677333D02*
X128733739Y-62483809D01*
X128733739Y-62483809D02*
X129459453Y-62290285D01*
X129459453Y-62290285D02*
X128443453Y-62048381D01*
X129459453Y-61129142D02*
X129459453Y-61709714D01*
X129459453Y-61419428D02*
X128443453Y-61419428D01*
X128443453Y-61419428D02*
X128588596Y-61516190D01*
X128588596Y-61516190D02*
X128685358Y-61612952D01*
X128685358Y-61612952D02*
X128733739Y-61709714D01*
X128782120Y-60258285D02*
X129459453Y-60258285D01*
X128395073Y-60500190D02*
X129120787Y-60742095D01*
X129120787Y-60742095D02*
X129120787Y-60113142D01*
X144459453Y-52245533D02*
X143443453Y-52118533D01*
X143443453Y-52118533D02*
X143443453Y-51900819D01*
X143443453Y-51900819D02*
X143491834Y-51776238D01*
X143491834Y-51776238D02*
X143588596Y-51701247D01*
X143588596Y-51701247D02*
X143685358Y-51669800D01*
X143685358Y-51669800D02*
X143878882Y-51650447D01*
X143878882Y-51650447D02*
X144024025Y-51668590D01*
X144024025Y-51668590D02*
X144217549Y-51736323D01*
X144217549Y-51736323D02*
X144314311Y-51791961D01*
X144314311Y-51791961D02*
X144411073Y-51891142D01*
X144411073Y-51891142D02*
X144459453Y-52027819D01*
X144459453Y-52027819D02*
X144459453Y-52245533D01*
X145411073Y-63838476D02*
X145459453Y-63693333D01*
X145459453Y-63693333D02*
X145459453Y-63451428D01*
X145459453Y-63451428D02*
X145411073Y-63354666D01*
X145411073Y-63354666D02*
X145362692Y-63306285D01*
X145362692Y-63306285D02*
X145265930Y-63257904D01*
X145265930Y-63257904D02*
X145169168Y-63257904D01*
X145169168Y-63257904D02*
X145072406Y-63306285D01*
X145072406Y-63306285D02*
X145024025Y-63354666D01*
X145024025Y-63354666D02*
X144975644Y-63451428D01*
X144975644Y-63451428D02*
X144927263Y-63644952D01*
X144927263Y-63644952D02*
X144878882Y-63741714D01*
X144878882Y-63741714D02*
X144830501Y-63790095D01*
X144830501Y-63790095D02*
X144733739Y-63838476D01*
X144733739Y-63838476D02*
X144636977Y-63838476D01*
X144636977Y-63838476D02*
X144540215Y-63790095D01*
X144540215Y-63790095D02*
X144491834Y-63741714D01*
X144491834Y-63741714D02*
X144443453Y-63644952D01*
X144443453Y-63644952D02*
X144443453Y-63403047D01*
X144443453Y-63403047D02*
X144491834Y-63257904D01*
X144443453Y-62919238D02*
X145459453Y-62677333D01*
X145459453Y-62677333D02*
X144733739Y-62483809D01*
X144733739Y-62483809D02*
X145459453Y-62290285D01*
X145459453Y-62290285D02*
X144443453Y-62048381D01*
X145459453Y-61129142D02*
X145459453Y-61709714D01*
X145459453Y-61419428D02*
X144443453Y-61419428D01*
X144443453Y-61419428D02*
X144588596Y-61516190D01*
X144588596Y-61516190D02*
X144685358Y-61612952D01*
X144685358Y-61612952D02*
X144733739Y-61709714D01*
X144443453Y-60209904D02*
X144443453Y-60693714D01*
X144443453Y-60693714D02*
X144927263Y-60742095D01*
X144927263Y-60742095D02*
X144878882Y-60693714D01*
X144878882Y-60693714D02*
X144830501Y-60596952D01*
X144830501Y-60596952D02*
X144830501Y-60355047D01*
X144830501Y-60355047D02*
X144878882Y-60258285D01*
X144878882Y-60258285D02*
X144927263Y-60209904D01*
X144927263Y-60209904D02*
X145024025Y-60161523D01*
X145024025Y-60161523D02*
X145265930Y-60161523D01*
X145265930Y-60161523D02*
X145362692Y-60209904D01*
X145362692Y-60209904D02*
X145411073Y-60258285D01*
X145411073Y-60258285D02*
X145459453Y-60355047D01*
X145459453Y-60355047D02*
X145459453Y-60596952D01*
X145459453Y-60596952D02*
X145411073Y-60693714D01*
X145411073Y-60693714D02*
X145362692Y-60742095D01*
X159927263Y-52135466D02*
X159927263Y-51830666D01*
X160459453Y-51766561D02*
X160459453Y-52201990D01*
X160459453Y-52201990D02*
X159443453Y-52074990D01*
X159443453Y-52074990D02*
X159443453Y-51639561D01*
X161411073Y-63838476D02*
X161459453Y-63693333D01*
X161459453Y-63693333D02*
X161459453Y-63451428D01*
X161459453Y-63451428D02*
X161411073Y-63354666D01*
X161411073Y-63354666D02*
X161362692Y-63306285D01*
X161362692Y-63306285D02*
X161265930Y-63257904D01*
X161265930Y-63257904D02*
X161169168Y-63257904D01*
X161169168Y-63257904D02*
X161072406Y-63306285D01*
X161072406Y-63306285D02*
X161024025Y-63354666D01*
X161024025Y-63354666D02*
X160975644Y-63451428D01*
X160975644Y-63451428D02*
X160927263Y-63644952D01*
X160927263Y-63644952D02*
X160878882Y-63741714D01*
X160878882Y-63741714D02*
X160830501Y-63790095D01*
X160830501Y-63790095D02*
X160733739Y-63838476D01*
X160733739Y-63838476D02*
X160636977Y-63838476D01*
X160636977Y-63838476D02*
X160540215Y-63790095D01*
X160540215Y-63790095D02*
X160491834Y-63741714D01*
X160491834Y-63741714D02*
X160443453Y-63644952D01*
X160443453Y-63644952D02*
X160443453Y-63403047D01*
X160443453Y-63403047D02*
X160491834Y-63257904D01*
X160443453Y-62919238D02*
X161459453Y-62677333D01*
X161459453Y-62677333D02*
X160733739Y-62483809D01*
X160733739Y-62483809D02*
X161459453Y-62290285D01*
X161459453Y-62290285D02*
X160443453Y-62048381D01*
X161459453Y-61129142D02*
X161459453Y-61709714D01*
X161459453Y-61419428D02*
X160443453Y-61419428D01*
X160443453Y-61419428D02*
X160588596Y-61516190D01*
X160588596Y-61516190D02*
X160685358Y-61612952D01*
X160685358Y-61612952D02*
X160733739Y-61709714D01*
X160443453Y-60258285D02*
X160443453Y-60451809D01*
X160443453Y-60451809D02*
X160491834Y-60548571D01*
X160491834Y-60548571D02*
X160540215Y-60596952D01*
X160540215Y-60596952D02*
X160685358Y-60693714D01*
X160685358Y-60693714D02*
X160878882Y-60742095D01*
X160878882Y-60742095D02*
X161265930Y-60742095D01*
X161265930Y-60742095D02*
X161362692Y-60693714D01*
X161362692Y-60693714D02*
X161411073Y-60645333D01*
X161411073Y-60645333D02*
X161459453Y-60548571D01*
X161459453Y-60548571D02*
X161459453Y-60355047D01*
X161459453Y-60355047D02*
X161411073Y-60258285D01*
X161411073Y-60258285D02*
X161362692Y-60209904D01*
X161362692Y-60209904D02*
X161265930Y-60161523D01*
X161265930Y-60161523D02*
X161024025Y-60161523D01*
X161024025Y-60161523D02*
X160927263Y-60209904D01*
X160927263Y-60209904D02*
X160878882Y-60258285D01*
X160878882Y-60258285D02*
X160830501Y-60355047D01*
X160830501Y-60355047D02*
X160830501Y-60548571D01*
X160830501Y-60548571D02*
X160878882Y-60645333D01*
X160878882Y-60645333D02*
X160927263Y-60693714D01*
X160927263Y-60693714D02*
X161024025Y-60742095D01*
X175927263Y-51808894D02*
X175927263Y-52113694D01*
X176459453Y-52180218D02*
X175443453Y-52053218D01*
X175443453Y-52053218D02*
X175443453Y-51617789D01*
X113411073Y-111838476D02*
X113459453Y-111693333D01*
X113459453Y-111693333D02*
X113459453Y-111451428D01*
X113459453Y-111451428D02*
X113411073Y-111354666D01*
X113411073Y-111354666D02*
X113362692Y-111306285D01*
X113362692Y-111306285D02*
X113265930Y-111257904D01*
X113265930Y-111257904D02*
X113169168Y-111257904D01*
X113169168Y-111257904D02*
X113072406Y-111306285D01*
X113072406Y-111306285D02*
X113024025Y-111354666D01*
X113024025Y-111354666D02*
X112975644Y-111451428D01*
X112975644Y-111451428D02*
X112927263Y-111644952D01*
X112927263Y-111644952D02*
X112878882Y-111741714D01*
X112878882Y-111741714D02*
X112830501Y-111790095D01*
X112830501Y-111790095D02*
X112733739Y-111838476D01*
X112733739Y-111838476D02*
X112636977Y-111838476D01*
X112636977Y-111838476D02*
X112540215Y-111790095D01*
X112540215Y-111790095D02*
X112491834Y-111741714D01*
X112491834Y-111741714D02*
X112443453Y-111644952D01*
X112443453Y-111644952D02*
X112443453Y-111403047D01*
X112443453Y-111403047D02*
X112491834Y-111257904D01*
X112443453Y-110919238D02*
X113459453Y-110677333D01*
X113459453Y-110677333D02*
X112733739Y-110483809D01*
X112733739Y-110483809D02*
X113459453Y-110290285D01*
X113459453Y-110290285D02*
X112443453Y-110048381D01*
X113459453Y-109129142D02*
X113459453Y-109709714D01*
X113459453Y-109419428D02*
X112443453Y-109419428D01*
X112443453Y-109419428D02*
X112588596Y-109516190D01*
X112588596Y-109516190D02*
X112685358Y-109612952D01*
X112685358Y-109612952D02*
X112733739Y-109709714D01*
X112443453Y-108790476D02*
X112443453Y-108113142D01*
X112443453Y-108113142D02*
X113459453Y-108548571D01*
X128362692Y-105519436D02*
X128411073Y-105569027D01*
X128411073Y-105569027D02*
X128459453Y-105705703D01*
X128459453Y-105705703D02*
X128459453Y-105792789D01*
X128459453Y-105792789D02*
X128411073Y-105917370D01*
X128411073Y-105917370D02*
X128314311Y-105992360D01*
X128314311Y-105992360D02*
X128217549Y-106023808D01*
X128217549Y-106023808D02*
X128024025Y-106043160D01*
X128024025Y-106043160D02*
X127878882Y-106025017D01*
X127878882Y-106025017D02*
X127685358Y-105957284D01*
X127685358Y-105957284D02*
X127588596Y-105901646D01*
X127588596Y-105901646D02*
X127491834Y-105802465D01*
X127491834Y-105802465D02*
X127443453Y-105665789D01*
X127443453Y-105665789D02*
X127443453Y-105578703D01*
X127443453Y-105578703D02*
X127491834Y-105454122D01*
X127491834Y-105454122D02*
X127540215Y-105416627D01*
X128459453Y-105009017D02*
X128411073Y-105090055D01*
X128411073Y-105090055D02*
X128362692Y-105127551D01*
X128362692Y-105127551D02*
X128265930Y-105158998D01*
X128265930Y-105158998D02*
X127975644Y-105122713D01*
X127975644Y-105122713D02*
X127878882Y-105067074D01*
X127878882Y-105067074D02*
X127830501Y-105017484D01*
X127830501Y-105017484D02*
X127782120Y-104924351D01*
X127782120Y-104924351D02*
X127782120Y-104793722D01*
X127782120Y-104793722D02*
X127830501Y-104712684D01*
X127830501Y-104712684D02*
X127878882Y-104675189D01*
X127878882Y-104675189D02*
X127975644Y-104643741D01*
X127975644Y-104643741D02*
X128265930Y-104680027D01*
X128265930Y-104680027D02*
X128362692Y-104735665D01*
X128362692Y-104735665D02*
X128411073Y-104785255D01*
X128411073Y-104785255D02*
X128459453Y-104878389D01*
X128459453Y-104878389D02*
X128459453Y-105009017D01*
X127782120Y-104227665D02*
X128459453Y-104312332D01*
X127878882Y-104239760D02*
X127830501Y-104190170D01*
X127830501Y-104190170D02*
X127782120Y-104097037D01*
X127782120Y-104097037D02*
X127782120Y-103966408D01*
X127782120Y-103966408D02*
X127830501Y-103885370D01*
X127830501Y-103885370D02*
X127927263Y-103853922D01*
X127927263Y-103853922D02*
X128459453Y-103920446D01*
X127782120Y-103530980D02*
X127782120Y-103182637D01*
X127443453Y-103358018D02*
X128314311Y-103466875D01*
X128314311Y-103466875D02*
X128411073Y-103435427D01*
X128411073Y-103435427D02*
X128459453Y-103354389D01*
X128459453Y-103354389D02*
X128459453Y-103267304D01*
X128459453Y-102962504D02*
X127782120Y-102877837D01*
X127975644Y-102902028D02*
X127878882Y-102846390D01*
X127878882Y-102846390D02*
X127830501Y-102796799D01*
X127830501Y-102796799D02*
X127782120Y-102703666D01*
X127782120Y-102703666D02*
X127782120Y-102616580D01*
X128459453Y-102265818D02*
X128411073Y-102346856D01*
X128411073Y-102346856D02*
X128362692Y-102384352D01*
X128362692Y-102384352D02*
X128265930Y-102415799D01*
X128265930Y-102415799D02*
X127975644Y-102379514D01*
X127975644Y-102379514D02*
X127878882Y-102323875D01*
X127878882Y-102323875D02*
X127830501Y-102274285D01*
X127830501Y-102274285D02*
X127782120Y-102181152D01*
X127782120Y-102181152D02*
X127782120Y-102050523D01*
X127782120Y-102050523D02*
X127830501Y-101969485D01*
X127830501Y-101969485D02*
X127878882Y-101931990D01*
X127878882Y-101931990D02*
X127975644Y-101900542D01*
X127975644Y-101900542D02*
X128265930Y-101936828D01*
X128265930Y-101936828D02*
X128362692Y-101992466D01*
X128362692Y-101992466D02*
X128411073Y-102042056D01*
X128411073Y-102042056D02*
X128459453Y-102135190D01*
X128459453Y-102135190D02*
X128459453Y-102265818D01*
X128459453Y-101438504D02*
X128411073Y-101519542D01*
X128411073Y-101519542D02*
X128314311Y-101550990D01*
X128314311Y-101550990D02*
X127443453Y-101442133D01*
X128556215Y-101319971D02*
X128556215Y-100623286D01*
X127443453Y-100092304D02*
X127443453Y-100005219D01*
X127443453Y-100005219D02*
X127491834Y-99924181D01*
X127491834Y-99924181D02*
X127540215Y-99886685D01*
X127540215Y-99886685D02*
X127636977Y-99855238D01*
X127636977Y-99855238D02*
X127830501Y-99835885D01*
X127830501Y-99835885D02*
X128072406Y-99866123D01*
X128072406Y-99866123D02*
X128265930Y-99933857D01*
X128265930Y-99933857D02*
X128362692Y-99989495D01*
X128362692Y-99989495D02*
X128411073Y-100039085D01*
X128411073Y-100039085D02*
X128459453Y-100132219D01*
X128459453Y-100132219D02*
X128459453Y-100219304D01*
X128459453Y-100219304D02*
X128411073Y-100300343D01*
X128411073Y-100300343D02*
X128362692Y-100337838D01*
X128362692Y-100337838D02*
X128265930Y-100369285D01*
X128265930Y-100369285D02*
X128072406Y-100388638D01*
X128072406Y-100388638D02*
X127830501Y-100358400D01*
X127830501Y-100358400D02*
X127636977Y-100290666D01*
X127636977Y-100290666D02*
X127540215Y-100235028D01*
X127540215Y-100235028D02*
X127491834Y-100185438D01*
X127491834Y-100185438D02*
X127443453Y-100092304D01*
X113411073Y-95838476D02*
X113459453Y-95693333D01*
X113459453Y-95693333D02*
X113459453Y-95451428D01*
X113459453Y-95451428D02*
X113411073Y-95354666D01*
X113411073Y-95354666D02*
X113362692Y-95306285D01*
X113362692Y-95306285D02*
X113265930Y-95257904D01*
X113265930Y-95257904D02*
X113169168Y-95257904D01*
X113169168Y-95257904D02*
X113072406Y-95306285D01*
X113072406Y-95306285D02*
X113024025Y-95354666D01*
X113024025Y-95354666D02*
X112975644Y-95451428D01*
X112975644Y-95451428D02*
X112927263Y-95644952D01*
X112927263Y-95644952D02*
X112878882Y-95741714D01*
X112878882Y-95741714D02*
X112830501Y-95790095D01*
X112830501Y-95790095D02*
X112733739Y-95838476D01*
X112733739Y-95838476D02*
X112636977Y-95838476D01*
X112636977Y-95838476D02*
X112540215Y-95790095D01*
X112540215Y-95790095D02*
X112491834Y-95741714D01*
X112491834Y-95741714D02*
X112443453Y-95644952D01*
X112443453Y-95644952D02*
X112443453Y-95403047D01*
X112443453Y-95403047D02*
X112491834Y-95257904D01*
X112443453Y-94919238D02*
X113459453Y-94677333D01*
X113459453Y-94677333D02*
X112733739Y-94483809D01*
X112733739Y-94483809D02*
X113459453Y-94290285D01*
X113459453Y-94290285D02*
X112443453Y-94048381D01*
X113459453Y-93129142D02*
X113459453Y-93709714D01*
X113459453Y-93419428D02*
X112443453Y-93419428D01*
X112443453Y-93419428D02*
X112588596Y-93516190D01*
X112588596Y-93516190D02*
X112685358Y-93612952D01*
X112685358Y-93612952D02*
X112733739Y-93709714D01*
X112878882Y-92548571D02*
X112830501Y-92645333D01*
X112830501Y-92645333D02*
X112782120Y-92693714D01*
X112782120Y-92693714D02*
X112685358Y-92742095D01*
X112685358Y-92742095D02*
X112636977Y-92742095D01*
X112636977Y-92742095D02*
X112540215Y-92693714D01*
X112540215Y-92693714D02*
X112491834Y-92645333D01*
X112491834Y-92645333D02*
X112443453Y-92548571D01*
X112443453Y-92548571D02*
X112443453Y-92355047D01*
X112443453Y-92355047D02*
X112491834Y-92258285D01*
X112491834Y-92258285D02*
X112540215Y-92209904D01*
X112540215Y-92209904D02*
X112636977Y-92161523D01*
X112636977Y-92161523D02*
X112685358Y-92161523D01*
X112685358Y-92161523D02*
X112782120Y-92209904D01*
X112782120Y-92209904D02*
X112830501Y-92258285D01*
X112830501Y-92258285D02*
X112878882Y-92355047D01*
X112878882Y-92355047D02*
X112878882Y-92548571D01*
X112878882Y-92548571D02*
X112927263Y-92645333D01*
X112927263Y-92645333D02*
X112975644Y-92693714D01*
X112975644Y-92693714D02*
X113072406Y-92742095D01*
X113072406Y-92742095D02*
X113265930Y-92742095D01*
X113265930Y-92742095D02*
X113362692Y-92693714D01*
X113362692Y-92693714D02*
X113411073Y-92645333D01*
X113411073Y-92645333D02*
X113459453Y-92548571D01*
X113459453Y-92548571D02*
X113459453Y-92355047D01*
X113459453Y-92355047D02*
X113411073Y-92258285D01*
X113411073Y-92258285D02*
X113362692Y-92209904D01*
X113362692Y-92209904D02*
X113265930Y-92161523D01*
X113265930Y-92161523D02*
X113072406Y-92161523D01*
X113072406Y-92161523D02*
X112975644Y-92209904D01*
X112975644Y-92209904D02*
X112927263Y-92258285D01*
X112927263Y-92258285D02*
X112878882Y-92355047D01*
X128362692Y-89519436D02*
X128411073Y-89569027D01*
X128411073Y-89569027D02*
X128459453Y-89705703D01*
X128459453Y-89705703D02*
X128459453Y-89792789D01*
X128459453Y-89792789D02*
X128411073Y-89917370D01*
X128411073Y-89917370D02*
X128314311Y-89992360D01*
X128314311Y-89992360D02*
X128217549Y-90023808D01*
X128217549Y-90023808D02*
X128024025Y-90043160D01*
X128024025Y-90043160D02*
X127878882Y-90025017D01*
X127878882Y-90025017D02*
X127685358Y-89957284D01*
X127685358Y-89957284D02*
X127588596Y-89901646D01*
X127588596Y-89901646D02*
X127491834Y-89802465D01*
X127491834Y-89802465D02*
X127443453Y-89665789D01*
X127443453Y-89665789D02*
X127443453Y-89578703D01*
X127443453Y-89578703D02*
X127491834Y-89454122D01*
X127491834Y-89454122D02*
X127540215Y-89416627D01*
X128459453Y-89009017D02*
X128411073Y-89090055D01*
X128411073Y-89090055D02*
X128362692Y-89127551D01*
X128362692Y-89127551D02*
X128265930Y-89158998D01*
X128265930Y-89158998D02*
X127975644Y-89122713D01*
X127975644Y-89122713D02*
X127878882Y-89067074D01*
X127878882Y-89067074D02*
X127830501Y-89017484D01*
X127830501Y-89017484D02*
X127782120Y-88924351D01*
X127782120Y-88924351D02*
X127782120Y-88793722D01*
X127782120Y-88793722D02*
X127830501Y-88712684D01*
X127830501Y-88712684D02*
X127878882Y-88675189D01*
X127878882Y-88675189D02*
X127975644Y-88643741D01*
X127975644Y-88643741D02*
X128265930Y-88680027D01*
X128265930Y-88680027D02*
X128362692Y-88735665D01*
X128362692Y-88735665D02*
X128411073Y-88785255D01*
X128411073Y-88785255D02*
X128459453Y-88878389D01*
X128459453Y-88878389D02*
X128459453Y-89009017D01*
X127782120Y-88227665D02*
X128459453Y-88312332D01*
X127878882Y-88239760D02*
X127830501Y-88190170D01*
X127830501Y-88190170D02*
X127782120Y-88097037D01*
X127782120Y-88097037D02*
X127782120Y-87966408D01*
X127782120Y-87966408D02*
X127830501Y-87885370D01*
X127830501Y-87885370D02*
X127927263Y-87853922D01*
X127927263Y-87853922D02*
X128459453Y-87920446D01*
X127782120Y-87530980D02*
X127782120Y-87182637D01*
X127443453Y-87358018D02*
X128314311Y-87466875D01*
X128314311Y-87466875D02*
X128411073Y-87435427D01*
X128411073Y-87435427D02*
X128459453Y-87354389D01*
X128459453Y-87354389D02*
X128459453Y-87267304D01*
X128459453Y-86962504D02*
X127782120Y-86877837D01*
X127975644Y-86902028D02*
X127878882Y-86846390D01*
X127878882Y-86846390D02*
X127830501Y-86796799D01*
X127830501Y-86796799D02*
X127782120Y-86703666D01*
X127782120Y-86703666D02*
X127782120Y-86616580D01*
X128459453Y-86265818D02*
X128411073Y-86346856D01*
X128411073Y-86346856D02*
X128362692Y-86384352D01*
X128362692Y-86384352D02*
X128265930Y-86415799D01*
X128265930Y-86415799D02*
X127975644Y-86379514D01*
X127975644Y-86379514D02*
X127878882Y-86323875D01*
X127878882Y-86323875D02*
X127830501Y-86274285D01*
X127830501Y-86274285D02*
X127782120Y-86181152D01*
X127782120Y-86181152D02*
X127782120Y-86050523D01*
X127782120Y-86050523D02*
X127830501Y-85969485D01*
X127830501Y-85969485D02*
X127878882Y-85931990D01*
X127878882Y-85931990D02*
X127975644Y-85900542D01*
X127975644Y-85900542D02*
X128265930Y-85936828D01*
X128265930Y-85936828D02*
X128362692Y-85992466D01*
X128362692Y-85992466D02*
X128411073Y-86042056D01*
X128411073Y-86042056D02*
X128459453Y-86135190D01*
X128459453Y-86135190D02*
X128459453Y-86265818D01*
X128459453Y-85438504D02*
X128411073Y-85519542D01*
X128411073Y-85519542D02*
X128314311Y-85550990D01*
X128314311Y-85550990D02*
X127443453Y-85442133D01*
X128556215Y-85319971D02*
X128556215Y-84623286D01*
X128459453Y-83914504D02*
X128459453Y-84437019D01*
X128459453Y-84175762D02*
X127443453Y-84048762D01*
X127443453Y-84048762D02*
X127588596Y-84153990D01*
X127588596Y-84153990D02*
X127685358Y-84253171D01*
X127685358Y-84253171D02*
X127733739Y-84346304D01*
X113411073Y-79838476D02*
X113459453Y-79693333D01*
X113459453Y-79693333D02*
X113459453Y-79451428D01*
X113459453Y-79451428D02*
X113411073Y-79354666D01*
X113411073Y-79354666D02*
X113362692Y-79306285D01*
X113362692Y-79306285D02*
X113265930Y-79257904D01*
X113265930Y-79257904D02*
X113169168Y-79257904D01*
X113169168Y-79257904D02*
X113072406Y-79306285D01*
X113072406Y-79306285D02*
X113024025Y-79354666D01*
X113024025Y-79354666D02*
X112975644Y-79451428D01*
X112975644Y-79451428D02*
X112927263Y-79644952D01*
X112927263Y-79644952D02*
X112878882Y-79741714D01*
X112878882Y-79741714D02*
X112830501Y-79790095D01*
X112830501Y-79790095D02*
X112733739Y-79838476D01*
X112733739Y-79838476D02*
X112636977Y-79838476D01*
X112636977Y-79838476D02*
X112540215Y-79790095D01*
X112540215Y-79790095D02*
X112491834Y-79741714D01*
X112491834Y-79741714D02*
X112443453Y-79644952D01*
X112443453Y-79644952D02*
X112443453Y-79403047D01*
X112443453Y-79403047D02*
X112491834Y-79257904D01*
X112443453Y-78919238D02*
X113459453Y-78677333D01*
X113459453Y-78677333D02*
X112733739Y-78483809D01*
X112733739Y-78483809D02*
X113459453Y-78290285D01*
X113459453Y-78290285D02*
X112443453Y-78048381D01*
X113459453Y-77129142D02*
X113459453Y-77709714D01*
X113459453Y-77419428D02*
X112443453Y-77419428D01*
X112443453Y-77419428D02*
X112588596Y-77516190D01*
X112588596Y-77516190D02*
X112685358Y-77612952D01*
X112685358Y-77612952D02*
X112733739Y-77709714D01*
X113459453Y-76645333D02*
X113459453Y-76451809D01*
X113459453Y-76451809D02*
X113411073Y-76355047D01*
X113411073Y-76355047D02*
X113362692Y-76306666D01*
X113362692Y-76306666D02*
X113217549Y-76209904D01*
X113217549Y-76209904D02*
X113024025Y-76161523D01*
X113024025Y-76161523D02*
X112636977Y-76161523D01*
X112636977Y-76161523D02*
X112540215Y-76209904D01*
X112540215Y-76209904D02*
X112491834Y-76258285D01*
X112491834Y-76258285D02*
X112443453Y-76355047D01*
X112443453Y-76355047D02*
X112443453Y-76548571D01*
X112443453Y-76548571D02*
X112491834Y-76645333D01*
X112491834Y-76645333D02*
X112540215Y-76693714D01*
X112540215Y-76693714D02*
X112636977Y-76742095D01*
X112636977Y-76742095D02*
X112878882Y-76742095D01*
X112878882Y-76742095D02*
X112975644Y-76693714D01*
X112975644Y-76693714D02*
X113024025Y-76645333D01*
X113024025Y-76645333D02*
X113072406Y-76548571D01*
X113072406Y-76548571D02*
X113072406Y-76355047D01*
X113072406Y-76355047D02*
X113024025Y-76258285D01*
X113024025Y-76258285D02*
X112975644Y-76209904D01*
X112975644Y-76209904D02*
X112878882Y-76161523D01*
X128362692Y-73519436D02*
X128411073Y-73569027D01*
X128411073Y-73569027D02*
X128459453Y-73705703D01*
X128459453Y-73705703D02*
X128459453Y-73792789D01*
X128459453Y-73792789D02*
X128411073Y-73917370D01*
X128411073Y-73917370D02*
X128314311Y-73992360D01*
X128314311Y-73992360D02*
X128217549Y-74023808D01*
X128217549Y-74023808D02*
X128024025Y-74043160D01*
X128024025Y-74043160D02*
X127878882Y-74025017D01*
X127878882Y-74025017D02*
X127685358Y-73957284D01*
X127685358Y-73957284D02*
X127588596Y-73901646D01*
X127588596Y-73901646D02*
X127491834Y-73802465D01*
X127491834Y-73802465D02*
X127443453Y-73665789D01*
X127443453Y-73665789D02*
X127443453Y-73578703D01*
X127443453Y-73578703D02*
X127491834Y-73454122D01*
X127491834Y-73454122D02*
X127540215Y-73416627D01*
X128459453Y-73009017D02*
X128411073Y-73090055D01*
X128411073Y-73090055D02*
X128362692Y-73127551D01*
X128362692Y-73127551D02*
X128265930Y-73158998D01*
X128265930Y-73158998D02*
X127975644Y-73122713D01*
X127975644Y-73122713D02*
X127878882Y-73067074D01*
X127878882Y-73067074D02*
X127830501Y-73017484D01*
X127830501Y-73017484D02*
X127782120Y-72924351D01*
X127782120Y-72924351D02*
X127782120Y-72793722D01*
X127782120Y-72793722D02*
X127830501Y-72712684D01*
X127830501Y-72712684D02*
X127878882Y-72675189D01*
X127878882Y-72675189D02*
X127975644Y-72643741D01*
X127975644Y-72643741D02*
X128265930Y-72680027D01*
X128265930Y-72680027D02*
X128362692Y-72735665D01*
X128362692Y-72735665D02*
X128411073Y-72785255D01*
X128411073Y-72785255D02*
X128459453Y-72878389D01*
X128459453Y-72878389D02*
X128459453Y-73009017D01*
X127782120Y-72227665D02*
X128459453Y-72312332D01*
X127878882Y-72239760D02*
X127830501Y-72190170D01*
X127830501Y-72190170D02*
X127782120Y-72097037D01*
X127782120Y-72097037D02*
X127782120Y-71966408D01*
X127782120Y-71966408D02*
X127830501Y-71885370D01*
X127830501Y-71885370D02*
X127927263Y-71853922D01*
X127927263Y-71853922D02*
X128459453Y-71920446D01*
X127782120Y-71530980D02*
X127782120Y-71182637D01*
X127443453Y-71358018D02*
X128314311Y-71466875D01*
X128314311Y-71466875D02*
X128411073Y-71435427D01*
X128411073Y-71435427D02*
X128459453Y-71354389D01*
X128459453Y-71354389D02*
X128459453Y-71267304D01*
X128459453Y-70962504D02*
X127782120Y-70877837D01*
X127975644Y-70902028D02*
X127878882Y-70846390D01*
X127878882Y-70846390D02*
X127830501Y-70796799D01*
X127830501Y-70796799D02*
X127782120Y-70703666D01*
X127782120Y-70703666D02*
X127782120Y-70616580D01*
X128459453Y-70265818D02*
X128411073Y-70346856D01*
X128411073Y-70346856D02*
X128362692Y-70384352D01*
X128362692Y-70384352D02*
X128265930Y-70415799D01*
X128265930Y-70415799D02*
X127975644Y-70379514D01*
X127975644Y-70379514D02*
X127878882Y-70323875D01*
X127878882Y-70323875D02*
X127830501Y-70274285D01*
X127830501Y-70274285D02*
X127782120Y-70181152D01*
X127782120Y-70181152D02*
X127782120Y-70050523D01*
X127782120Y-70050523D02*
X127830501Y-69969485D01*
X127830501Y-69969485D02*
X127878882Y-69931990D01*
X127878882Y-69931990D02*
X127975644Y-69900542D01*
X127975644Y-69900542D02*
X128265930Y-69936828D01*
X128265930Y-69936828D02*
X128362692Y-69992466D01*
X128362692Y-69992466D02*
X128411073Y-70042056D01*
X128411073Y-70042056D02*
X128459453Y-70135190D01*
X128459453Y-70135190D02*
X128459453Y-70265818D01*
X128459453Y-69438504D02*
X128411073Y-69519542D01*
X128411073Y-69519542D02*
X128314311Y-69550990D01*
X128314311Y-69550990D02*
X127443453Y-69442133D01*
X128556215Y-69319971D02*
X128556215Y-68623286D01*
X127540215Y-68322114D02*
X127491834Y-68272523D01*
X127491834Y-68272523D02*
X127443453Y-68179390D01*
X127443453Y-68179390D02*
X127443453Y-67961676D01*
X127443453Y-67961676D02*
X127491834Y-67880638D01*
X127491834Y-67880638D02*
X127540215Y-67843143D01*
X127540215Y-67843143D02*
X127636977Y-67811695D01*
X127636977Y-67811695D02*
X127733739Y-67823790D01*
X127733739Y-67823790D02*
X127878882Y-67885476D01*
X127878882Y-67885476D02*
X128459453Y-68480562D01*
X128459453Y-68480562D02*
X128459453Y-67914504D01*
X113411073Y-63838476D02*
X113459453Y-63693333D01*
X113459453Y-63693333D02*
X113459453Y-63451428D01*
X113459453Y-63451428D02*
X113411073Y-63354666D01*
X113411073Y-63354666D02*
X113362692Y-63306285D01*
X113362692Y-63306285D02*
X113265930Y-63257904D01*
X113265930Y-63257904D02*
X113169168Y-63257904D01*
X113169168Y-63257904D02*
X113072406Y-63306285D01*
X113072406Y-63306285D02*
X113024025Y-63354666D01*
X113024025Y-63354666D02*
X112975644Y-63451428D01*
X112975644Y-63451428D02*
X112927263Y-63644952D01*
X112927263Y-63644952D02*
X112878882Y-63741714D01*
X112878882Y-63741714D02*
X112830501Y-63790095D01*
X112830501Y-63790095D02*
X112733739Y-63838476D01*
X112733739Y-63838476D02*
X112636977Y-63838476D01*
X112636977Y-63838476D02*
X112540215Y-63790095D01*
X112540215Y-63790095D02*
X112491834Y-63741714D01*
X112491834Y-63741714D02*
X112443453Y-63644952D01*
X112443453Y-63644952D02*
X112443453Y-63403047D01*
X112443453Y-63403047D02*
X112491834Y-63257904D01*
X112443453Y-62919238D02*
X113459453Y-62677333D01*
X113459453Y-62677333D02*
X112733739Y-62483809D01*
X112733739Y-62483809D02*
X113459453Y-62290285D01*
X113459453Y-62290285D02*
X112443453Y-62048381D01*
X112540215Y-61709714D02*
X112491834Y-61661333D01*
X112491834Y-61661333D02*
X112443453Y-61564571D01*
X112443453Y-61564571D02*
X112443453Y-61322666D01*
X112443453Y-61322666D02*
X112491834Y-61225904D01*
X112491834Y-61225904D02*
X112540215Y-61177523D01*
X112540215Y-61177523D02*
X112636977Y-61129142D01*
X112636977Y-61129142D02*
X112733739Y-61129142D01*
X112733739Y-61129142D02*
X112878882Y-61177523D01*
X112878882Y-61177523D02*
X113459453Y-61758095D01*
X113459453Y-61758095D02*
X113459453Y-61129142D01*
X112443453Y-60500190D02*
X112443453Y-60403428D01*
X112443453Y-60403428D02*
X112491834Y-60306666D01*
X112491834Y-60306666D02*
X112540215Y-60258285D01*
X112540215Y-60258285D02*
X112636977Y-60209904D01*
X112636977Y-60209904D02*
X112830501Y-60161523D01*
X112830501Y-60161523D02*
X113072406Y-60161523D01*
X113072406Y-60161523D02*
X113265930Y-60209904D01*
X113265930Y-60209904D02*
X113362692Y-60258285D01*
X113362692Y-60258285D02*
X113411073Y-60306666D01*
X113411073Y-60306666D02*
X113459453Y-60403428D01*
X113459453Y-60403428D02*
X113459453Y-60500190D01*
X113459453Y-60500190D02*
X113411073Y-60596952D01*
X113411073Y-60596952D02*
X113362692Y-60645333D01*
X113362692Y-60645333D02*
X113265930Y-60693714D01*
X113265930Y-60693714D02*
X113072406Y-60742095D01*
X113072406Y-60742095D02*
X112830501Y-60742095D01*
X112830501Y-60742095D02*
X112636977Y-60693714D01*
X112636977Y-60693714D02*
X112540215Y-60645333D01*
X112540215Y-60645333D02*
X112491834Y-60596952D01*
X112491834Y-60596952D02*
X112443453Y-60500190D01*
X128362692Y-57519436D02*
X128411073Y-57569027D01*
X128411073Y-57569027D02*
X128459453Y-57705703D01*
X128459453Y-57705703D02*
X128459453Y-57792789D01*
X128459453Y-57792789D02*
X128411073Y-57917370D01*
X128411073Y-57917370D02*
X128314311Y-57992360D01*
X128314311Y-57992360D02*
X128217549Y-58023808D01*
X128217549Y-58023808D02*
X128024025Y-58043160D01*
X128024025Y-58043160D02*
X127878882Y-58025017D01*
X127878882Y-58025017D02*
X127685358Y-57957284D01*
X127685358Y-57957284D02*
X127588596Y-57901646D01*
X127588596Y-57901646D02*
X127491834Y-57802465D01*
X127491834Y-57802465D02*
X127443453Y-57665789D01*
X127443453Y-57665789D02*
X127443453Y-57578703D01*
X127443453Y-57578703D02*
X127491834Y-57454122D01*
X127491834Y-57454122D02*
X127540215Y-57416627D01*
X128459453Y-57009017D02*
X128411073Y-57090055D01*
X128411073Y-57090055D02*
X128362692Y-57127551D01*
X128362692Y-57127551D02*
X128265930Y-57158998D01*
X128265930Y-57158998D02*
X127975644Y-57122713D01*
X127975644Y-57122713D02*
X127878882Y-57067074D01*
X127878882Y-57067074D02*
X127830501Y-57017484D01*
X127830501Y-57017484D02*
X127782120Y-56924351D01*
X127782120Y-56924351D02*
X127782120Y-56793722D01*
X127782120Y-56793722D02*
X127830501Y-56712684D01*
X127830501Y-56712684D02*
X127878882Y-56675189D01*
X127878882Y-56675189D02*
X127975644Y-56643741D01*
X127975644Y-56643741D02*
X128265930Y-56680027D01*
X128265930Y-56680027D02*
X128362692Y-56735665D01*
X128362692Y-56735665D02*
X128411073Y-56785255D01*
X128411073Y-56785255D02*
X128459453Y-56878389D01*
X128459453Y-56878389D02*
X128459453Y-57009017D01*
X127782120Y-56227665D02*
X128459453Y-56312332D01*
X127878882Y-56239760D02*
X127830501Y-56190170D01*
X127830501Y-56190170D02*
X127782120Y-56097037D01*
X127782120Y-56097037D02*
X127782120Y-55966408D01*
X127782120Y-55966408D02*
X127830501Y-55885370D01*
X127830501Y-55885370D02*
X127927263Y-55853922D01*
X127927263Y-55853922D02*
X128459453Y-55920446D01*
X127782120Y-55530980D02*
X127782120Y-55182637D01*
X127443453Y-55358018D02*
X128314311Y-55466875D01*
X128314311Y-55466875D02*
X128411073Y-55435427D01*
X128411073Y-55435427D02*
X128459453Y-55354389D01*
X128459453Y-55354389D02*
X128459453Y-55267304D01*
X128459453Y-54962504D02*
X127782120Y-54877837D01*
X127975644Y-54902028D02*
X127878882Y-54846390D01*
X127878882Y-54846390D02*
X127830501Y-54796799D01*
X127830501Y-54796799D02*
X127782120Y-54703666D01*
X127782120Y-54703666D02*
X127782120Y-54616580D01*
X128459453Y-54265818D02*
X128411073Y-54346856D01*
X128411073Y-54346856D02*
X128362692Y-54384352D01*
X128362692Y-54384352D02*
X128265930Y-54415799D01*
X128265930Y-54415799D02*
X127975644Y-54379514D01*
X127975644Y-54379514D02*
X127878882Y-54323875D01*
X127878882Y-54323875D02*
X127830501Y-54274285D01*
X127830501Y-54274285D02*
X127782120Y-54181152D01*
X127782120Y-54181152D02*
X127782120Y-54050523D01*
X127782120Y-54050523D02*
X127830501Y-53969485D01*
X127830501Y-53969485D02*
X127878882Y-53931990D01*
X127878882Y-53931990D02*
X127975644Y-53900542D01*
X127975644Y-53900542D02*
X128265930Y-53936828D01*
X128265930Y-53936828D02*
X128362692Y-53992466D01*
X128362692Y-53992466D02*
X128411073Y-54042056D01*
X128411073Y-54042056D02*
X128459453Y-54135190D01*
X128459453Y-54135190D02*
X128459453Y-54265818D01*
X128459453Y-53438504D02*
X128411073Y-53519542D01*
X128411073Y-53519542D02*
X128314311Y-53550990D01*
X128314311Y-53550990D02*
X127443453Y-53442133D01*
X128556215Y-53319971D02*
X128556215Y-52623286D01*
X127443453Y-52353562D02*
X127443453Y-51787504D01*
X127443453Y-51787504D02*
X127830501Y-52140685D01*
X127830501Y-52140685D02*
X127830501Y-52010057D01*
X127830501Y-52010057D02*
X127878882Y-51929019D01*
X127878882Y-51929019D02*
X127927263Y-51891523D01*
X127927263Y-51891523D02*
X128024025Y-51860076D01*
X128024025Y-51860076D02*
X128265930Y-51890314D01*
X128265930Y-51890314D02*
X128362692Y-51945952D01*
X128362692Y-51945952D02*
X128411073Y-51995543D01*
X128411073Y-51995543D02*
X128459453Y-52088676D01*
X128459453Y-52088676D02*
X128459453Y-52349933D01*
X128459453Y-52349933D02*
X128411073Y-52430971D01*
X128411073Y-52430971D02*
X128362692Y-52468466D01*
X142735904Y-121998453D02*
X142735904Y-122820930D01*
X142735904Y-122820930D02*
X142784285Y-122917692D01*
X142784285Y-122917692D02*
X142832666Y-122966073D01*
X142832666Y-122966073D02*
X142929428Y-123014453D01*
X142929428Y-123014453D02*
X143122952Y-123014453D01*
X143122952Y-123014453D02*
X143219714Y-122966073D01*
X143219714Y-122966073D02*
X143268095Y-122917692D01*
X143268095Y-122917692D02*
X143316476Y-122820930D01*
X143316476Y-122820930D02*
X143316476Y-121998453D01*
X144332476Y-123014453D02*
X143751904Y-123014453D01*
X144042190Y-123014453D02*
X144042190Y-121998453D01*
X144042190Y-121998453D02*
X143945428Y-122143596D01*
X143945428Y-122143596D02*
X143848666Y-122240358D01*
X143848666Y-122240358D02*
X143751904Y-122288739D01*
X160177238Y-121998453D02*
X160786838Y-121998453D01*
X160786838Y-121998453D02*
X160267953Y-123014453D01*
X161484734Y-122337120D02*
X161400067Y-123014453D01*
X161315400Y-121950073D02*
X161006972Y-122675787D01*
X161006972Y-122675787D02*
X161573029Y-122675787D01*
X162413648Y-122917692D02*
X162364057Y-122966073D01*
X162364057Y-122966073D02*
X162227381Y-123014453D01*
X162227381Y-123014453D02*
X162140295Y-123014453D01*
X162140295Y-123014453D02*
X162015714Y-122966073D01*
X162015714Y-122966073D02*
X161940724Y-122869311D01*
X161940724Y-122869311D02*
X161909276Y-122772549D01*
X161909276Y-122772549D02*
X161889924Y-122579025D01*
X161889924Y-122579025D02*
X161908067Y-122433882D01*
X161908067Y-122433882D02*
X161975800Y-122240358D01*
X161975800Y-122240358D02*
X162031438Y-122143596D01*
X162031438Y-122143596D02*
X162130619Y-122046834D01*
X162130619Y-122046834D02*
X162267295Y-121998453D01*
X162267295Y-121998453D02*
X162354381Y-121998453D01*
X162354381Y-121998453D02*
X162478962Y-122046834D01*
X162478962Y-122046834D02*
X162516457Y-122095215D01*
X162836981Y-123014453D02*
X163011152Y-123014453D01*
X163011152Y-123014453D02*
X163104286Y-122966073D01*
X163104286Y-122966073D02*
X163153876Y-122917692D01*
X163153876Y-122917692D02*
X163259105Y-122772549D01*
X163259105Y-122772549D02*
X163326838Y-122579025D01*
X163326838Y-122579025D02*
X163375219Y-122191977D01*
X163375219Y-122191977D02*
X163343772Y-122095215D01*
X163343772Y-122095215D02*
X163306276Y-122046834D01*
X163306276Y-122046834D02*
X163225238Y-121998453D01*
X163225238Y-121998453D02*
X163051067Y-121998453D01*
X163051067Y-121998453D02*
X162957933Y-122046834D01*
X162957933Y-122046834D02*
X162908343Y-122095215D01*
X162908343Y-122095215D02*
X162852705Y-122191977D01*
X162852705Y-122191977D02*
X162822467Y-122433882D01*
X162822467Y-122433882D02*
X162853914Y-122530644D01*
X162853914Y-122530644D02*
X162891410Y-122579025D01*
X162891410Y-122579025D02*
X162972448Y-122627406D01*
X162972448Y-122627406D02*
X163146619Y-122627406D01*
X163146619Y-122627406D02*
X163239752Y-122579025D01*
X163239752Y-122579025D02*
X163289343Y-122530644D01*
X163289343Y-122530644D02*
X163344981Y-122433882D01*
X163735657Y-122095215D02*
X163785248Y-122046834D01*
X163785248Y-122046834D02*
X163878381Y-121998453D01*
X163878381Y-121998453D02*
X164096095Y-121998453D01*
X164096095Y-121998453D02*
X164177133Y-122046834D01*
X164177133Y-122046834D02*
X164214629Y-122095215D01*
X164214629Y-122095215D02*
X164246076Y-122191977D01*
X164246076Y-122191977D02*
X164233981Y-122288739D01*
X164233981Y-122288739D02*
X164172295Y-122433882D01*
X164172295Y-122433882D02*
X163577209Y-123014453D01*
X163577209Y-123014453D02*
X164143267Y-123014453D01*
X164575066Y-121998453D02*
X165141124Y-121998453D01*
X165141124Y-121998453D02*
X164787943Y-122385501D01*
X164787943Y-122385501D02*
X164918571Y-122385501D01*
X164918571Y-122385501D02*
X164999609Y-122433882D01*
X164999609Y-122433882D02*
X165037105Y-122482263D01*
X165037105Y-122482263D02*
X165068552Y-122579025D01*
X165068552Y-122579025D02*
X165038314Y-122820930D01*
X165038314Y-122820930D02*
X164982676Y-122917692D01*
X164982676Y-122917692D02*
X164933086Y-122966073D01*
X164933086Y-122966073D02*
X164839952Y-123014453D01*
X164839952Y-123014453D02*
X164578695Y-123014453D01*
X164578695Y-123014453D02*
X164497657Y-122966073D01*
X164497657Y-122966073D02*
X164460162Y-122917692D01*
X175438404Y-121998453D02*
X175438404Y-122820930D01*
X175438404Y-122820930D02*
X175486785Y-122917692D01*
X175486785Y-122917692D02*
X175535166Y-122966073D01*
X175535166Y-122966073D02*
X175631928Y-123014453D01*
X175631928Y-123014453D02*
X175825452Y-123014453D01*
X175825452Y-123014453D02*
X175922214Y-122966073D01*
X175922214Y-122966073D02*
X175970595Y-122917692D01*
X175970595Y-122917692D02*
X176018976Y-122820930D01*
X176018976Y-122820930D02*
X176018976Y-121998453D01*
X176454404Y-122095215D02*
X176502785Y-122046834D01*
X176502785Y-122046834D02*
X176599547Y-121998453D01*
X176599547Y-121998453D02*
X176841452Y-121998453D01*
X176841452Y-121998453D02*
X176938214Y-122046834D01*
X176938214Y-122046834D02*
X176986595Y-122095215D01*
X176986595Y-122095215D02*
X177034976Y-122191977D01*
X177034976Y-122191977D02*
X177034976Y-122288739D01*
X177034976Y-122288739D02*
X176986595Y-122433882D01*
X176986595Y-122433882D02*
X176406023Y-123014453D01*
X176406023Y-123014453D02*
X177034976Y-123014453D01*
X187320766Y-121998453D02*
X187930366Y-121998453D01*
X187930366Y-121998453D02*
X187411481Y-123014453D01*
X188628262Y-122337120D02*
X188543595Y-123014453D01*
X188458928Y-121950073D02*
X188150500Y-122675787D01*
X188150500Y-122675787D02*
X188716557Y-122675787D01*
X189022566Y-123014453D02*
X189149566Y-121998453D01*
X189089090Y-122482263D02*
X189611604Y-122482263D01*
X189545080Y-123014453D02*
X189672080Y-121998453D01*
X190515119Y-122917692D02*
X190465528Y-122966073D01*
X190465528Y-122966073D02*
X190328852Y-123014453D01*
X190328852Y-123014453D02*
X190241766Y-123014453D01*
X190241766Y-123014453D02*
X190117185Y-122966073D01*
X190117185Y-122966073D02*
X190042195Y-122869311D01*
X190042195Y-122869311D02*
X190010747Y-122772549D01*
X190010747Y-122772549D02*
X189991395Y-122579025D01*
X189991395Y-122579025D02*
X190009538Y-122433882D01*
X190009538Y-122433882D02*
X190077271Y-122240358D01*
X190077271Y-122240358D02*
X190132909Y-122143596D01*
X190132909Y-122143596D02*
X190232090Y-122046834D01*
X190232090Y-122046834D02*
X190368766Y-121998453D01*
X190368766Y-121998453D02*
X190455852Y-121998453D01*
X190455852Y-121998453D02*
X190580433Y-122046834D01*
X190580433Y-122046834D02*
X190617928Y-122095215D01*
X191373881Y-123014453D02*
X190851366Y-123014453D01*
X191112623Y-123014453D02*
X191239623Y-121998453D01*
X191239623Y-121998453D02*
X191134395Y-122143596D01*
X191134395Y-122143596D02*
X191035214Y-122240358D01*
X191035214Y-122240358D02*
X190942081Y-122288739D01*
X191805680Y-121998453D02*
X192371738Y-121998453D01*
X192371738Y-121998453D02*
X192018557Y-122385501D01*
X192018557Y-122385501D02*
X192149185Y-122385501D01*
X192149185Y-122385501D02*
X192230223Y-122433882D01*
X192230223Y-122433882D02*
X192267719Y-122482263D01*
X192267719Y-122482263D02*
X192299166Y-122579025D01*
X192299166Y-122579025D02*
X192268928Y-122820930D01*
X192268928Y-122820930D02*
X192213290Y-122917692D01*
X192213290Y-122917692D02*
X192163700Y-122966073D01*
X192163700Y-122966073D02*
X192070566Y-123014453D01*
X192070566Y-123014453D02*
X191809309Y-123014453D01*
X191809309Y-123014453D02*
X191728271Y-122966073D01*
X191728271Y-122966073D02*
X191690776Y-122917692D01*
X192839823Y-122433882D02*
X192758785Y-122385501D01*
X192758785Y-122385501D02*
X192721290Y-122337120D01*
X192721290Y-122337120D02*
X192689842Y-122240358D01*
X192689842Y-122240358D02*
X192695890Y-122191977D01*
X192695890Y-122191977D02*
X192751528Y-122095215D01*
X192751528Y-122095215D02*
X192801118Y-122046834D01*
X192801118Y-122046834D02*
X192894252Y-121998453D01*
X192894252Y-121998453D02*
X193068423Y-121998453D01*
X193068423Y-121998453D02*
X193149461Y-122046834D01*
X193149461Y-122046834D02*
X193186957Y-122095215D01*
X193186957Y-122095215D02*
X193218404Y-122191977D01*
X193218404Y-122191977D02*
X193212357Y-122240358D01*
X193212357Y-122240358D02*
X193156718Y-122337120D01*
X193156718Y-122337120D02*
X193107128Y-122385501D01*
X193107128Y-122385501D02*
X193013995Y-122433882D01*
X193013995Y-122433882D02*
X192839823Y-122433882D01*
X192839823Y-122433882D02*
X192746690Y-122482263D01*
X192746690Y-122482263D02*
X192697099Y-122530644D01*
X192697099Y-122530644D02*
X192641461Y-122627406D01*
X192641461Y-122627406D02*
X192617271Y-122820930D01*
X192617271Y-122820930D02*
X192648718Y-122917692D01*
X192648718Y-122917692D02*
X192686214Y-122966073D01*
X192686214Y-122966073D02*
X192767252Y-123014453D01*
X192767252Y-123014453D02*
X192941423Y-123014453D01*
X192941423Y-123014453D02*
X193034557Y-122966073D01*
X193034557Y-122966073D02*
X193084147Y-122917692D01*
X193084147Y-122917692D02*
X193139785Y-122820930D01*
X193139785Y-122820930D02*
X193163976Y-122627406D01*
X193163976Y-122627406D02*
X193132528Y-122530644D01*
X193132528Y-122530644D02*
X193095033Y-122482263D01*
X193095033Y-122482263D02*
X193013995Y-122433882D01*
X112255904Y-121998453D02*
X112255904Y-122820930D01*
X112255904Y-122820930D02*
X112304285Y-122917692D01*
X112304285Y-122917692D02*
X112352666Y-122966073D01*
X112352666Y-122966073D02*
X112449428Y-123014453D01*
X112449428Y-123014453D02*
X112642952Y-123014453D01*
X112642952Y-123014453D02*
X112739714Y-122966073D01*
X112739714Y-122966073D02*
X112788095Y-122917692D01*
X112788095Y-122917692D02*
X112836476Y-122820930D01*
X112836476Y-122820930D02*
X112836476Y-121998453D01*
X113223523Y-121998453D02*
X113852476Y-121998453D01*
X113852476Y-121998453D02*
X113513809Y-122385501D01*
X113513809Y-122385501D02*
X113658952Y-122385501D01*
X113658952Y-122385501D02*
X113755714Y-122433882D01*
X113755714Y-122433882D02*
X113804095Y-122482263D01*
X113804095Y-122482263D02*
X113852476Y-122579025D01*
X113852476Y-122579025D02*
X113852476Y-122820930D01*
X113852476Y-122820930D02*
X113804095Y-122917692D01*
X113804095Y-122917692D02*
X113755714Y-122966073D01*
X113755714Y-122966073D02*
X113658952Y-123014453D01*
X113658952Y-123014453D02*
X113368666Y-123014453D01*
X113368666Y-123014453D02*
X113271904Y-122966073D01*
X113271904Y-122966073D02*
X113223523Y-122917692D01*
X122033695Y-121998453D02*
X122643295Y-121998453D01*
X122643295Y-121998453D02*
X122124410Y-123014453D01*
X123341191Y-122337120D02*
X123256524Y-123014453D01*
X123171857Y-121950073D02*
X122863429Y-122675787D01*
X122863429Y-122675787D02*
X123429486Y-122675787D01*
X123735495Y-123014453D02*
X123862495Y-121998453D01*
X123802019Y-122482263D02*
X124324533Y-122482263D01*
X124258009Y-123014453D02*
X124385009Y-121998453D01*
X125228048Y-122917692D02*
X125178457Y-122966073D01*
X125178457Y-122966073D02*
X125041781Y-123014453D01*
X125041781Y-123014453D02*
X124954695Y-123014453D01*
X124954695Y-123014453D02*
X124830114Y-122966073D01*
X124830114Y-122966073D02*
X124755124Y-122869311D01*
X124755124Y-122869311D02*
X124723676Y-122772549D01*
X124723676Y-122772549D02*
X124704324Y-122579025D01*
X124704324Y-122579025D02*
X124722467Y-122433882D01*
X124722467Y-122433882D02*
X124790200Y-122240358D01*
X124790200Y-122240358D02*
X124845838Y-122143596D01*
X124845838Y-122143596D02*
X124945019Y-122046834D01*
X124945019Y-122046834D02*
X125081695Y-121998453D01*
X125081695Y-121998453D02*
X125168781Y-121998453D01*
X125168781Y-121998453D02*
X125293362Y-122046834D01*
X125293362Y-122046834D02*
X125330857Y-122095215D01*
X125647752Y-121998453D02*
X126213810Y-121998453D01*
X126213810Y-121998453D02*
X125860629Y-122385501D01*
X125860629Y-122385501D02*
X125991257Y-122385501D01*
X125991257Y-122385501D02*
X126072295Y-122433882D01*
X126072295Y-122433882D02*
X126109791Y-122482263D01*
X126109791Y-122482263D02*
X126141238Y-122579025D01*
X126141238Y-122579025D02*
X126111000Y-122820930D01*
X126111000Y-122820930D02*
X126055362Y-122917692D01*
X126055362Y-122917692D02*
X126005772Y-122966073D01*
X126005772Y-122966073D02*
X125912638Y-123014453D01*
X125912638Y-123014453D02*
X125651381Y-123014453D01*
X125651381Y-123014453D02*
X125570343Y-122966073D01*
X125570343Y-122966073D02*
X125532848Y-122917692D01*
X126550057Y-122095215D02*
X126599648Y-122046834D01*
X126599648Y-122046834D02*
X126692781Y-121998453D01*
X126692781Y-121998453D02*
X126910495Y-121998453D01*
X126910495Y-121998453D02*
X126991533Y-122046834D01*
X126991533Y-122046834D02*
X127029029Y-122095215D01*
X127029029Y-122095215D02*
X127060476Y-122191977D01*
X127060476Y-122191977D02*
X127048381Y-122288739D01*
X127048381Y-122288739D02*
X126986695Y-122433882D01*
X126986695Y-122433882D02*
X126391609Y-123014453D01*
X126391609Y-123014453D02*
X126957667Y-123014453D01*
D13*
%TO.C,P1*%
X182245000Y-129540000D02*
X183515000Y-129540000D01*
X183515000Y-129540000D02*
X184150000Y-128905000D01*
X184150000Y-128905000D02*
X184785000Y-129540000D01*
X184785000Y-129540000D02*
X186055000Y-129540000D01*
X186055000Y-129540000D02*
X186690000Y-128905000D01*
X186690000Y-128905000D02*
X187325000Y-129540000D01*
X187325000Y-129540000D02*
X188595000Y-129540000D01*
X188595000Y-129540000D02*
X189230000Y-128905000D01*
X189230000Y-128905000D02*
X189865000Y-129540000D01*
X182245000Y-124460000D02*
X183515000Y-124460000D01*
X183515000Y-124460000D02*
X184150000Y-125095000D01*
X184150000Y-125095000D02*
X184785000Y-124460000D01*
X184785000Y-124460000D02*
X186055000Y-124460000D01*
X186055000Y-124460000D02*
X186690000Y-125095000D01*
X186690000Y-125095000D02*
X187325000Y-124460000D01*
X187325000Y-124460000D02*
X188595000Y-124460000D01*
X188595000Y-124460000D02*
X189230000Y-125095000D01*
X189230000Y-125095000D02*
X189865000Y-124460000D01*
X151130000Y-128905000D02*
X150495000Y-129540000D01*
X150495000Y-129540000D02*
X149225000Y-129540000D01*
X149225000Y-129540000D02*
X148590000Y-128905000D01*
X148590000Y-128905000D02*
X147955000Y-129540000D01*
X147955000Y-129540000D02*
X146685000Y-129540000D01*
X146685000Y-129540000D02*
X146050000Y-128905000D01*
X146050000Y-128905000D02*
X145415000Y-129540000D01*
X145415000Y-129540000D02*
X144145000Y-129540000D01*
X144145000Y-129540000D02*
X143510000Y-128905000D01*
X182245000Y-129540000D02*
X181610000Y-128905000D01*
X181610000Y-128905000D02*
X180975000Y-129540000D01*
X180975000Y-129540000D02*
X179705000Y-129540000D01*
X179705000Y-129540000D02*
X179070000Y-128905000D01*
X179070000Y-128905000D02*
X178435000Y-129540000D01*
X178435000Y-129540000D02*
X177165000Y-129540000D01*
X177165000Y-129540000D02*
X176530000Y-128905000D01*
X176530000Y-128905000D02*
X175895000Y-129540000D01*
X175895000Y-129540000D02*
X174625000Y-129540000D01*
X174625000Y-129540000D02*
X173990000Y-128905000D01*
X173990000Y-128905000D02*
X173355000Y-129540000D01*
X173355000Y-129540000D02*
X172085000Y-129540000D01*
X172085000Y-129540000D02*
X171450000Y-128905000D01*
X171450000Y-128905000D02*
X170815000Y-129540000D01*
X170815000Y-129540000D02*
X169545000Y-129540000D01*
X169545000Y-129540000D02*
X168910000Y-128905000D01*
X168910000Y-128905000D02*
X168275000Y-129540000D01*
X168275000Y-129540000D02*
X167005000Y-129540000D01*
X167005000Y-129540000D02*
X166370000Y-128905000D01*
X166370000Y-128905000D02*
X165735000Y-129540000D01*
X165735000Y-129540000D02*
X164465000Y-129540000D01*
X164465000Y-129540000D02*
X163830000Y-128905000D01*
X163830000Y-128905000D02*
X163195000Y-129540000D01*
X163195000Y-129540000D02*
X161925000Y-129540000D01*
X161925000Y-129540000D02*
X161290000Y-128905000D01*
X161290000Y-128905000D02*
X160655000Y-129540000D01*
X160655000Y-129540000D02*
X159385000Y-129540000D01*
X159385000Y-129540000D02*
X158750000Y-128905000D01*
X158750000Y-128905000D02*
X158115000Y-129540000D01*
X158115000Y-129540000D02*
X156845000Y-129540000D01*
X156845000Y-129540000D02*
X156210000Y-128905000D01*
X156210000Y-128905000D02*
X155575000Y-129540000D01*
X155575000Y-129540000D02*
X154305000Y-129540000D01*
X154305000Y-129540000D02*
X153670000Y-128905000D01*
X153670000Y-128905000D02*
X153035000Y-129540000D01*
X153035000Y-129540000D02*
X151765000Y-129540000D01*
X151765000Y-129540000D02*
X151130000Y-128905000D01*
X191135000Y-124460000D02*
X191770000Y-125095000D01*
X191770000Y-125095000D02*
X191770000Y-126365000D01*
X191770000Y-126365000D02*
X191135000Y-127000000D01*
X191135000Y-127000000D02*
X191770000Y-127635000D01*
X191770000Y-127635000D02*
X191770000Y-128905000D01*
X191770000Y-128905000D02*
X191135000Y-129540000D01*
X191135000Y-129540000D02*
X189865000Y-129540000D01*
X141605000Y-127000000D02*
X140970000Y-126365000D01*
X140970000Y-126365000D02*
X140970000Y-125095000D01*
X140970000Y-125095000D02*
X141605000Y-124460000D01*
X141605000Y-124460000D02*
X142875000Y-124460000D01*
X142875000Y-124460000D02*
X143510000Y-125095000D01*
X143510000Y-125095000D02*
X144145000Y-124460000D01*
X144145000Y-124460000D02*
X145415000Y-124460000D01*
X145415000Y-124460000D02*
X146050000Y-125095000D01*
X146050000Y-125095000D02*
X146685000Y-124460000D01*
X146685000Y-124460000D02*
X147955000Y-124460000D01*
X147955000Y-124460000D02*
X148590000Y-125095000D01*
X148590000Y-125095000D02*
X149225000Y-124460000D01*
X149225000Y-124460000D02*
X150495000Y-124460000D01*
X150495000Y-124460000D02*
X151130000Y-125095000D01*
X151130000Y-125095000D02*
X151765000Y-124460000D01*
X151765000Y-124460000D02*
X153035000Y-124460000D01*
X153035000Y-124460000D02*
X153670000Y-125095000D01*
X153670000Y-125095000D02*
X154305000Y-124460000D01*
X154305000Y-124460000D02*
X155575000Y-124460000D01*
X155575000Y-124460000D02*
X156210000Y-125095000D01*
X156210000Y-125095000D02*
X156845000Y-124460000D01*
X156845000Y-124460000D02*
X158115000Y-124460000D01*
X158115000Y-124460000D02*
X158750000Y-125095000D01*
X158750000Y-125095000D02*
X159385000Y-124460000D01*
X159385000Y-124460000D02*
X160655000Y-124460000D01*
X160655000Y-124460000D02*
X161290000Y-125095000D01*
X161290000Y-125095000D02*
X161925000Y-124460000D01*
X161925000Y-124460000D02*
X163195000Y-124460000D01*
X163195000Y-124460000D02*
X163830000Y-125095000D01*
X163830000Y-125095000D02*
X164465000Y-124460000D01*
X164465000Y-124460000D02*
X165735000Y-124460000D01*
X165735000Y-124460000D02*
X166370000Y-125095000D01*
X166370000Y-125095000D02*
X167005000Y-124460000D01*
X167005000Y-124460000D02*
X168275000Y-124460000D01*
X168275000Y-124460000D02*
X168910000Y-125095000D01*
X168910000Y-125095000D02*
X169545000Y-124460000D01*
X169545000Y-124460000D02*
X170815000Y-124460000D01*
X170815000Y-124460000D02*
X171450000Y-125095000D01*
X171450000Y-125095000D02*
X172085000Y-124460000D01*
X172085000Y-124460000D02*
X173355000Y-124460000D01*
X173355000Y-124460000D02*
X173990000Y-125095000D01*
X173990000Y-125095000D02*
X174625000Y-124460000D01*
X174625000Y-124460000D02*
X175895000Y-124460000D01*
X175895000Y-124460000D02*
X176530000Y-125095000D01*
X176530000Y-125095000D02*
X177165000Y-124460000D01*
X177165000Y-124460000D02*
X178435000Y-124460000D01*
X178435000Y-124460000D02*
X179070000Y-125095000D01*
X179070000Y-125095000D02*
X179705000Y-124460000D01*
X179705000Y-124460000D02*
X180975000Y-124460000D01*
X180975000Y-124460000D02*
X181610000Y-125095000D01*
X181610000Y-125095000D02*
X182245000Y-124460000D01*
X189865000Y-124460000D02*
X191135000Y-124460000D01*
X143510000Y-127000000D02*
X143510000Y-129540000D01*
X143510000Y-129540000D02*
X140970000Y-129540000D01*
X140970000Y-129540000D02*
X140970000Y-127000000D01*
X140970000Y-127000000D02*
X143510000Y-127000000D01*
%TO.C,HOLE1*%
X199686000Y-125800000D02*
G75*
G02*
X195114000Y-125800000I-2286000J0D01*
G01*
X195114000Y-125800000D02*
G75*
G02*
X199686000Y-125800000I2286000J0D01*
G01*
%TO.C,HOLE2*%
X109686000Y-125800000D02*
G75*
G02*
X105114000Y-125800000I-2286000J0D01*
G01*
X105114000Y-125800000D02*
G75*
G02*
X109686000Y-125800000I2286000J0D01*
G01*
%TO.C,HOLE3*%
X199686000Y-55800000D02*
G75*
G02*
X195114000Y-55800000I-2286000J0D01*
G01*
X195114000Y-55800000D02*
G75*
G02*
X199686000Y-55800000I2286000J0D01*
G01*
%TO.C,HOLE4*%
X109686000Y-55800000D02*
G75*
G02*
X105114000Y-55800000I-2286000J0D01*
G01*
X105114000Y-55800000D02*
G75*
G02*
X109686000Y-55800000I2286000J0D01*
G01*
%TO.C,C1*%
X136652000Y-119126000D02*
X137668000Y-119126000D01*
X136144000Y-112522000D02*
X136144000Y-118618000D01*
X138176000Y-112522000D02*
X138176000Y-118618000D01*
X136652000Y-119126000D02*
G75*
G02*
X136144000Y-118618000I0J508000D01*
G01*
X138176000Y-118618000D02*
G75*
G02*
X137668000Y-119126000I-508000J0D01*
G01*
X136144000Y-112522000D02*
G75*
G02*
X136652000Y-112014000I508000J0D01*
G01*
X137668000Y-112014000D02*
G75*
G02*
X138176000Y-112522000I0J-508000D01*
G01*
X136652000Y-112014000D02*
X137668000Y-112014000D01*
%TO.C,C2*%
X169672000Y-119126000D02*
X170688000Y-119126000D01*
X169164000Y-112522000D02*
X169164000Y-118618000D01*
X171196000Y-112522000D02*
X171196000Y-118618000D01*
X169672000Y-119126000D02*
G75*
G02*
X169164000Y-118618000I0J508000D01*
G01*
X171196000Y-118618000D02*
G75*
G02*
X170688000Y-119126000I-508000J0D01*
G01*
X169164000Y-112522000D02*
G75*
G02*
X169672000Y-112014000I508000J0D01*
G01*
X170688000Y-112014000D02*
G75*
G02*
X171196000Y-112522000I0J-508000D01*
G01*
X169672000Y-112014000D02*
X170688000Y-112014000D01*
%TO.C,C3*%
X106172000Y-119126000D02*
X107188000Y-119126000D01*
X105664000Y-112522000D02*
X105664000Y-118618000D01*
X107696000Y-112522000D02*
X107696000Y-118618000D01*
X106172000Y-119126000D02*
G75*
G02*
X105664000Y-118618000I0J508000D01*
G01*
X107696000Y-118618000D02*
G75*
G02*
X107188000Y-119126000I-508000J0D01*
G01*
X105664000Y-112522000D02*
G75*
G02*
X106172000Y-112014000I508000J0D01*
G01*
X107188000Y-112014000D02*
G75*
G02*
X107696000Y-112522000I0J-508000D01*
G01*
X106172000Y-112014000D02*
X107188000Y-112014000D01*
%TO.C,C4*%
X135128000Y-112014000D02*
X134112000Y-112014000D01*
X135636000Y-118618000D02*
X135636000Y-112522000D01*
X133604000Y-118618000D02*
X133604000Y-112522000D01*
X135128000Y-112014000D02*
G75*
G02*
X135636000Y-112522000I0J-508000D01*
G01*
X133604000Y-112522000D02*
G75*
G02*
X134112000Y-112014000I508000J0D01*
G01*
X135636000Y-118618000D02*
G75*
G02*
X135128000Y-119126000I-508000J0D01*
G01*
X134112000Y-119126000D02*
G75*
G02*
X133604000Y-118618000I0J508000D01*
G01*
X135128000Y-119126000D02*
X134112000Y-119126000D01*
%TO.C,C5*%
X132588000Y-112014000D02*
X131572000Y-112014000D01*
X133096000Y-118618000D02*
X133096000Y-112522000D01*
X131064000Y-118618000D02*
X131064000Y-112522000D01*
X132588000Y-112014000D02*
G75*
G02*
X133096000Y-112522000I0J-508000D01*
G01*
X131064000Y-112522000D02*
G75*
G02*
X131572000Y-112014000I508000J0D01*
G01*
X133096000Y-118618000D02*
G75*
G02*
X132588000Y-119126000I-508000J0D01*
G01*
X131572000Y-119126000D02*
G75*
G02*
X131064000Y-118618000I0J508000D01*
G01*
X132588000Y-119126000D02*
X131572000Y-119126000D01*
%TO.C,C6*%
X198628000Y-112014000D02*
X197612000Y-112014000D01*
X199136000Y-118618000D02*
X199136000Y-112522000D01*
X197104000Y-118618000D02*
X197104000Y-112522000D01*
X198628000Y-112014000D02*
G75*
G02*
X199136000Y-112522000I0J-508000D01*
G01*
X197104000Y-112522000D02*
G75*
G02*
X197612000Y-112014000I508000J0D01*
G01*
X199136000Y-118618000D02*
G75*
G02*
X198628000Y-119126000I-508000J0D01*
G01*
X197612000Y-119126000D02*
G75*
G02*
X197104000Y-118618000I0J508000D01*
G01*
X198628000Y-119126000D02*
X197612000Y-119126000D01*
%TO.C,SW1*%
X178400000Y-62550000D02*
X178400000Y-51050000D01*
X190150000Y-62800000D02*
X178650000Y-62800000D01*
X190400000Y-51050000D02*
X190400000Y-62550000D01*
X178650000Y-50800000D02*
X190150000Y-50800000D01*
X190400000Y-62550000D02*
G75*
G02*
X190150000Y-62800000I-250000J0D01*
G01*
X178650000Y-62800000D02*
G75*
G02*
X178400000Y-62550000I0J250000D01*
G01*
X190150000Y-50800000D02*
G75*
G02*
X190400000Y-51050000I0J-250000D01*
G01*
X178400000Y-51050000D02*
G75*
G02*
X178650000Y-50800000I250000J0D01*
G01*
X187950000Y-56800000D02*
G75*
G02*
X180850000Y-56800000I-3550000J0D01*
G01*
X180850000Y-56800000D02*
G75*
G02*
X187950000Y-56800000I3550000J0D01*
G01*
%TO.C,SW2*%
X178400000Y-78550000D02*
X178400000Y-67050000D01*
X190150000Y-78800000D02*
X178650000Y-78800000D01*
X190400000Y-67050000D02*
X190400000Y-78550000D01*
X178650000Y-66800000D02*
X190150000Y-66800000D01*
X190400000Y-78550000D02*
G75*
G02*
X190150000Y-78800000I-250000J0D01*
G01*
X178650000Y-78800000D02*
G75*
G02*
X178400000Y-78550000I0J250000D01*
G01*
X190150000Y-66800000D02*
G75*
G02*
X190400000Y-67050000I0J-250000D01*
G01*
X178400000Y-67050000D02*
G75*
G02*
X178650000Y-66800000I250000J0D01*
G01*
X187950000Y-72800000D02*
G75*
G02*
X180850000Y-72800000I-3550000J0D01*
G01*
X180850000Y-72800000D02*
G75*
G02*
X187950000Y-72800000I3550000J0D01*
G01*
%TO.C,SW3*%
X162400000Y-78550000D02*
X162400000Y-67050000D01*
X174150000Y-78800000D02*
X162650000Y-78800000D01*
X174400000Y-67050000D02*
X174400000Y-78550000D01*
X162650000Y-66800000D02*
X174150000Y-66800000D01*
X174400000Y-78550000D02*
G75*
G02*
X174150000Y-78800000I-250000J0D01*
G01*
X162650000Y-78800000D02*
G75*
G02*
X162400000Y-78550000I0J250000D01*
G01*
X174150000Y-66800000D02*
G75*
G02*
X174400000Y-67050000I0J-250000D01*
G01*
X162400000Y-67050000D02*
G75*
G02*
X162650000Y-66800000I250000J0D01*
G01*
X171950000Y-72800000D02*
G75*
G02*
X164850000Y-72800000I-3550000J0D01*
G01*
X164850000Y-72800000D02*
G75*
G02*
X171950000Y-72800000I3550000J0D01*
G01*
%TO.C,SW4*%
X146400000Y-78550000D02*
X146400000Y-67050000D01*
X158150000Y-78800000D02*
X146650000Y-78800000D01*
X158400000Y-67050000D02*
X158400000Y-78550000D01*
X146650000Y-66800000D02*
X158150000Y-66800000D01*
X158400000Y-78550000D02*
G75*
G02*
X158150000Y-78800000I-250000J0D01*
G01*
X146650000Y-78800000D02*
G75*
G02*
X146400000Y-78550000I0J250000D01*
G01*
X158150000Y-66800000D02*
G75*
G02*
X158400000Y-67050000I0J-250000D01*
G01*
X146400000Y-67050000D02*
G75*
G02*
X146650000Y-66800000I250000J0D01*
G01*
X155950000Y-72800000D02*
G75*
G02*
X148850000Y-72800000I-3550000J0D01*
G01*
X148850000Y-72800000D02*
G75*
G02*
X155950000Y-72800000I3550000J0D01*
G01*
%TO.C,SW5*%
X178400000Y-94550000D02*
X178400000Y-83050000D01*
X190150000Y-94800000D02*
X178650000Y-94800000D01*
X190400000Y-83050000D02*
X190400000Y-94550000D01*
X178650000Y-82800000D02*
X190150000Y-82800000D01*
X190400000Y-94550000D02*
G75*
G02*
X190150000Y-94800000I-250000J0D01*
G01*
X178650000Y-94800000D02*
G75*
G02*
X178400000Y-94550000I0J250000D01*
G01*
X190150000Y-82800000D02*
G75*
G02*
X190400000Y-83050000I0J-250000D01*
G01*
X178400000Y-83050000D02*
G75*
G02*
X178650000Y-82800000I250000J0D01*
G01*
X187950000Y-88800000D02*
G75*
G02*
X180850000Y-88800000I-3550000J0D01*
G01*
X180850000Y-88800000D02*
G75*
G02*
X187950000Y-88800000I3550000J0D01*
G01*
%TO.C,SW6*%
X162400000Y-94550000D02*
X162400000Y-83050000D01*
X174150000Y-94800000D02*
X162650000Y-94800000D01*
X174400000Y-83050000D02*
X174400000Y-94550000D01*
X162650000Y-82800000D02*
X174150000Y-82800000D01*
X174400000Y-94550000D02*
G75*
G02*
X174150000Y-94800000I-250000J0D01*
G01*
X162650000Y-94800000D02*
G75*
G02*
X162400000Y-94550000I0J250000D01*
G01*
X174150000Y-82800000D02*
G75*
G02*
X174400000Y-83050000I0J-250000D01*
G01*
X162400000Y-83050000D02*
G75*
G02*
X162650000Y-82800000I250000J0D01*
G01*
X171950000Y-88800000D02*
G75*
G02*
X164850000Y-88800000I-3550000J0D01*
G01*
X164850000Y-88800000D02*
G75*
G02*
X171950000Y-88800000I3550000J0D01*
G01*
%TO.C,SW7*%
X146400000Y-94550000D02*
X146400000Y-83050000D01*
X158150000Y-94800000D02*
X146650000Y-94800000D01*
X158400000Y-83050000D02*
X158400000Y-94550000D01*
X146650000Y-82800000D02*
X158150000Y-82800000D01*
X158400000Y-94550000D02*
G75*
G02*
X158150000Y-94800000I-250000J0D01*
G01*
X146650000Y-94800000D02*
G75*
G02*
X146400000Y-94550000I0J250000D01*
G01*
X158150000Y-82800000D02*
G75*
G02*
X158400000Y-83050000I0J-250000D01*
G01*
X146400000Y-83050000D02*
G75*
G02*
X146650000Y-82800000I250000J0D01*
G01*
X155950000Y-88800000D02*
G75*
G02*
X148850000Y-88800000I-3550000J0D01*
G01*
X148850000Y-88800000D02*
G75*
G02*
X155950000Y-88800000I3550000J0D01*
G01*
%TO.C,SW8*%
X178400000Y-110550000D02*
X178400000Y-99050000D01*
X190150000Y-110800000D02*
X178650000Y-110800000D01*
X190400000Y-99050000D02*
X190400000Y-110550000D01*
X178650000Y-98800000D02*
X190150000Y-98800000D01*
X190400000Y-110550000D02*
G75*
G02*
X190150000Y-110800000I-250000J0D01*
G01*
X178650000Y-110800000D02*
G75*
G02*
X178400000Y-110550000I0J250000D01*
G01*
X190150000Y-98800000D02*
G75*
G02*
X190400000Y-99050000I0J-250000D01*
G01*
X178400000Y-99050000D02*
G75*
G02*
X178650000Y-98800000I250000J0D01*
G01*
X187950000Y-104800000D02*
G75*
G02*
X180850000Y-104800000I-3550000J0D01*
G01*
X180850000Y-104800000D02*
G75*
G02*
X187950000Y-104800000I3550000J0D01*
G01*
%TO.C,SW9*%
X162400000Y-110550000D02*
X162400000Y-99050000D01*
X174150000Y-110800000D02*
X162650000Y-110800000D01*
X174400000Y-99050000D02*
X174400000Y-110550000D01*
X162650000Y-98800000D02*
X174150000Y-98800000D01*
X174400000Y-110550000D02*
G75*
G02*
X174150000Y-110800000I-250000J0D01*
G01*
X162650000Y-110800000D02*
G75*
G02*
X162400000Y-110550000I0J250000D01*
G01*
X174150000Y-98800000D02*
G75*
G02*
X174400000Y-99050000I0J-250000D01*
G01*
X162400000Y-99050000D02*
G75*
G02*
X162650000Y-98800000I250000J0D01*
G01*
X171950000Y-104800000D02*
G75*
G02*
X164850000Y-104800000I-3550000J0D01*
G01*
X164850000Y-104800000D02*
G75*
G02*
X171950000Y-104800000I3550000J0D01*
G01*
%TO.C,SW10*%
X146400000Y-110550000D02*
X146400000Y-99050000D01*
X158150000Y-110800000D02*
X146650000Y-110800000D01*
X158400000Y-99050000D02*
X158400000Y-110550000D01*
X146650000Y-98800000D02*
X158150000Y-98800000D01*
X158400000Y-110550000D02*
G75*
G02*
X158150000Y-110800000I-250000J0D01*
G01*
X146650000Y-110800000D02*
G75*
G02*
X146400000Y-110550000I0J250000D01*
G01*
X158150000Y-98800000D02*
G75*
G02*
X158400000Y-99050000I0J-250000D01*
G01*
X146400000Y-99050000D02*
G75*
G02*
X146650000Y-98800000I250000J0D01*
G01*
X155950000Y-104800000D02*
G75*
G02*
X148850000Y-104800000I-3550000J0D01*
G01*
X148850000Y-104800000D02*
G75*
G02*
X155950000Y-104800000I3550000J0D01*
G01*
%TO.C,SW11*%
X130400000Y-110550000D02*
X130400000Y-99050000D01*
X142150000Y-110800000D02*
X130650000Y-110800000D01*
X142400000Y-99050000D02*
X142400000Y-110550000D01*
X130650000Y-98800000D02*
X142150000Y-98800000D01*
X142400000Y-110550000D02*
G75*
G02*
X142150000Y-110800000I-250000J0D01*
G01*
X130650000Y-110800000D02*
G75*
G02*
X130400000Y-110550000I0J250000D01*
G01*
X142150000Y-98800000D02*
G75*
G02*
X142400000Y-99050000I0J-250000D01*
G01*
X130400000Y-99050000D02*
G75*
G02*
X130650000Y-98800000I250000J0D01*
G01*
X139950000Y-104800000D02*
G75*
G02*
X132850000Y-104800000I-3550000J0D01*
G01*
X132850000Y-104800000D02*
G75*
G02*
X139950000Y-104800000I3550000J0D01*
G01*
%TO.C,SW12*%
X130400000Y-94550000D02*
X130400000Y-83050000D01*
X142150000Y-94800000D02*
X130650000Y-94800000D01*
X142400000Y-83050000D02*
X142400000Y-94550000D01*
X130650000Y-82800000D02*
X142150000Y-82800000D01*
X142400000Y-94550000D02*
G75*
G02*
X142150000Y-94800000I-250000J0D01*
G01*
X130650000Y-94800000D02*
G75*
G02*
X130400000Y-94550000I0J250000D01*
G01*
X142150000Y-82800000D02*
G75*
G02*
X142400000Y-83050000I0J-250000D01*
G01*
X130400000Y-83050000D02*
G75*
G02*
X130650000Y-82800000I250000J0D01*
G01*
X139950000Y-88800000D02*
G75*
G02*
X132850000Y-88800000I-3550000J0D01*
G01*
X132850000Y-88800000D02*
G75*
G02*
X139950000Y-88800000I3550000J0D01*
G01*
%TO.C,SW13*%
X130400000Y-78550000D02*
X130400000Y-67050000D01*
X142150000Y-78800000D02*
X130650000Y-78800000D01*
X142400000Y-67050000D02*
X142400000Y-78550000D01*
X130650000Y-66800000D02*
X142150000Y-66800000D01*
X142400000Y-78550000D02*
G75*
G02*
X142150000Y-78800000I-250000J0D01*
G01*
X130650000Y-78800000D02*
G75*
G02*
X130400000Y-78550000I0J250000D01*
G01*
X142150000Y-66800000D02*
G75*
G02*
X142400000Y-67050000I0J-250000D01*
G01*
X130400000Y-67050000D02*
G75*
G02*
X130650000Y-66800000I250000J0D01*
G01*
X139950000Y-72800000D02*
G75*
G02*
X132850000Y-72800000I-3550000J0D01*
G01*
X132850000Y-72800000D02*
G75*
G02*
X139950000Y-72800000I3550000J0D01*
G01*
%TO.C,SW14*%
X130400000Y-62550000D02*
X130400000Y-51050000D01*
X142150000Y-62800000D02*
X130650000Y-62800000D01*
X142400000Y-51050000D02*
X142400000Y-62550000D01*
X130650000Y-50800000D02*
X142150000Y-50800000D01*
X142400000Y-62550000D02*
G75*
G02*
X142150000Y-62800000I-250000J0D01*
G01*
X130650000Y-62800000D02*
G75*
G02*
X130400000Y-62550000I0J250000D01*
G01*
X142150000Y-50800000D02*
G75*
G02*
X142400000Y-51050000I0J-250000D01*
G01*
X130400000Y-51050000D02*
G75*
G02*
X130650000Y-50800000I250000J0D01*
G01*
X139950000Y-56800000D02*
G75*
G02*
X132850000Y-56800000I-3550000J0D01*
G01*
X132850000Y-56800000D02*
G75*
G02*
X139950000Y-56800000I3550000J0D01*
G01*
%TO.C,SW15*%
X146400000Y-62550000D02*
X146400000Y-51050000D01*
X158150000Y-62800000D02*
X146650000Y-62800000D01*
X158400000Y-51050000D02*
X158400000Y-62550000D01*
X146650000Y-50800000D02*
X158150000Y-50800000D01*
X158400000Y-62550000D02*
G75*
G02*
X158150000Y-62800000I-250000J0D01*
G01*
X146650000Y-62800000D02*
G75*
G02*
X146400000Y-62550000I0J250000D01*
G01*
X158150000Y-50800000D02*
G75*
G02*
X158400000Y-51050000I0J-250000D01*
G01*
X146400000Y-51050000D02*
G75*
G02*
X146650000Y-50800000I250000J0D01*
G01*
X155950000Y-56800000D02*
G75*
G02*
X148850000Y-56800000I-3550000J0D01*
G01*
X148850000Y-56800000D02*
G75*
G02*
X155950000Y-56800000I3550000J0D01*
G01*
%TO.C,SW16*%
X162400000Y-62550000D02*
X162400000Y-51050000D01*
X174150000Y-62800000D02*
X162650000Y-62800000D01*
X174400000Y-51050000D02*
X174400000Y-62550000D01*
X162650000Y-50800000D02*
X174150000Y-50800000D01*
X174400000Y-62550000D02*
G75*
G02*
X174150000Y-62800000I-250000J0D01*
G01*
X162650000Y-62800000D02*
G75*
G02*
X162400000Y-62550000I0J250000D01*
G01*
X174150000Y-50800000D02*
G75*
G02*
X174400000Y-51050000I0J-250000D01*
G01*
X162400000Y-51050000D02*
G75*
G02*
X162650000Y-50800000I250000J0D01*
G01*
X171950000Y-56800000D02*
G75*
G02*
X164850000Y-56800000I-3550000J0D01*
G01*
X164850000Y-56800000D02*
G75*
G02*
X171950000Y-56800000I3550000J0D01*
G01*
%TO.C,SW17*%
X114400000Y-110550000D02*
X114400000Y-99050000D01*
X126150000Y-110800000D02*
X114650000Y-110800000D01*
X126400000Y-99050000D02*
X126400000Y-110550000D01*
X114650000Y-98800000D02*
X126150000Y-98800000D01*
X126400000Y-110550000D02*
G75*
G02*
X126150000Y-110800000I-250000J0D01*
G01*
X114650000Y-110800000D02*
G75*
G02*
X114400000Y-110550000I0J250000D01*
G01*
X126150000Y-98800000D02*
G75*
G02*
X126400000Y-99050000I0J-250000D01*
G01*
X114400000Y-99050000D02*
G75*
G02*
X114650000Y-98800000I250000J0D01*
G01*
X123950000Y-104800000D02*
G75*
G02*
X116850000Y-104800000I-3550000J0D01*
G01*
X116850000Y-104800000D02*
G75*
G02*
X123950000Y-104800000I3550000J0D01*
G01*
%TO.C,SW18*%
X114400000Y-94550000D02*
X114400000Y-83050000D01*
X126150000Y-94800000D02*
X114650000Y-94800000D01*
X126400000Y-83050000D02*
X126400000Y-94550000D01*
X114650000Y-82800000D02*
X126150000Y-82800000D01*
X126400000Y-94550000D02*
G75*
G02*
X126150000Y-94800000I-250000J0D01*
G01*
X114650000Y-94800000D02*
G75*
G02*
X114400000Y-94550000I0J250000D01*
G01*
X126150000Y-82800000D02*
G75*
G02*
X126400000Y-83050000I0J-250000D01*
G01*
X114400000Y-83050000D02*
G75*
G02*
X114650000Y-82800000I250000J0D01*
G01*
X123950000Y-88800000D02*
G75*
G02*
X116850000Y-88800000I-3550000J0D01*
G01*
X116850000Y-88800000D02*
G75*
G02*
X123950000Y-88800000I3550000J0D01*
G01*
%TO.C,SW19*%
X114400000Y-78550000D02*
X114400000Y-67050000D01*
X126150000Y-78800000D02*
X114650000Y-78800000D01*
X126400000Y-67050000D02*
X126400000Y-78550000D01*
X114650000Y-66800000D02*
X126150000Y-66800000D01*
X126400000Y-78550000D02*
G75*
G02*
X126150000Y-78800000I-250000J0D01*
G01*
X114650000Y-78800000D02*
G75*
G02*
X114400000Y-78550000I0J250000D01*
G01*
X126150000Y-66800000D02*
G75*
G02*
X126400000Y-67050000I0J-250000D01*
G01*
X114400000Y-67050000D02*
G75*
G02*
X114650000Y-66800000I250000J0D01*
G01*
X123950000Y-72800000D02*
G75*
G02*
X116850000Y-72800000I-3550000J0D01*
G01*
X116850000Y-72800000D02*
G75*
G02*
X123950000Y-72800000I3550000J0D01*
G01*
%TO.C,SW20*%
X114400000Y-62550000D02*
X114400000Y-51050000D01*
X126150000Y-62800000D02*
X114650000Y-62800000D01*
X126400000Y-51050000D02*
X126400000Y-62550000D01*
X114650000Y-50800000D02*
X126150000Y-50800000D01*
X126400000Y-62550000D02*
G75*
G02*
X126150000Y-62800000I-250000J0D01*
G01*
X114650000Y-62800000D02*
G75*
G02*
X114400000Y-62550000I0J250000D01*
G01*
X126150000Y-50800000D02*
G75*
G02*
X126400000Y-51050000I0J-250000D01*
G01*
X114400000Y-51050000D02*
G75*
G02*
X114650000Y-50800000I250000J0D01*
G01*
X123950000Y-56800000D02*
G75*
G02*
X116850000Y-56800000I-3550000J0D01*
G01*
X116850000Y-56800000D02*
G75*
G02*
X123950000Y-56800000I3550000J0D01*
G01*
%TO.C,U1*%
X141224000Y-116840000D02*
G75*
G02*
X140208000Y-117856000I-1016000J0D01*
G01*
X140208000Y-115824000D02*
G75*
G02*
X141224000Y-116840000I0J-1016000D01*
G01*
X140208000Y-114300000D02*
X167132000Y-114300000D01*
X167132000Y-114300000D02*
X167132000Y-119380000D01*
X167132000Y-119380000D02*
X140208000Y-119380000D01*
X140208000Y-119380000D02*
X140208000Y-114300000D01*
%TO.C,U2*%
X174498000Y-116840000D02*
G75*
G02*
X173482000Y-117856000I-1016000J0D01*
G01*
X173482000Y-115824000D02*
G75*
G02*
X174498000Y-116840000I0J-1016000D01*
G01*
X173482000Y-114300000D02*
X194818000Y-114300000D01*
X194818000Y-114300000D02*
X194818000Y-119380000D01*
X194818000Y-119380000D02*
X173482000Y-119380000D01*
X173482000Y-119380000D02*
X173482000Y-114300000D01*
%TO.C,U3*%
X110236000Y-116840000D02*
G75*
G02*
X109220000Y-117856000I-1016000J0D01*
G01*
X109220000Y-115824000D02*
G75*
G02*
X110236000Y-116840000I0J-1016000D01*
G01*
X129540000Y-114300000D02*
X109220000Y-114300000D01*
X109220000Y-114300000D02*
X109220000Y-119380000D01*
X109220000Y-119380000D02*
X129540000Y-119380000D01*
X129540000Y-119380000D02*
X129540000Y-114300000D01*
%TD*%
D14*
%TO.C,P1*%
X142240000Y-128270000D03*
D15*
X142240000Y-125730000D03*
X144780000Y-128270000D03*
X144780000Y-125730000D03*
X147320000Y-128270000D03*
X147320000Y-125730000D03*
X149860000Y-128270000D03*
X149860000Y-125730000D03*
X152400000Y-128270000D03*
X152400000Y-125730000D03*
X154940000Y-128270000D03*
X154940000Y-125730000D03*
X157480000Y-128270000D03*
X157480000Y-125730000D03*
X160020000Y-128270000D03*
X160020000Y-125730000D03*
X162560000Y-128270000D03*
X162560000Y-125730000D03*
X165100000Y-128270000D03*
X165100000Y-125730000D03*
X167640000Y-128270000D03*
X167640000Y-125730000D03*
X170180000Y-128270000D03*
X170180000Y-125730000D03*
X172720000Y-128270000D03*
X172720000Y-125730000D03*
X175260000Y-125730000D03*
X175260000Y-128270000D03*
X177800000Y-125730000D03*
X177800000Y-128270000D03*
X180340000Y-128270000D03*
X180340000Y-125730000D03*
X182880000Y-128270000D03*
X182880000Y-125730000D03*
X185420000Y-128270000D03*
X185420000Y-125730000D03*
X187960000Y-128270000D03*
X187960000Y-125730000D03*
X190500000Y-128270000D03*
X190500000Y-125730000D03*
%TD*%
D16*
%TO.C,HOLE1*%
X197400000Y-125800000D03*
%TD*%
%TO.C,HOLE2*%
X107400000Y-125800000D03*
%TD*%
%TO.C,HOLE3*%
X197400000Y-55800000D03*
%TD*%
%TO.C,HOLE4*%
X107400000Y-55800000D03*
%TD*%
D17*
%TO.C,C1*%
X137160000Y-113030000D03*
X137160000Y-118110000D03*
%TD*%
%TO.C,C2*%
X170180000Y-113030000D03*
X170180000Y-118110000D03*
%TD*%
%TO.C,C3*%
X106680000Y-113030000D03*
X106680000Y-118110000D03*
%TD*%
%TO.C,C4*%
X134620000Y-118110000D03*
X134620000Y-113030000D03*
%TD*%
%TO.C,C5*%
X132080000Y-115570000D03*
X132080000Y-118110000D03*
X132080000Y-113030000D03*
%TD*%
%TO.C,C6*%
X198120000Y-115570000D03*
X198120000Y-118110000D03*
X198120000Y-113030000D03*
%TD*%
D18*
%TO.C,SW1*%
X190650000Y-54300000D03*
X190650000Y-59300000D03*
X178150000Y-54300000D03*
X178150000Y-59300000D03*
%TD*%
%TO.C,SW2*%
X190650000Y-70300000D03*
X190650000Y-75300000D03*
X178150000Y-70300000D03*
X178150000Y-75300000D03*
%TD*%
%TO.C,SW3*%
X174650000Y-70300000D03*
X174650000Y-75300000D03*
X162150000Y-70300000D03*
X162150000Y-75300000D03*
%TD*%
%TO.C,SW4*%
X158650000Y-70300000D03*
X158650000Y-75300000D03*
X146150000Y-70300000D03*
X146150000Y-75300000D03*
%TD*%
%TO.C,SW5*%
X190650000Y-86300000D03*
X190650000Y-91300000D03*
X178150000Y-86300000D03*
X178150000Y-91300000D03*
%TD*%
%TO.C,SW6*%
X174650000Y-86300000D03*
X174650000Y-91300000D03*
X162150000Y-86300000D03*
X162150000Y-91300000D03*
%TD*%
%TO.C,SW7*%
X158650000Y-86300000D03*
X158650000Y-91300000D03*
X146150000Y-86300000D03*
X146150000Y-91300000D03*
%TD*%
%TO.C,SW8*%
X190650000Y-102300000D03*
X190650000Y-107300000D03*
X178150000Y-102300000D03*
X178150000Y-107300000D03*
%TD*%
%TO.C,SW9*%
X174650000Y-102300000D03*
X174650000Y-107300000D03*
X162150000Y-102300000D03*
X162150000Y-107300000D03*
%TD*%
%TO.C,SW10*%
X158650000Y-102300000D03*
X158650000Y-107300000D03*
X146150000Y-102300000D03*
X146150000Y-107300000D03*
%TD*%
%TO.C,SW11*%
X142650000Y-102300000D03*
X142650000Y-107300000D03*
X130150000Y-102300000D03*
X130150000Y-107300000D03*
%TD*%
%TO.C,SW12*%
X142650000Y-86300000D03*
X142650000Y-91300000D03*
X130150000Y-86300000D03*
X130150000Y-91300000D03*
%TD*%
%TO.C,SW13*%
X142650000Y-70300000D03*
X142650000Y-75300000D03*
X130150000Y-70300000D03*
X130150000Y-75300000D03*
%TD*%
%TO.C,SW14*%
X142650000Y-54300000D03*
X142650000Y-59300000D03*
X130150000Y-54300000D03*
X130150000Y-59300000D03*
%TD*%
%TO.C,SW15*%
X158650000Y-54300000D03*
X158650000Y-59300000D03*
X146150000Y-54300000D03*
X146150000Y-59300000D03*
%TD*%
%TO.C,SW16*%
X174650000Y-54300000D03*
X174650000Y-59300000D03*
X162150000Y-54300000D03*
X162150000Y-59300000D03*
%TD*%
%TO.C,SW17*%
X126650000Y-102300000D03*
X126650000Y-107300000D03*
X114150000Y-102300000D03*
X114150000Y-107300000D03*
%TD*%
%TO.C,SW18*%
X126650000Y-86300000D03*
X126650000Y-91300000D03*
X114150000Y-86300000D03*
X114150000Y-91300000D03*
%TD*%
%TO.C,SW19*%
X126650000Y-70300000D03*
X126650000Y-75300000D03*
X114150000Y-70300000D03*
X114150000Y-75300000D03*
%TD*%
%TO.C,SW20*%
X126650000Y-54300000D03*
X126650000Y-59300000D03*
X114150000Y-54300000D03*
X114150000Y-59300000D03*
%TD*%
D19*
%TO.C,U1*%
X142240000Y-120650000D03*
D17*
X144780000Y-120650000D03*
X147320000Y-120650000D03*
X149860000Y-120650000D03*
X152400000Y-120650000D03*
X154940000Y-120650000D03*
X157480000Y-120650000D03*
X160020000Y-120650000D03*
X162560000Y-120650000D03*
X165100000Y-120650000D03*
X165100000Y-113030000D03*
X162560000Y-113030000D03*
X160020000Y-113030000D03*
X157480000Y-113030000D03*
X154940000Y-113030000D03*
X152400000Y-113030000D03*
X149860000Y-113030000D03*
X147320000Y-113030000D03*
X144780000Y-113030000D03*
X142240000Y-113030000D03*
%TD*%
D19*
%TO.C,U2*%
X175260000Y-120650000D03*
D17*
X177800000Y-120650000D03*
X180340000Y-120650000D03*
X182880000Y-120650000D03*
X185420000Y-120650000D03*
X187960000Y-120650000D03*
X190500000Y-120650000D03*
X193040000Y-120650000D03*
X193040000Y-113030000D03*
X190500000Y-113030000D03*
X187960000Y-113030000D03*
X185420000Y-113030000D03*
X182880000Y-113030000D03*
X180340000Y-113030000D03*
X177800000Y-113030000D03*
X175260000Y-113030000D03*
%TD*%
D19*
%TO.C,U3*%
X111760000Y-120650000D03*
D17*
X114300000Y-120650000D03*
X116840000Y-120650000D03*
X119380000Y-120650000D03*
X121920000Y-120650000D03*
X124460000Y-120650000D03*
X127000000Y-120650000D03*
X127000000Y-113030000D03*
X124460000Y-113030000D03*
X121920000Y-113030000D03*
X119380000Y-113030000D03*
X116840000Y-113030000D03*
X114300000Y-113030000D03*
X111760000Y-113030000D03*
%TD*%
M02*
